<svg width="700" height="500" viewBox="0 0 700 500" fill="none" xmlns="http://www.w3.org/2000/svg">
<path d="M573.298 441.666L612.611 301.462C613.746 297.398 613.615 293.136 612.226 289.134L545.85 98.1425C544.32 93.7374 541.33 89.8415 537.276 86.9601C533.221 84.0791 528.284 82.3456 523.103 81.985L185.213 58.4046C181.295 58.1298 177.358 58.6485 173.7 59.9217C170.041 61.1943 166.757 63.1885 164.094 65.7527L42.2995 183.039C39.8029 185.443 37.9126 188.291 36.7539 191.393C35.5952 194.496 35.1945 197.782 35.5793 201.032L64.0934 441.666H573.298Z" fill="#F4F4F4"/>
<path d="M604.848 441.825H73.958" stroke="#B1B5BA" stroke-miterlimit="10"/>
<path d="M546.713 311.367H580.716C580.943 311.369 581.171 311.327 581.381 311.246C581.591 311.164 581.779 311.043 581.941 310.89C582.098 310.737 582.225 310.556 582.313 310.356C582.4 310.156 582.444 309.942 582.44 309.726C582.444 309.509 582.4 309.295 582.313 309.095C582.225 308.895 582.098 308.714 581.941 308.561C581.779 308.408 581.591 308.287 581.381 308.205C581.171 308.124 580.943 308.082 580.716 308.084H546.713V311.367Z" fill="#B0B4B9"/>
<path d="M576.301 309.779H541.997V410.392H576.301V309.779Z" fill="#B0B4B9"/>
<path d="M543.06 309.779H438.13V410.392H543.06V309.779Z" fill="#D8DBDD"/>
<path d="M537.744 402.716H443.043V323.771L537.74 323.866V402.716H537.744ZM443.804 401.991H536.992V324.583H443.804V401.991Z" fill="#B0B4B9"/>
<path d="M434.229 311.367H546.761C546.989 311.369 547.216 311.327 547.426 311.246C547.636 311.164 547.824 311.043 547.986 310.89C548.148 310.737 548.275 310.556 548.358 310.356C548.446 310.156 548.489 309.942 548.485 309.726C548.489 309.509 548.446 309.295 548.358 309.095C548.275 308.895 548.148 308.714 547.986 308.561C547.824 308.408 547.636 308.287 547.426 308.205C547.216 308.124 546.989 308.082 546.761 308.084H434.234C434.007 308.082 433.782 308.124 433.572 308.205C433.362 308.287 433.171 308.408 433.011 308.561C432.85 308.714 432.723 308.895 432.638 309.095C432.551 309.295 432.508 309.509 432.51 309.726C432.516 310.158 432.7 310.572 433.02 310.878C433.342 311.184 433.775 311.359 434.229 311.367Z" fill="#D8DBDD"/>
<path d="M537.74 362.758H443.043V363.483H537.74V362.758Z" fill="#B0B4B9"/>
<path d="M486.316 336.463C487.773 336.463 488.95 335.34 488.95 333.955C488.95 332.569 487.773 331.446 486.316 331.446C484.864 331.446 483.683 332.569 483.683 333.955C483.683 335.34 484.864 336.463 486.316 336.463Z" fill="#B0B4B9"/>
<path opacity="0.15" d="M487.279 333.954C487.283 333.435 487.113 332.929 486.802 332.505C486.487 332.081 486.041 331.76 485.529 331.588C485.809 331.486 486.106 331.437 486.404 331.442C487.099 331.442 487.769 331.705 488.259 332.174C488.753 332.643 489.029 333.278 489.029 333.942C489.029 334.605 488.753 335.241 488.259 335.709C487.769 336.178 487.099 336.442 486.404 336.442C486.106 336.443 485.809 336.395 485.529 336.3C486.036 336.125 486.478 335.808 486.789 335.388C487.104 334.969 487.274 334.468 487.279 333.954Z" fill="black"/>
<path d="M486.316 375.309C487.773 375.309 488.95 374.186 488.95 372.8C488.95 371.415 487.773 370.292 486.316 370.292C484.864 370.292 483.683 371.415 483.683 372.8C483.683 374.186 484.864 375.309 486.316 375.309Z" fill="#B0B4B9"/>
<path opacity="0.15" d="M487.279 372.8C487.283 372.281 487.113 371.775 486.802 371.351C486.487 370.927 486.041 370.606 485.529 370.433C485.809 370.334 486.106 370.286 486.404 370.291C487.099 370.291 487.769 370.555 488.259 371.024C488.753 371.493 489.029 372.129 489.029 372.791C489.029 373.455 488.753 374.091 488.259 374.559C487.769 375.028 487.099 375.291 486.404 375.291C486.106 375.293 485.809 375.245 485.529 375.15C486.036 374.976 486.478 374.657 486.793 374.236C487.104 373.816 487.274 373.315 487.279 372.8Z" fill="black"/>
<path d="M548.485 314.741L543.06 311.366H438.13V312.916L548.485 314.741Z" fill="#B0B4B9"/>
<path d="M569.56 410.387L572.185 438.229C572.233 438.466 572.228 438.712 572.167 438.945C572.101 439.179 571.988 439.399 571.83 439.587C571.668 439.774 571.471 439.929 571.244 440.037C571.012 440.145 570.763 440.204 570.509 440.208C570.155 440.204 569.805 440.095 569.516 439.895C569.227 439.695 569.013 439.416 568.895 439.095L561.243 410.383L569.56 410.387Z" fill="#D8DBDD"/>
<path d="M568.601 426.604L565.408 425.879L561.312 410.438H569.625L572.25 438.279C572.324 438.65 572.263 439.029 572.079 439.362C571.896 439.696 571.598 439.958 571.239 440.112L568.601 426.604Z" fill="#B0B4B9"/>
<path d="M539.722 410.387L542.347 438.229C542.395 438.466 542.386 438.712 542.325 438.945C542.264 439.179 542.15 439.399 541.992 439.587C541.83 439.774 541.634 439.929 541.406 440.037C541.179 440.141 540.929 440.199 540.675 440.208C540.317 440.204 539.971 440.091 539.682 439.891C539.394 439.695 539.175 439.416 539.057 439.095L531.409 410.383L539.722 410.387Z" fill="#D8DBDD"/>
<path d="M536.931 413.479L532.166 412.608L531.357 410.392H539.669L542.294 438.233C542.364 438.604 542.303 438.983 542.119 439.317C541.936 439.65 541.638 439.912 541.279 440.067L536.931 413.479Z" fill="#B0B4B9"/>
<path d="M473.952 410.387L471.327 438.229C471.279 438.466 471.288 438.712 471.349 438.945C471.41 439.179 471.524 439.399 471.686 439.587C471.844 439.774 472.045 439.929 472.272 440.037C472.5 440.145 472.749 440.204 473.003 440.208C473.362 440.204 473.707 440.095 473.996 439.895C474.285 439.695 474.504 439.416 474.617 439.095L482.269 410.383L473.952 410.387Z" fill="#D8DBDD"/>
<path d="M475.422 425.199L472.587 424.524L473.957 410.383H482.269L474.622 439.095C474.504 439.416 474.285 439.695 473.996 439.891C473.707 440.091 473.362 440.204 473.003 440.208H472.902L475.422 425.199Z" fill="#B0B4B9"/>
<path d="M443.301 410.387L440.676 438.229C440.628 438.466 440.637 438.712 440.698 438.945C440.76 439.179 440.873 439.399 441.031 439.587C441.188 439.774 441.39 439.929 441.617 440.037C441.845 440.141 442.094 440.199 442.348 440.208C442.702 440.204 443.052 440.091 443.341 439.891C443.63 439.695 443.848 439.416 443.966 439.095L451.614 410.383L443.301 410.387Z" fill="#D8DBDD"/>
<path d="M446.538 412.8L442.894 412.175L443.301 410.388H451.613L443.966 439.1C443.848 439.421 443.629 439.7 443.34 439.896C443.052 440.096 442.706 440.204 442.347 440.213H442.247L446.538 412.8Z" fill="#B0B4B9"/>
<path d="M510.913 252.808C508.226 251.204 505.19 250.207 502.036 249.891C500.583 249.75 498.973 249.787 497.836 250.629C497.591 250.808 497.346 251.066 497.398 251.354C497.464 251.565 497.608 251.746 497.805 251.862C499.691 253.14 501.909 253.903 504.215 254.069C506.525 254.235 508.835 253.797 510.904 252.804" fill="#D1D3D4"/>
<path d="M510.685 252.567C508.633 251.127 506.717 249.521 504.954 247.767C503.19 245.992 501.952 243.806 501.362 241.429C501.244 241.077 501.209 240.705 501.261 240.339C501.309 239.972 501.445 239.621 501.65 239.309C506.218 242.713 509.832 247.104 510.654 252.559" fill="#D1D3D4"/>
<path d="M510.864 252.779C510.44 250.403 510.479 247.973 510.974 245.609C511.481 243.224 512.912 241.109 514.981 239.684C515.799 241.446 515.419 243.471 514.876 245.309C514.01 248.154 512.667 250.847 510.899 253.284" fill="#D1D3D4"/>
<path d="M515.344 260.442C512.654 260.852 510.164 262.05 508.222 263.872C506.17 265.642 504.744 267.969 504.127 270.538C506.796 270.38 509.04 268.588 510.689 266.576C512.339 264.563 513.472 262.367 515.274 260.488" fill="#858990"/>
<path d="M516.316 261.666C515.248 259.074 514.872 256.269 515.226 253.505C515.581 250.741 516.652 248.104 518.346 245.833C519.159 248.465 519.4 251.227 519.05 253.95C518.7 256.672 517.772 259.298 516.316 261.666Z" fill="#D1D3D4"/>
<path d="M522.244 268.363C519.759 268.219 517.278 268.773 515.121 269.959C512.96 271.144 511.215 272.907 510.095 275.03C510.003 275.161 509.946 275.313 509.928 275.472C509.915 275.63 509.946 275.79 510.016 275.934C510.121 276.035 510.252 276.11 510.396 276.15C510.536 276.19 510.689 276.195 510.834 276.163C513.223 276.013 515.345 274.642 517.095 273.084C518.845 271.526 520.367 269.717 522.301 268.367" fill="#D1D3D4"/>
<path d="M522.056 267.996C520.778 264.089 520.699 259.915 521.824 255.966C522.261 254.408 523.018 252.787 524.527 252.071C524.589 252.032 524.654 252.006 524.724 251.993C524.794 251.981 524.869 251.983 524.934 252C525.061 252.059 525.153 252.162 525.197 252.287C525.704 253.369 525.919 254.553 525.827 255.733C525.744 256.913 525.555 258.083 525.262 259.233C524.79 261.371 524.536 263.662 523.307 265.483C523.005 265.927 522.734 266.387 522.489 266.862C522.252 267.329 522.252 267.491 522.051 267.866" fill="#B2B6BB"/>
<path d="M537.727 270.217C537.202 268.021 537.189 265.742 537.679 263.54C538.173 261.337 539.166 259.264 540.584 257.463C540.671 257.322 540.789 257.204 540.934 257.117C541.074 257.03 541.24 256.977 541.406 256.963C541.914 257.013 542.049 257.667 542.028 258.15C541.818 262.482 540.33 266.67 537.736 270.234" fill="#D1D3D4"/>
<path d="M539.136 271.138C541.883 271.75 544.731 271.788 547.492 271.249C550.257 270.71 552.86 269.608 555.131 268.017C552.453 266.741 549.395 266.384 546.472 267.004C543.585 267.498 540.973 268.954 539.105 271.113" fill="#D1D3D4"/>
<path d="M540.312 268.333C541.901 266.006 544.04 264.069 546.564 262.68C549.089 261.291 551.919 260.49 554.829 260.342C554.435 261.438 553.809 262.446 552.991 263.306C552.173 264.165 551.184 264.858 550.077 265.342C547.859 266.289 545.514 266.942 543.113 267.283C542.189 267.454 540.925 267.642 540.312 268.333Z" fill="#B2B6BB"/>
<path d="M538.024 254.741C538.934 252.118 539.556 249.412 539.875 246.666C540.194 243.883 539.599 241.075 538.169 238.629C536.742 241.135 535.972 243.934 535.929 246.786C535.885 249.637 536.572 252.456 537.924 255" fill="#D1D3D4"/>
<path d="M547.479 250.199C550.752 244.516 557.463 239.97 564.24 239.337C561.615 245.537 554.492 250.329 547.479 250.199Z" fill="#858990"/>
<path d="M545.414 251.312C550.327 252.02 554.483 255 559.059 256.77C560.022 257.212 561.085 257.407 562.144 257.337C562.629 257.311 563.093 257.15 563.482 256.873C563.867 256.597 564.16 256.217 564.322 255.782C564.484 255.348 564.506 254.877 564.388 254.43C564.27 253.983 564.012 253.58 563.653 253.27C563.01 252.7 562.249 252.259 561.417 251.975C556.43 249.995 551.088 249.95 545.864 251.141" fill="#D1D3D4"/>
<path d="M542.583 254.583C543.686 254.887 544.066 255.416 544.95 256.141C547.938 258.57 551.477 260.305 555.292 261.208C555.686 261.304 556.202 261.341 556.399 261C556.596 260.658 556.399 260.345 556.128 260.079C554.466 258.22 552.309 256.825 549.885 256.041C547.492 255.208 545.431 254.171 542.583 254.375" fill="#D1D3D4"/>
<path d="M539.38 234.825C541.388 236.588 543.76 237.932 546.345 238.77C548.931 239.608 551.674 239.922 554.395 239.692C554.645 239.692 554.881 239.608 555.073 239.454C555.458 239.067 554.999 238.459 554.557 238.129C550.147 234.859 544.801 233.5 539.38 234.825Z" fill="#D1D3D4"/>
<path d="M543.174 233.508C545.834 231.642 548.918 230.402 552.173 229.89C555.433 229.378 558.771 229.608 561.916 230.562C559.466 232.73 556.321 234.051 552.987 234.312C549.693 234.601 546.368 234.337 543.165 233.533" fill="#B2B6BB"/>
<path d="M541.664 224.425C541.227 220.233 541.511 216.924 541.227 212.733C541.227 212.399 541.126 211.991 540.789 211.866C540.453 211.741 539.971 212.241 539.801 212.699C539.153 214.655 538.987 216.726 539.311 218.752C539.634 220.779 540.444 222.708 541.673 224.391" fill="#D1D3D4"/>
<path d="M541.345 224.896C544.224 223.122 546.705 220.826 548.647 218.137C550.091 216.258 551.298 214.004 550.975 211.704C549.96 211.732 548.966 211.97 548.061 212.402C547.151 212.834 546.355 213.449 545.725 214.204C544.465 215.724 543.55 217.476 543.038 219.35C542.456 221.187 542.05 223.1 541.402 224.908" fill="#D1D3D4"/>
<path d="M548.516 223.025C555.083 220.694 561.159 217.261 566.453 212.888C564.309 212.108 561.855 212.563 559.707 213.388C554.837 215.141 550.817 218.537 548.406 222.929" fill="#858990"/>
<path d="M543.375 227.188C546.678 227.634 550.034 227.649 553.341 227.234C556.552 226.597 559.676 225.609 562.647 224.288C562.914 224.217 563.141 224.051 563.285 223.825C563.338 223.689 563.347 223.541 563.303 223.401C563.264 223.261 563.176 223.137 563.058 223.046C562.817 222.867 562.537 222.747 562.24 222.696C558.902 221.923 555.397 222.122 552.177 223.267C549.097 224.266 546.135 225.572 543.344 227.163" fill="#D1D3D4"/>
<path d="M524.435 234.967C523.364 232.796 522.795 230.432 522.769 228.034C522.742 225.636 523.254 223.26 524.274 221.067C525.647 223.063 525.818 225.605 525.586 227.984C525.354 230.363 524.571 232.801 524.523 235.184" fill="#D1D3D4"/>
<path d="M515.401 230.634C512.571 230.596 509.762 231.122 507.154 232.179C504.547 233.235 502.202 234.797 500.264 236.767C503.121 237.092 506.008 236.58 508.55 235.3C511.074 234.03 513.454 232.515 515.655 230.78" fill="#D1D3D4"/>
<path d="M509.324 228.692C506.559 228.48 503.899 228.155 501.248 228.934C499.905 229.29 498.662 229.918 497.599 230.776C496.536 231.633 495.683 232.699 495.092 233.9C497.709 234.105 500.329 233.636 502.687 232.542C505.024 231.451 507.25 230.162 509.346 228.692" fill="#D1D3D4"/>
<path d="M518.324 228.783C515.865 227.225 513.279 225.667 510.392 225.012C507.504 224.358 504.136 224.841 502.123 226.921C504.464 228.229 507.303 228.387 510.024 228.379C512.746 228.371 516.071 228.379 518.626 229.212" fill="#D1D3D4"/>
<path d="M518.328 228.909C514.08 224.934 512.47 217.792 514.181 212.367C517.536 217.256 519.002 223.103 518.328 228.909Z" fill="#858990"/>
<path d="M529.992 217.654C530.814 215.875 531.352 214.012 532.074 212.195C532.735 210.369 533.741 208.673 535.045 207.195C536.375 205.71 538.256 204.778 540.295 204.6C539.643 207.337 538.396 209.913 536.637 212.165C534.879 214.418 532.647 216.295 530.079 217.679" fill="#858990"/>
<path d="M527.901 220C526.588 218.262 525.044 215.9 523.25 214.583C522.379 213.902 521.36 213.409 520.266 213.14C519.168 212.871 518.026 212.832 516.915 213.025C518.048 214.929 519.628 216.554 521.535 217.772C523.443 218.991 525.626 219.768 527.901 220.042" fill="#B2B6BB"/>
<path d="M528.356 217.792C527.393 215.721 526.68 213.553 526.229 211.33C525.792 209.088 526.168 206.771 527.293 204.759C529.624 208.955 530.355 213.459 528.448 217.838" fill="#D1D3D4"/>
<path d="M530.036 204.759C531.348 200.592 535.364 197.525 539.687 196.121C540.221 195.912 540.798 195.829 541.371 195.879C541.656 195.908 541.931 196.017 542.15 196.194C542.373 196.371 542.535 196.606 542.614 196.871C542.78 197.579 542.176 198.213 541.586 198.688C538.204 201.432 534.275 203.497 530.036 204.759Z" fill="#D1D3D4"/>
<path d="M530.084 201.354C530.127 198.661 530.552 195.986 531.344 193.4C532.262 190.858 534.03 188.475 536.594 187.358C537.031 190.071 535.776 192.775 534.262 195.1C532.748 197.425 530.924 199.638 530.014 202.233" fill="#B2B6BB"/>
<path d="M529.992 203.2C528.898 200.167 528.789 196.308 526.886 193.667C525.573 191.817 523.412 190.546 522.257 188.608C521.57 190.485 521.666 192.54 522.528 194.35C523.399 196.14 524.593 197.77 526.059 199.163C527.472 200.604 528.684 201.663 529.997 203.2" fill="#858990"/>
<path d="M530.036 292.534C529.953 292.534 529.878 272.268 529.869 247.322C529.861 222.376 529.931 202.109 530.018 202.109C530.106 202.109 530.176 222.376 530.184 247.322C530.193 272.268 530.123 292.534 530.036 292.534Z" fill="#D1D3D4"/>
<path d="M548.625 231.917C548.362 232.034 548.087 232.129 547.807 232.2L545.619 232.909C543.764 233.509 541.218 234.384 538.453 235.459C535.688 236.534 533.137 237.484 531.667 238.7C531.077 239.162 530.609 239.75 530.307 240.417C530.092 240.892 530.053 241.196 530.027 241.196C530.001 241.196 530.027 241.117 530.027 240.984C530.057 240.782 530.11 240.583 530.184 240.392C530.456 239.687 530.906 239.057 531.497 238.559C532.381 237.845 533.374 237.257 534.437 236.813C535.614 236.292 536.891 235.746 538.304 235.209C541.082 234.125 543.642 233.284 545.519 232.709C546.459 232.429 547.221 232.225 547.75 232.084C548.034 231.998 548.327 231.942 548.625 231.917Z" fill="#D1D3D4"/>
<path d="M554.698 217.675C554.628 217.757 554.553 217.832 554.466 217.9L553.788 218.516L551.276 220.683L542.802 227.871C539.529 230.671 536.642 233.329 534.621 235.371C533.619 236.375 532.844 237.212 532.311 237.796L531.698 238.466C531.549 238.612 531.475 238.691 531.466 238.683C531.514 238.591 531.576 238.504 531.646 238.425C531.777 238.262 531.956 238.008 532.219 237.716C532.726 237.116 533.479 236.258 534.454 235.216C537.014 232.558 539.718 230.029 542.557 227.641C545.834 224.841 548.892 222.333 551.088 220.516L553.713 218.387L554.431 217.821C554.514 217.761 554.601 217.712 554.698 217.675Z" fill="#D1D3D4"/>
<path d="M539.201 230.75C539.113 230.75 539.8 229.188 540.513 227.271C541.227 225.354 541.528 223.733 541.616 223.75C541.546 224.989 541.27 226.21 540.798 227.367C540.509 228.196 540.168 229.007 539.77 229.796C539.634 230.139 539.442 230.461 539.201 230.75Z" fill="#D1D3D4"/>
<path d="M530.058 243.005C529.874 242.827 529.703 242.636 529.546 242.434L528.233 240.876C527.135 239.526 525.608 237.663 523.919 235.621C522.231 233.58 520.647 231.726 519.544 230.43L518.232 228.871C518.066 228.687 517.917 228.486 517.794 228.271C517.991 228.432 518.175 228.609 518.341 228.801C518.687 229.151 519.159 229.667 519.759 230.313C520.927 231.601 522.524 233.43 524.226 235.459C525.928 237.488 527.411 239.355 528.465 240.767C528.999 241.459 529.414 242.017 529.694 242.434C529.834 242.611 529.957 242.803 530.058 243.005Z" fill="#D1D3D4"/>
<path d="M525.985 238.021C525.162 237.158 524.576 236.114 524.283 234.983C523.959 233.992 523.828 232.952 523.898 231.916H524.029C523.972 232.15 523.92 232.275 523.898 232.275C523.876 232.275 523.898 232.137 523.898 231.896H524.029C524.095 232.903 524.278 233.901 524.576 234.871C524.961 235.953 525.429 237.007 525.985 238.021Z" fill="#D1D3D4"/>
<path d="M520.73 231.725C520.362 231.462 519.96 231.241 519.54 231.067C518.473 230.768 517.352 230.689 516.25 230.833C515.126 230.913 514.014 231.082 512.921 231.337C512.47 231.471 512.015 231.578 511.551 231.658C511.958 231.421 512.4 231.247 512.864 231.142C513.958 230.82 515.086 230.617 516.228 230.533C517.379 230.391 518.551 230.513 519.645 230.887C520.096 231.042 520.476 231.337 520.73 231.725Z" fill="#D1D3D4"/>
<path d="M519.483 230.205C519.483 230.242 518.787 229.938 517.658 229.563C516.184 229.091 514.657 228.794 513.108 228.676C511.56 228.567 509.998 228.642 508.467 228.901C507.29 229.105 506.577 229.317 506.559 229.259C506.712 229.174 506.874 229.11 507.045 229.067C507.495 228.916 507.959 228.794 508.427 228.701C509.972 228.376 511.555 228.271 513.13 228.388C514.71 228.496 516.258 228.829 517.733 229.376C518.183 229.537 518.621 229.725 519.045 229.938C519.352 230.088 519.492 230.18 519.483 230.205Z" fill="#D1D3D4"/>
<path d="M529.992 223.749C529.458 222.309 529.021 220.838 528.679 219.345C528.233 217.877 527.888 216.382 527.647 214.87C528.181 216.31 528.618 217.781 528.959 219.274C529.401 220.744 529.747 222.238 529.992 223.749Z" fill="#D1D3D4"/>
<path d="M530.101 223.75C529.677 222.838 529.187 221.956 528.627 221.113C527.997 220.315 527.262 219.599 526.439 218.979C526.746 219.051 527.026 219.194 527.258 219.396C527.874 219.827 528.413 220.354 528.846 220.954C529.515 221.766 529.944 222.73 530.101 223.75Z" fill="#D1D3D4"/>
<path d="M530.036 281.746C530.036 281.746 529.944 281.263 529.699 280.396C529.349 279.188 528.872 278.016 528.281 276.896C526.238 273.225 523.709 269.819 520.752 266.763C519.068 264.933 517.44 263.208 516.044 261.554C514.811 260.098 513.686 258.556 512.689 256.942C512.024 255.85 511.455 254.706 510.996 253.521C510.843 253.104 510.724 252.738 510.659 252.538C510.624 252.423 510.593 252.306 510.571 252.188L511.101 253.471C511.613 254.633 512.203 255.759 512.877 256.842C513.892 258.431 515.025 259.948 516.268 261.383C517.659 263.021 519.295 264.717 520.984 266.575C523.967 269.645 526.496 273.09 528.5 276.813C529.082 277.953 529.532 279.15 529.843 280.383C529.926 280.717 529.992 281.055 530.031 281.396C530.053 281.512 530.053 281.63 530.036 281.746Z" fill="#D1D3D4"/>
<path d="M546.814 263.7C546.534 263.87 546.241 264.026 545.939 264.167C545.143 264.592 544.382 265.071 543.655 265.6C542.579 266.404 541.573 267.286 540.637 268.238C539.587 269.296 538.497 270.521 537.36 271.838C535.172 274.479 533.09 276.838 531.852 278.684C531.222 279.609 530.762 280.392 530.46 280.934C530.325 281.223 530.163 281.502 529.979 281.767C529.997 281.685 530.023 281.606 530.058 281.529C530.123 281.375 530.215 281.15 530.355 280.867C530.745 280.064 531.186 279.284 531.668 278.529C533.352 276.129 535.172 273.821 537.128 271.617C538.235 270.292 539.315 269.067 540.4 268.004C541.345 267.067 542.369 266.204 543.463 265.425C544.207 264.906 544.998 264.447 545.821 264.054C546.114 263.913 546.35 263.829 546.508 263.767C546.604 263.723 546.709 263.7 546.814 263.7Z" fill="#D1D3D4"/>
<path d="M547.182 269.554C546.569 269.682 545.952 269.768 545.327 269.812C543.835 269.958 542.36 270.237 540.921 270.646C539.503 271.089 538.173 271.754 536.983 272.616C536.069 273.287 535.645 273.841 535.601 273.812C535.557 273.783 535.675 273.646 535.872 273.396C536.17 273.056 536.498 272.741 536.848 272.454C538.025 271.523 539.376 270.815 540.833 270.371C542.295 269.949 543.795 269.688 545.318 269.591C545.939 269.521 546.56 269.509 547.182 269.554Z" fill="#D1D3D4"/>
<path d="M536.091 273.154C535.994 273.1 536.839 271.884 537.482 270.238C538.125 268.592 538.234 267.121 538.357 267.121C538.418 267.435 538.418 267.757 538.357 268.071C538.274 268.835 538.09 269.586 537.814 270.309C537.543 271.028 537.18 271.716 536.742 272.359C536.581 272.659 536.357 272.929 536.091 273.154Z" fill="#D1D3D4"/>
<path d="M552.248 247.967C552.16 248.03 552.059 248.08 551.954 248.117L551.079 248.5C550.694 248.654 550.261 248.85 549.71 249.113C549.159 249.375 548.573 249.638 547.934 250.004L546.923 250.55C546.569 250.746 546.219 250.967 545.847 251.196C545.103 251.613 544.351 252.154 543.559 252.7C540.142 255.126 537.154 258.061 534.717 261.392C534.17 262.171 533.636 262.904 533.212 263.629C532.989 263.988 532.774 264.325 532.573 264.667L532.031 265.65C531.672 266.271 531.409 266.867 531.156 267.371C530.902 267.875 530.718 268.329 530.561 268.696L530.189 269.529C530.158 269.633 530.11 269.73 530.044 269.817C530.062 269.713 530.093 269.611 530.132 269.513C530.215 269.288 530.32 269 530.443 268.65C530.604 268.191 530.793 267.741 531.003 267.3C531.248 266.788 531.484 266.179 531.821 265.546C531.991 265.233 532.162 264.9 532.35 264.55C532.538 264.2 532.761 263.863 532.976 263.496C533.413 262.763 533.925 262.017 534.463 261.229C536.891 257.846 539.906 254.88 543.375 252.458C544.193 251.921 544.946 251.392 545.707 250.971C546.074 250.75 546.433 250.525 546.788 250.329L547.816 249.8C548.463 249.442 549.084 249.183 549.627 248.942C550.169 248.7 550.633 248.525 551.018 248.367L551.919 248.038C552.029 248.004 552.138 247.981 552.248 247.967Z" fill="#D1D3D4"/>
<path d="M539 256.449C539.127 256.041 539.381 255.679 539.731 255.412C540.549 254.737 541.59 254.357 542.671 254.337C543.734 254.333 544.788 254.529 545.772 254.912C546.188 255.037 546.582 255.221 546.941 255.458C546.516 255.375 546.101 255.258 545.698 255.108C544.727 254.794 543.708 254.634 542.684 254.633C541.664 254.65 540.68 254.979 539.871 255.57C539.56 255.844 539.267 256.138 539 256.449Z" fill="#D1D3D4"/>
<path d="M536.983 258.4C537.858 256.768 538.081 254.889 537.613 253.112C537.779 253.35 537.897 253.614 537.967 253.891C538.142 254.54 538.19 255.214 538.112 255.879C538.028 256.542 537.819 257.184 537.49 257.775C537.25 258.187 537.018 258.421 536.983 258.4Z" fill="#D1D3D4"/>
<path d="M515.375 284.646C515.812 292.379 518.284 300.237 522.047 308.195H538.418C542.001 300.32 544.285 292.471 544.688 284.646H515.375Z" fill="#858990"/>
<path d="M542.019 297.158C542.019 297.242 536.633 297.304 529.988 297.304C523.342 297.304 517.948 297.242 517.948 297.158C517.948 297.075 523.333 297.017 529.988 297.017C536.642 297.017 542.019 297.083 542.019 297.158Z" fill="white"/>
<path d="M541.651 299.963C541.651 300.042 536.598 300.113 530.373 300.113C524.147 300.113 519.085 300.042 519.085 299.963C519.085 299.884 524.134 299.817 530.373 299.817C536.611 299.817 541.651 299.88 541.651 299.963Z" fill="white"/>
<path d="M522.292 289.721C522.497 292.112 522.497 294.517 522.292 296.908C522.095 294.516 522.095 292.113 522.292 289.721Z" fill="white"/>
<path d="M531.068 289.721C531.274 292.196 531.274 294.683 531.068 297.158C530.858 294.683 530.858 292.196 531.068 289.721Z" fill="white"/>
<path d="M539.302 289.658C539.499 292.182 539.499 294.717 539.302 297.241C539.092 294.718 539.092 292.182 539.302 289.658Z" fill="white"/>
<path d="M544.154 289.721C544.154 289.808 537.827 289.871 530.036 289.871C522.244 289.871 515.917 289.808 515.917 289.721C515.917 289.633 522.235 289.579 530.036 289.579C537.836 289.579 544.154 289.642 544.154 289.721Z" fill="white"/>
<path d="M493.032 129.479H187.589C183.437 129.479 180.072 132.684 180.072 136.638V353.13C180.072 357.083 183.437 360.288 187.589 360.288H493.032C497.184 360.288 500.548 357.083 500.548 353.13V136.638C500.548 132.684 497.184 129.479 493.032 129.479Z" fill="#3AAFA9"/>
<path opacity="0.6" d="M493.032 129.479H187.589C183.437 129.479 180.072 132.684 180.072 136.638V353.13C180.072 357.083 183.437 360.288 187.589 360.288H493.032C497.184 360.288 500.548 357.083 500.548 353.13V136.638C500.548 132.684 497.184 129.479 493.032 129.479Z" fill="white"/>
<path d="M489.414 129.479H183.969C179.818 129.479 176.453 132.684 176.453 136.638V353.13C176.453 357.083 179.818 360.288 183.969 360.288H489.414C493.566 360.288 496.93 357.083 496.93 353.13V136.638C496.93 132.684 493.566 129.479 489.414 129.479Z" fill="white"/>
<path d="M183.969 129.479H201.408V360.292H183.969C181.976 360.292 180.064 359.538 178.654 358.195C177.245 356.853 176.453 355.032 176.453 353.134V136.638C176.453 134.739 177.245 132.919 178.654 131.576C180.064 130.234 181.976 129.479 183.969 129.479Z" fill="#3AAFA9"/>
<path d="M194.1 138.88H183.757C182.946 138.88 182.287 139.506 182.287 140.278C182.287 141.049 182.946 141.676 183.757 141.676H194.1C194.912 141.676 195.57 141.049 195.57 140.278C195.57 139.506 194.912 138.88 194.1 138.88Z" fill="white"/>
<path d="M191.644 158.792H186.214C185.507 158.792 184.933 159.338 184.933 160.013V165.184C184.933 165.858 185.507 166.404 186.214 166.404H191.644C192.352 166.404 192.926 165.858 192.926 165.184V160.013C192.926 159.338 192.352 158.792 191.644 158.792Z" fill="#3AAFA9"/>
<path opacity="0.4" d="M191.644 158.792H186.214C185.507 158.792 184.933 159.338 184.933 160.013V165.184C184.933 165.858 185.507 166.404 186.214 166.404H191.644C192.352 166.404 192.926 165.858 192.926 165.184V160.013C192.926 159.338 192.352 158.792 191.644 158.792Z" fill="white"/>
<path d="M191.644 183.509H186.214C185.507 183.509 184.933 184.055 184.933 184.73V189.9C184.933 190.575 185.507 191.121 186.214 191.121H191.644C192.352 191.121 192.926 190.575 192.926 189.9V184.73C192.926 184.055 192.352 183.509 191.644 183.509Z" fill="#3AAFA9"/>
<path opacity="0.4" d="M191.644 183.509H186.214C185.507 183.509 184.933 184.055 184.933 184.73V189.9C184.933 190.575 185.507 191.121 186.214 191.121H191.644C192.352 191.121 192.926 190.575 192.926 189.9V184.73C192.926 184.055 192.352 183.509 191.644 183.509Z" fill="white"/>
<path d="M191.644 208.229H186.214C185.507 208.229 184.933 208.776 184.933 209.45V214.621C184.933 215.295 185.507 215.842 186.214 215.842H191.644C192.352 215.842 192.926 215.295 192.926 214.621V209.45C192.926 208.776 192.352 208.229 191.644 208.229Z" fill="#3AAFA9"/>
<path opacity="0.4" d="M191.644 208.229H186.214C185.507 208.229 184.933 208.776 184.933 209.45V214.621C184.933 215.295 185.507 215.842 186.214 215.842H191.644C192.352 215.842 192.926 215.295 192.926 214.621V209.45C192.926 208.776 192.352 208.229 191.644 208.229Z" fill="white"/>
<path d="M191.644 232.945H186.214C185.507 232.945 184.933 233.492 184.933 234.166V239.337C184.933 240.011 185.507 240.558 186.214 240.558H191.644C192.352 240.558 192.926 240.011 192.926 239.337V234.166C192.926 233.492 192.352 232.945 191.644 232.945Z" fill="#3AAFA9"/>
<path opacity="0.4" d="M191.644 232.945H186.214C185.507 232.945 184.933 233.492 184.933 234.166V239.337C184.933 240.011 185.507 240.558 186.214 240.558H191.644C192.352 240.558 192.926 240.011 192.926 239.337V234.166C192.926 233.492 192.352 232.945 191.644 232.945Z" fill="white"/>
<path d="M188.813 344.859H186.21C185.755 344.858 185.319 344.685 184.997 344.378C184.676 344.071 184.495 343.655 184.495 343.221V338.051C184.495 337.617 184.676 337.201 184.997 336.894C185.319 336.587 185.755 336.414 186.21 336.413H188.813C188.929 336.413 189.041 336.457 189.123 336.535C189.205 336.613 189.251 336.719 189.251 336.83C189.251 336.94 189.205 337.046 189.123 337.124C189.041 337.202 188.929 337.246 188.813 337.246H186.21C185.987 337.247 185.774 337.333 185.616 337.483C185.459 337.634 185.37 337.838 185.37 338.051V343.221C185.37 343.434 185.459 343.638 185.616 343.788C185.774 343.939 185.987 344.024 186.21 344.025H188.813C188.929 344.025 189.041 344.069 189.123 344.148C189.205 344.226 189.251 344.331 189.251 344.442C189.251 344.553 189.205 344.658 189.123 344.737C189.041 344.815 188.929 344.859 188.813 344.859Z" fill="white"/>
<path d="M191.297 340.687C191.297 340.687 191.297 340.662 191.297 340.645C191.297 340.645 191.297 340.62 191.297 340.608C191.301 340.585 191.301 340.563 191.297 340.541C191.297 340.541 191.297 340.512 191.297 340.495L191.271 340.449C191.271 340.449 191.271 340.424 191.271 340.416L190.396 339.141C190.332 339.049 190.233 338.985 190.12 338.962C190.007 338.939 189.889 338.96 189.792 339.02C189.743 339.05 189.702 339.089 189.669 339.134C189.637 339.18 189.613 339.231 189.602 339.285C189.59 339.338 189.589 339.394 189.6 339.448C189.611 339.502 189.633 339.553 189.665 339.599L190.102 340.228H186.922C186.806 340.228 186.694 340.273 186.613 340.35C186.53 340.429 186.484 340.535 186.484 340.645C186.484 340.755 186.53 340.862 186.613 340.94C186.694 341.018 186.806 341.062 186.922 341.062H190.208L189.77 341.895C189.745 341.944 189.73 341.998 189.726 342.053C189.722 342.108 189.73 342.162 189.749 342.214C189.767 342.266 189.797 342.314 189.835 342.355C189.873 342.396 189.92 342.43 189.971 342.453C190.032 342.48 190.097 342.494 190.164 342.495C190.246 342.495 190.326 342.473 190.396 342.432C190.465 342.391 190.522 342.332 190.557 342.262L191.297 340.828C191.297 340.828 191.297 340.795 191.297 340.778C191.301 340.748 191.301 340.717 191.297 340.687Z" fill="white"/>
<path d="M482.471 158.708H418.897C417.773 158.708 416.862 159.576 416.862 160.646V182.541C416.862 183.612 417.773 184.479 418.897 184.479H482.471C483.595 184.479 484.505 183.612 484.505 182.541V160.646C484.505 159.576 483.595 158.708 482.471 158.708Z" fill="#3AAFA9"/>
<path opacity="0.85" d="M482.471 158.708H418.897C417.773 158.708 416.862 159.576 416.862 160.646V182.541C416.862 183.612 417.773 184.479 418.897 184.479H482.471C483.595 184.479 484.505 183.612 484.505 182.541V160.646C484.505 159.576 483.595 158.708 482.471 158.708Z" fill="white"/>
<path d="M465.049 179.921C469.709 179.921 473.484 176.324 473.484 171.888C473.484 167.451 469.709 163.854 465.049 163.854C460.39 163.854 456.614 167.451 456.614 171.888C456.614 176.324 460.39 179.921 465.049 179.921Z" fill="white"/>
<path d="M465.063 171.887C464.437 171.887 463.834 171.665 463.374 171.264C462.91 170.863 462.622 170.313 462.565 169.72L462.399 168.004C462.364 167.673 462.407 167.339 462.517 167.024C462.626 166.709 462.805 166.42 463.042 166.174C463.278 165.928 463.562 165.733 463.882 165.598C464.201 165.464 464.547 165.396 464.897 165.396H465.234C465.579 165.395 465.925 165.464 466.244 165.598C466.563 165.733 466.852 165.929 467.084 166.174C467.32 166.42 467.5 166.71 467.609 167.025C467.718 167.34 467.758 167.673 467.727 168.004L467.561 169.72C467.5 170.313 467.211 170.863 466.752 171.264C466.288 171.665 465.689 171.887 465.063 171.887Z" fill="#3AAFA9"/>
<path opacity="0.3" d="M465.063 171.887C464.437 171.887 463.834 171.665 463.374 171.264C462.91 170.863 462.622 170.313 462.565 169.72L462.399 168.004C462.364 167.673 462.407 167.339 462.517 167.024C462.626 166.709 462.805 166.42 463.042 166.174C463.278 165.928 463.562 165.733 463.882 165.598C464.201 165.464 464.547 165.396 464.897 165.396H465.234C465.579 165.395 465.925 165.464 466.244 165.598C466.563 165.733 466.852 165.929 467.084 166.174C467.32 166.42 467.5 166.71 467.609 167.025C467.718 167.34 467.758 167.673 467.727 168.004L467.561 169.72C467.5 170.313 467.211 170.863 466.752 171.264C466.288 171.665 465.689 171.887 465.063 171.887Z" fill="white"/>
<path d="M472.408 176.05C472.062 176.577 471.651 177.064 471.187 177.5C470.264 178.38 469.144 179.05 467.915 179.461C466.681 179.872 465.369 180.013 464.069 179.874C462.774 179.735 461.523 179.318 460.42 178.656C459.314 177.994 458.382 177.103 457.686 176.05C457.9 175.137 458.434 174.32 459.2 173.735C459.965 173.149 460.919 172.83 461.899 172.829H468.19C469.175 172.828 470.129 173.147 470.894 173.732C471.66 174.318 472.198 175.136 472.408 176.05Z" fill="#3AAFA9"/>
<path opacity="0.3" d="M472.408 176.05C472.062 176.577 471.651 177.064 471.187 177.5C470.264 178.38 469.144 179.05 467.915 179.461C466.681 179.872 465.369 180.013 464.069 179.874C462.774 179.735 461.523 179.318 460.42 178.656C459.314 177.994 458.382 177.103 457.686 176.05C457.9 175.137 458.434 174.32 459.2 173.735C459.965 173.149 460.919 172.83 461.899 172.829H468.19C469.175 172.828 470.129 173.147 470.894 173.732C471.66 174.318 472.198 175.136 472.408 176.05Z" fill="white"/>
<path d="M439.421 171.804H424.157C423.845 171.804 423.592 172.045 423.592 172.341V173.183C423.592 173.48 423.845 173.72 424.157 173.72H439.421C439.731 173.72 439.985 173.48 439.985 173.183V172.341C439.985 172.045 439.731 171.804 439.421 171.804Z" fill="#858990"/>
<path d="M443.126 166.518H425.277C424.347 166.518 423.592 167.235 423.592 168.122C423.592 169.008 424.347 169.726 425.277 169.726H443.126C444.058 169.726 444.811 169.008 444.811 168.122C444.811 167.235 444.058 166.518 443.126 166.518Z" fill="#61656D"/>
<path d="M441.792 142.825H408.345C405.54 142.825 403.266 144.991 403.266 147.663V147.667C403.266 150.339 405.54 152.504 408.345 152.504H441.792C444.596 152.504 446.871 150.339 446.871 147.667V147.663C446.871 144.991 444.596 142.825 441.792 142.825Z" fill="#D8DBDD"/>
<path d="M441.661 149.112L440.816 148.312C441.035 148.02 441.144 147.667 441.127 147.308C441.105 146.95 440.965 146.608 440.716 146.337C440.471 146.065 440.134 145.881 439.766 145.812C439.394 145.744 439.014 145.796 438.677 145.96C438.344 146.125 438.077 146.391 437.92 146.717C437.762 147.043 437.723 147.41 437.815 147.759C437.902 148.107 438.112 148.418 438.406 148.64C438.703 148.862 439.066 148.983 439.447 148.983C439.797 148.982 440.142 148.877 440.431 148.683L441.271 149.483C441.293 149.507 441.324 149.526 441.359 149.539C441.389 149.552 441.424 149.558 441.464 149.558C441.534 149.558 441.604 149.531 441.661 149.483C441.709 149.434 441.739 149.367 441.739 149.298C441.739 149.229 441.709 149.162 441.661 149.112ZM438.646 148.142C438.489 147.99 438.379 147.798 438.336 147.588C438.292 147.379 438.314 147.162 438.401 146.965C438.484 146.768 438.633 146.6 438.817 146.48C439.001 146.362 439.219 146.297 439.447 146.296C439.631 146.295 439.819 146.337 439.985 146.421C440.151 146.505 440.291 146.626 440.396 146.774C440.501 146.922 440.567 147.092 440.584 147.27C440.602 147.448 440.576 147.627 440.506 147.793C440.431 147.958 440.317 148.103 440.173 148.217C440.029 148.33 439.858 148.407 439.67 148.442C439.486 148.477 439.298 148.467 439.119 148.415C438.939 148.362 438.777 148.268 438.646 148.142Z" fill="#858990"/>
<path d="M464.616 142.825H456.78C456.137 142.825 455.617 143.321 455.617 143.934V151.396C455.617 152.008 456.137 152.504 456.78 152.504H464.616C465.259 152.504 465.78 152.008 465.78 151.396V143.934C465.78 143.321 465.259 142.825 464.616 142.825Z" fill="#D8DBDD"/>
<path d="M483.534 142.825H475.698C475.055 142.825 474.535 143.321 474.535 143.934V151.396C474.535 152.008 475.055 152.504 475.698 152.504H483.534C484.177 152.504 484.698 152.008 484.698 151.396V143.934C484.698 143.321 484.177 142.825 483.534 142.825Z" fill="#D8DBDD"/>
<path d="M244.998 145.241H214.925C213.519 145.241 212.379 146.327 212.379 147.666C212.379 149.005 213.519 150.091 214.925 150.091H244.998C246.405 150.091 247.545 149.005 247.545 147.666C247.545 146.327 246.405 145.241 244.998 145.241Z" fill="#868A91"/>
<path d="M293.334 196.833H214.444C213.321 196.833 212.41 197.701 212.41 198.771V237.537C212.41 238.608 213.321 239.475 214.444 239.475H293.334C294.458 239.475 295.368 238.608 295.368 237.537V198.771C295.368 197.701 294.458 196.833 293.334 196.833Z" fill="#3AAFA9"/>
<path d="M293.334 196.833H214.444C213.321 196.833 212.41 197.701 212.41 198.771V237.537C212.41 238.608 213.321 239.475 214.444 239.475H293.334C294.458 239.475 295.368 238.608 295.368 237.537V198.771C295.368 197.701 294.458 196.833 293.334 196.833Z" fill="#3AAFA9"/>
<path d="M282.961 209.637C285.655 209.637 287.839 207.557 287.839 204.992C287.839 202.426 285.655 200.346 282.961 200.346C280.267 200.346 278.083 202.426 278.083 204.992C278.083 207.557 280.267 209.637 282.961 209.637Z" fill="white"/>
<path d="M276.665 209.637C279.359 209.637 281.543 207.557 281.543 204.992C281.543 202.426 279.359 200.346 276.665 200.346C273.971 200.346 271.787 202.426 271.787 204.992C271.787 207.557 273.971 209.637 276.665 209.637Z" fill="#3AAFA9"/>
<path opacity="0.3" d="M276.665 209.637C279.359 209.637 281.543 207.557 281.543 204.992C281.543 202.426 279.359 200.346 276.665 200.346C273.971 200.346 271.787 202.426 271.787 204.992C271.787 207.557 273.971 209.637 276.665 209.637Z" fill="white"/>
<path d="M232.268 212.972H222.932C221.366 212.972 220.097 214.18 220.097 215.672V220.734C220.097 222.225 221.366 223.434 222.932 223.434H232.268C233.834 223.434 235.103 222.225 235.103 220.734V215.672C235.103 214.18 233.834 212.972 232.268 212.972Z" fill="white"/>
<path d="M241.455 203.85H221.295C220.633 203.85 220.097 204.361 220.097 204.991C220.097 205.622 220.633 206.133 221.295 206.133H241.455C242.117 206.133 242.654 205.622 242.654 204.991C242.654 204.361 242.117 203.85 241.455 203.85Z" fill="#3AAFA9"/>
<path d="M230.098 228.62H222.678C221.253 228.62 220.097 229.72 220.097 231.076C220.097 232.433 221.253 233.533 222.678 233.533H230.098C231.524 233.533 232.679 232.433 232.679 231.076C232.679 229.72 231.524 228.62 230.098 228.62Z" fill="#3AAFA9"/>
<path d="M246.149 228.62H238.729C237.303 228.62 236.147 229.72 236.147 231.076C236.147 232.433 237.303 233.533 238.729 233.533H246.149C247.574 233.533 248.73 232.433 248.73 231.076C248.73 229.72 247.574 228.62 246.149 228.62Z" fill="#3AAFA9"/>
<path d="M262.203 228.62H254.783C253.357 228.62 252.202 229.72 252.202 231.076C252.202 232.433 253.357 233.533 254.783 233.533H262.203C263.628 233.533 264.784 232.433 264.784 231.076C264.784 229.72 263.628 228.62 262.203 228.62Z" fill="#3AAFA9"/>
<path d="M278.254 228.62H270.834C269.408 228.62 268.252 229.72 268.252 231.076C268.252 232.433 269.408 233.533 270.834 233.533H278.254C279.68 233.533 280.835 232.433 280.835 231.076C280.835 229.72 279.68 228.62 278.254 228.62Z" fill="#3AAFA9"/>
<path opacity="0.3" d="M230.098 228.62H222.678C221.253 228.62 220.097 229.72 220.097 231.076C220.097 232.433 221.253 233.533 222.678 233.533H230.098C231.524 233.533 232.679 232.433 232.679 231.076C232.679 229.72 231.524 228.62 230.098 228.62Z" fill="white"/>
<path opacity="0.3" d="M246.149 228.62H238.729C237.303 228.62 236.147 229.72 236.147 231.076C236.147 232.433 237.303 233.533 238.729 233.533H246.149C247.574 233.533 248.73 232.433 248.73 231.076C248.73 229.72 247.574 228.62 246.149 228.62Z" fill="white"/>
<path opacity="0.3" d="M262.203 228.62H254.783C253.357 228.62 252.202 229.72 252.202 231.076C252.202 232.433 253.357 233.533 254.783 233.533H262.203C263.628 233.533 264.784 232.433 264.784 231.076C264.784 229.72 263.628 228.62 262.203 228.62Z" fill="white"/>
<path opacity="0.3" d="M278.254 228.62H270.834C269.408 228.62 268.252 229.72 268.252 231.076C268.252 232.433 269.408 233.533 270.834 233.533H278.254C279.68 233.533 280.835 232.433 280.835 231.076C280.835 229.72 279.68 228.62 278.254 228.62Z" fill="white"/>
<path d="M293.334 249.558H214.444C213.321 249.558 212.41 250.425 212.41 251.495V290.262C212.41 291.332 213.321 292.199 214.444 292.199H293.334C294.458 292.199 295.368 291.332 295.368 290.262V251.495C295.368 250.425 294.458 249.558 293.334 249.558Z" fill="#D8DBDD"/>
<path d="M285.9 254.612H275.693C274.649 254.612 273.803 255.418 273.803 256.412V259.021C273.803 260.015 274.649 260.821 275.693 260.821H285.9C286.944 260.821 287.79 260.015 287.79 259.021V256.412C287.79 255.418 286.944 254.612 285.9 254.612Z" fill="#B1B5BA"/>
<path d="M232.268 265.696H222.932C221.366 265.696 220.097 266.905 220.097 268.396V273.459C220.097 274.95 221.366 276.159 222.932 276.159H232.268C233.834 276.159 235.103 274.95 235.103 273.459V268.396C235.103 266.905 233.834 265.696 232.268 265.696Z" fill="white"/>
<path d="M241.455 256.575H221.295C220.633 256.575 220.097 257.086 220.097 257.717C220.097 258.348 220.633 258.859 221.295 258.859H241.455C242.117 258.859 242.654 258.348 242.654 257.717C242.654 257.086 242.117 256.575 241.455 256.575Z" fill="#B1B5BA"/>
<path d="M230.098 281.35H222.678C221.253 281.35 220.097 282.45 220.097 283.806C220.097 285.163 221.253 286.262 222.678 286.262H230.098C231.524 286.262 232.679 285.163 232.679 283.806C232.679 282.45 231.524 281.35 230.098 281.35Z" fill="#B1B5BA"/>
<path d="M246.149 281.35H238.729C237.303 281.35 236.147 282.45 236.147 283.806C236.147 285.163 237.303 286.262 238.729 286.262H246.149C247.574 286.262 248.73 285.163 248.73 283.806C248.73 282.45 247.574 281.35 246.149 281.35Z" fill="#B1B5BA"/>
<path d="M262.203 281.35H254.783C253.357 281.35 252.202 282.45 252.202 283.806C252.202 285.163 253.357 286.262 254.783 286.262H262.203C263.628 286.262 264.784 285.163 264.784 283.806C264.784 282.45 263.628 281.35 262.203 281.35Z" fill="#B1B5BA"/>
<path d="M278.254 281.35H270.834C269.408 281.35 268.252 282.45 268.252 283.806C268.252 285.163 269.408 286.262 270.834 286.262H278.254C279.68 286.262 280.835 285.163 280.835 283.806C280.835 282.45 279.68 281.35 278.254 281.35Z" fill="#B1B5BA"/>
<path d="M293.334 301.8H214.444C213.321 301.8 212.41 302.667 212.41 303.737V342.504C212.41 343.574 213.321 344.441 214.444 344.441H293.334C294.458 344.441 295.368 343.574 295.368 342.504V303.737C295.368 302.667 294.458 301.8 293.334 301.8Z" fill="#B2B6BB"/>
<path d="M285.9 306.854H275.693C274.649 306.854 273.803 307.66 273.803 308.655V311.263C273.803 312.257 274.649 313.063 275.693 313.063H285.9C286.944 313.063 287.79 312.257 287.79 311.263V308.655C287.79 307.66 286.944 306.854 285.9 306.854Z" fill="#868A91"/>
<path d="M232.268 317.938H222.932C221.366 317.938 220.097 319.147 220.097 320.638V325.701C220.097 327.192 221.366 328.401 222.932 328.401H232.268C233.834 328.401 235.103 327.192 235.103 325.701V320.638C235.103 319.147 233.834 317.938 232.268 317.938Z" fill="white"/>
<path d="M241.455 308.816H221.295C220.633 308.816 220.097 309.328 220.097 309.958C220.097 310.588 220.633 311.1 221.295 311.1H241.455C242.117 311.1 242.654 310.588 242.654 309.958C242.654 309.328 242.117 308.816 241.455 308.816Z" fill="#868A91"/>
<path d="M230.098 333.592H222.678C221.253 333.592 220.097 334.691 220.097 336.048C220.097 337.405 221.253 338.504 222.678 338.504H230.098C231.524 338.504 232.679 337.405 232.679 336.048C232.679 334.691 231.524 333.592 230.098 333.592Z" fill="#868A91"/>
<path d="M246.149 333.592H238.729C237.303 333.592 236.147 334.691 236.147 336.048C236.147 337.405 237.303 338.504 238.729 338.504H246.149C247.574 338.504 248.73 337.405 248.73 336.048C248.73 334.691 247.574 333.592 246.149 333.592Z" fill="#868A91"/>
<path d="M262.203 333.592H254.783C253.357 333.592 252.202 334.691 252.202 336.048C252.202 337.405 253.357 338.504 254.783 338.504H262.203C263.628 338.504 264.784 337.405 264.784 336.048C264.784 334.691 263.628 333.592 262.203 333.592Z" fill="#868A91"/>
<path d="M278.254 333.592H270.834C269.408 333.592 268.252 334.691 268.252 336.048C268.252 337.405 269.408 338.504 270.834 338.504H278.254C279.68 338.504 280.835 337.405 280.835 336.048C280.835 334.691 279.68 333.592 278.254 333.592Z" fill="#868A91"/>
<path d="M482.834 196.954H418.897C417.773 196.954 416.862 197.822 416.862 198.892V256.262C416.862 257.333 417.773 258.2 418.897 258.2H482.834C483.958 258.2 484.868 257.333 484.868 256.262V198.892C484.868 197.822 483.958 196.954 482.834 196.954Z" fill="#3AAFA9"/>
<path opacity="0.85" d="M482.834 196.954H418.897C417.773 196.954 416.862 197.822 416.862 198.892V256.262C416.862 257.333 417.773 258.2 418.897 258.2H482.834C483.958 258.2 484.868 257.333 484.868 256.262V198.892C484.868 197.822 483.958 196.954 482.834 196.954Z" fill="white"/>
<g opacity="0.2">
<path opacity="0.2" d="M481.723 227.062H420.396V227.271H481.723V227.062Z" fill="#3AAFA9"/>
</g>
<g opacity="0.2">
<path opacity="0.2" d="M481.819 235.796H420.482V236.004H481.819V235.796Z" fill="#3AAFA9"/>
</g>
<g opacity="0.2">
<path opacity="0.2" d="M481.919 244.529H420.396V244.738H481.919V244.529Z" fill="#3AAFA9"/>
</g>
<path d="M480.086 202.6H467.18C466.69 202.6 466.296 202.977 466.296 203.441V204.791C466.296 205.256 466.69 205.633 467.18 205.633H480.086C480.576 205.633 480.97 205.256 480.97 204.791V203.441C480.97 202.977 480.576 202.6 480.086 202.6Z" fill="#858990"/>
<path d="M429.753 251.746H424.1C423.914 251.746 423.763 251.89 423.763 252.067V252.513C423.763 252.69 423.914 252.834 424.1 252.834H429.753C429.939 252.834 430.09 252.69 430.09 252.513V252.067C430.09 251.89 429.939 251.746 429.753 251.746Z" fill="#858990"/>
<path d="M437.57 251.746H432.389C432.072 251.746 431.816 251.99 431.816 252.29C431.816 252.59 432.072 252.834 432.389 252.834H437.57C437.885 252.834 438.143 252.59 438.143 252.29C438.143 251.99 437.885 251.746 437.57 251.746Z" fill="#3AAFA9"/>
<path d="M458.679 251.746H453.027C452.839 251.746 452.69 251.89 452.69 252.067V252.513C452.69 252.69 452.839 252.834 453.027 252.834H458.679C458.863 252.834 459.016 252.69 459.016 252.513V252.067C459.016 251.89 458.863 251.746 458.679 251.746Z" fill="#858990"/>
<path d="M466.497 251.746H461.313C460.998 251.746 460.74 251.99 460.74 252.29C460.74 252.59 460.998 252.834 461.313 252.834H466.497C466.812 252.834 467.066 252.59 467.066 252.29C467.066 251.99 466.812 251.746 466.497 251.746Z" fill="#3AAFA9"/>
<path opacity="0.37" d="M481.919 244.737H420.396L420.497 233.775C421.127 232.229 422.055 230.583 423.358 230.583C424.903 230.583 425.646 234.721 429.072 234.708C434.418 234.708 436.072 226.858 438.568 226.65C442.334 226.333 443.984 233.067 447.584 233.125C450.839 233.175 452.038 230.129 453.683 228.317C454.3 227.642 455.123 227.168 456.037 226.962C457.236 226.692 457.485 227.067 459.156 226.521C464.293 224.854 463.094 218.462 467.705 219.021C471.253 219.458 471.244 227.821 474.906 228.417C476.831 228.729 480.156 226.883 481.714 226.846L481.919 244.737Z" fill="#3AAFA9"/>
<path d="M429.065 235.091C426.877 235.091 425.766 233.546 424.856 232.304C424.318 231.562 423.854 230.925 423.36 230.925C422.432 230.925 421.549 231.958 420.735 234L420.297 233.837C421.207 231.566 422.218 230.462 423.36 230.462C424.104 230.462 424.637 231.196 425.254 232.041C426.099 233.196 427.144 234.633 429.065 234.633C432.127 234.633 433.995 231.804 435.483 229.541C436.524 227.958 437.421 226.587 438.545 226.496C440.624 226.316 442.045 228.125 443.454 229.866C444.745 231.479 445.961 233.004 447.589 233.029C449.951 233.083 451.167 231.362 452.353 229.733C452.738 229.204 453.101 228.704 453.499 228.258C454.147 227.542 455.013 227.038 455.98 226.816C456.378 226.726 456.789 226.684 457.2 226.691C457.844 226.705 458.478 226.598 459.077 226.375C461.457 225.596 462.442 223.712 463.312 222.054C464.27 220.221 465.18 218.487 467.735 218.808C469.647 219.046 470.579 221.366 471.48 223.612C472.355 225.775 473.23 228.012 474.945 228.291C476.009 228.466 477.605 227.912 479.014 227.421C479.872 227.067 480.777 226.826 481.705 226.704V227.162C480.83 227.289 479.977 227.521 479.167 227.854C477.702 228.362 476.044 228.937 474.849 228.746C472.876 228.421 471.931 226.058 471.012 223.775C470.137 221.558 469.262 219.466 467.661 219.262C465.443 218.983 464.686 220.429 463.724 222.258C462.814 224 461.781 225.971 459.213 226.812C458.565 227.05 457.874 227.166 457.179 227.154C456.807 227.145 456.435 227.181 456.072 227.262C455.205 227.461 454.427 227.914 453.845 228.558C453.447 229.019 453.075 229.499 452.729 229.996C451.53 231.662 450.148 233.533 447.558 233.491C445.699 233.462 444.351 231.775 443.047 230.158C441.674 228.437 440.374 226.825 438.567 226.966C437.692 227.041 436.852 228.321 435.877 229.8C434.328 232.158 432.377 235.096 429.056 235.104L429.065 235.091Z" fill="#3AAFA9"/>
<path d="M451.084 232.696C451.662 232.696 452.125 232.252 452.125 231.705C452.125 231.157 451.662 230.713 451.084 230.713C450.511 230.713 450.043 231.157 450.043 231.705C450.043 232.252 450.511 232.696 451.084 232.696Z" fill="white" stroke="#61656D" stroke-miterlimit="10"/>
<path d="M457.131 221.45H444.763C444.557 221.45 444.36 221.529 444.211 221.668C444.067 221.807 443.984 221.995 443.984 222.192V227.917C443.984 228.114 444.067 228.302 444.211 228.442C444.36 228.581 444.557 228.659 444.763 228.659H450.315L450.752 229.35C450.774 229.389 450.805 229.422 450.844 229.444C450.883 229.467 450.927 229.479 450.971 229.479C451.015 229.479 451.063 229.467 451.098 229.444C451.137 229.422 451.168 229.389 451.19 229.35L451.627 228.659H457.179C457.385 228.658 457.581 228.579 457.726 228.44C457.87 228.301 457.953 228.113 457.953 227.917V222.192C457.953 222.091 457.931 221.991 457.892 221.898C457.848 221.806 457.787 221.722 457.708 221.652C457.634 221.583 457.542 221.529 457.441 221.494C457.341 221.46 457.236 221.445 457.131 221.45Z" fill="#61656D"/>
<path d="M454.987 222.838H446.906C446.766 222.838 446.657 222.944 446.657 223.075V224.309C446.657 224.44 446.766 224.546 446.906 224.546H454.987C455.122 224.546 455.236 224.44 455.236 224.309V223.075C455.236 222.944 455.122 222.838 454.987 222.838Z" fill="#3AAFA9"/>
<path d="M452.856 225.946H449.033C448.893 225.946 448.783 226.053 448.783 226.184V226.705C448.783 226.835 448.893 226.942 449.033 226.942H452.856C452.992 226.942 453.106 226.835 453.106 226.705V226.184C453.106 226.053 452.992 225.946 452.856 225.946Z" fill="#3AAFA9"/>
<path opacity="0.5" d="M454.987 222.838H446.906C446.766 222.838 446.657 222.944 446.657 223.075V224.309C446.657 224.44 446.766 224.546 446.906 224.546H454.987C455.122 224.546 455.236 224.44 455.236 224.309V223.075C455.236 222.944 455.122 222.838 454.987 222.838Z" fill="white"/>
<path opacity="0.5" d="M452.856 225.946H449.033C448.893 225.946 448.783 226.053 448.783 226.184V226.705C448.783 226.835 448.893 226.942 449.033 226.942H452.856C452.992 226.942 453.106 226.835 453.106 226.705V226.184C453.106 226.053 452.992 225.946 452.856 225.946Z" fill="white"/>
<g opacity="0.2">
<path opacity="0.2" d="M481.771 218.329H420.396V218.537H481.771V218.329Z" fill="#3AAFA9"/>
</g>
<path d="M483.254 267.787H418.941C417.818 267.787 416.907 268.655 416.907 269.725V342.125C416.907 343.195 417.818 344.062 418.941 344.062H483.254C484.378 344.062 485.288 343.195 485.288 342.125V269.725C485.288 268.655 484.378 267.787 483.254 267.787Z" fill="#3AAFA9"/>
<path opacity="0.85" d="M483.254 267.787H418.941C417.818 267.787 416.907 268.655 416.907 269.725V342.125C416.907 343.195 417.818 344.062 418.941 344.062H483.254C484.378 344.062 485.288 343.195 485.288 342.125V269.725C485.288 268.655 484.378 267.787 483.254 267.787Z" fill="white"/>
<path d="M449.802 272.804H422.459C421.971 272.804 421.576 273.181 421.576 273.645V276.554C421.576 277.019 421.971 277.395 422.459 277.395H449.802C450.292 277.395 450.686 277.019 450.686 276.554V273.645C450.686 273.181 450.292 272.804 449.802 272.804Z" fill="#858990"/>
<path d="M434.149 285.774H422.175C421.844 285.774 421.576 286.03 421.576 286.345V287.158C421.576 287.473 421.844 287.729 422.175 287.729H434.149C434.48 287.729 434.749 287.473 434.749 287.158V286.345C434.749 286.03 434.48 285.774 434.149 285.774Z" fill="#3AAFA9"/>
<path d="M475.418 289.771H422.468C421.975 289.771 421.576 290.15 421.576 290.618C421.576 291.087 421.975 291.466 422.468 291.466H475.418C475.912 291.466 476.31 291.087 476.31 290.618C476.31 290.15 475.912 289.771 475.418 289.771Z" fill="#3AAFA9"/>
<path opacity="0.5" d="M475.418 289.771H422.468C421.975 289.771 421.576 290.15 421.576 290.618C421.576 291.087 421.975 291.466 422.468 291.466H475.418C475.912 291.466 476.31 291.087 476.31 290.618C476.31 290.15 475.912 289.771 475.418 289.771Z" fill="white"/>
<path d="M439.652 289.771H422.468C421.975 289.771 421.576 290.15 421.576 290.618C421.576 291.087 421.975 291.466 422.468 291.466H439.652C440.147 291.466 440.545 291.087 440.545 290.618C440.545 290.15 440.147 289.771 439.652 289.771Z" fill="#61656D"/>
<path d="M434.149 303.241H422.175C421.844 303.241 421.576 303.497 421.576 303.812V304.625C421.576 304.94 421.844 305.195 422.175 305.195H434.149C434.48 305.195 434.749 304.94 434.749 304.625V303.812C434.749 303.497 434.48 303.241 434.149 303.241Z" fill="#3AAFA9"/>
<path d="M475.418 307.233H422.468C421.975 307.233 421.576 307.613 421.576 308.081C421.576 308.55 421.975 308.929 422.468 308.929H475.418C475.912 308.929 476.31 308.55 476.31 308.081C476.31 307.613 475.912 307.233 475.418 307.233Z" fill="#3AAFA9"/>
<path opacity="0.5" d="M475.418 307.233H422.468C421.975 307.233 421.576 307.613 421.576 308.081C421.576 308.55 421.975 308.929 422.468 308.929H475.418C475.912 308.929 476.31 308.55 476.31 308.081C476.31 307.613 475.912 307.233 475.418 307.233Z" fill="white"/>
<path d="M457.581 307.233H422.468C421.975 307.233 421.576 307.613 421.576 308.081C421.576 308.55 421.975 308.929 422.468 308.929H457.581C458.075 308.929 458.474 308.55 458.474 308.081C458.474 307.613 458.075 307.233 457.581 307.233Z" fill="#61656D"/>
<path d="M434.149 320.704H422.175C421.844 320.704 421.576 320.96 421.576 321.275V322.087C421.576 322.403 421.844 322.658 422.175 322.658H434.149C434.48 322.658 434.749 322.403 434.749 322.087V321.275C434.749 320.96 434.48 320.704 434.149 320.704Z" fill="#3AAFA9"/>
<path d="M475.418 324.696H422.468C421.975 324.696 421.576 325.076 421.576 325.544C421.576 326.012 421.975 326.392 422.468 326.392H475.418C475.912 326.392 476.31 326.012 476.31 325.544C476.31 325.076 475.912 324.696 475.418 324.696Z" fill="#3AAFA9"/>
<path opacity="0.5" d="M475.418 324.696H422.468C421.975 324.696 421.576 325.076 421.576 325.544C421.576 326.012 421.975 326.392 422.468 326.392H475.418C475.912 326.392 476.31 326.012 476.31 325.544C476.31 325.076 475.912 324.696 475.418 324.696Z" fill="white"/>
<path d="M447.466 324.696H422.468C421.975 324.696 421.576 325.076 421.576 325.544C421.576 326.012 421.975 326.392 422.468 326.392H447.466C447.96 326.392 448.358 326.012 448.358 325.544C448.358 325.076 447.96 324.696 447.466 324.696Z" fill="#61656D"/>
<path d="M404.464 158.754H215.963C214.059 158.754 212.516 160.224 212.516 162.037V181.196C212.516 183.009 214.059 184.479 215.963 184.479H404.464C406.368 184.479 407.912 183.009 407.912 181.196V162.037C407.912 160.224 406.368 158.754 404.464 158.754Z" fill="#3AAFA9"/>
<path opacity="0.85" d="M404.464 158.754H215.963C214.059 158.754 212.516 160.224 212.516 162.037V181.196C212.516 183.009 214.059 184.479 215.963 184.479H404.464C406.368 184.479 407.912 183.009 407.912 181.196V162.037C407.912 160.224 406.368 158.754 404.464 158.754Z" fill="white"/>
<path d="M224.797 173.417C227.568 173.417 229.815 171.277 229.815 168.638C229.815 165.998 227.568 163.858 224.797 163.858C222.025 163.858 219.779 165.998 219.779 168.638C219.779 171.277 222.025 173.417 224.797 173.417Z" fill="#858990"/>
<path d="M228.086 177.116H221.502C220.896 177.116 220.404 177.585 220.404 178.162C220.404 178.74 220.896 179.208 221.502 179.208H228.086C228.693 179.208 229.184 178.74 229.184 178.162C229.184 177.585 228.693 177.116 228.086 177.116Z" fill="#3AAFA9"/>
<path d="M253.204 173.417C255.975 173.417 258.222 171.277 258.222 168.638C258.222 165.998 255.975 163.858 253.204 163.858C250.433 163.858 248.186 165.998 248.186 168.638C248.186 171.277 250.433 173.417 253.204 173.417Z" fill="#858990"/>
<path d="M256.497 177.116H249.913C249.306 177.116 248.814 177.585 248.814 178.162C248.814 178.74 249.306 179.208 249.913 179.208H256.497C257.103 179.208 257.595 178.74 257.595 178.162C257.595 177.585 257.103 177.116 256.497 177.116Z" fill="#3AAFA9"/>
<path d="M281.614 173.417C284.385 173.417 286.632 171.277 286.632 168.638C286.632 165.998 284.385 163.858 281.614 163.858C278.842 163.858 276.596 165.998 276.596 168.638C276.596 171.277 278.842 173.417 281.614 173.417Z" fill="#858990"/>
<path d="M284.904 177.116H278.319C277.713 177.116 277.221 177.585 277.221 178.162C277.221 178.74 277.713 179.208 278.319 179.208H284.904C285.51 179.208 286.002 178.74 286.002 178.162C286.002 177.585 285.51 177.116 284.904 177.116Z" fill="#3AAFA9"/>
<path d="M310.021 173.417C312.792 173.417 315.039 171.277 315.039 168.638C315.039 165.998 312.792 163.858 310.021 163.858C307.249 163.858 305.002 165.998 305.002 168.638C305.002 171.277 307.249 173.417 310.021 173.417Z" fill="#858990"/>
<path d="M313.317 177.116H306.733C306.126 177.116 305.635 177.585 305.635 178.162C305.635 178.74 306.126 179.208 306.733 179.208H313.317C313.924 179.208 314.415 178.74 314.415 178.162C314.415 177.585 313.924 177.116 313.317 177.116Z" fill="#3AAFA9"/>
<path d="M338.427 173.417C341.199 173.417 343.445 171.277 343.445 168.638C343.445 165.998 341.199 163.858 338.427 163.858C335.656 163.858 333.409 165.998 333.409 168.638C333.409 171.277 335.656 173.417 338.427 173.417Z" fill="#858990"/>
<path d="M341.724 177.116H335.14C334.533 177.116 334.042 177.585 334.042 178.162C334.042 178.74 334.533 179.208 335.14 179.208H341.724C342.331 179.208 342.822 178.74 342.822 178.162C342.822 177.585 342.331 177.116 341.724 177.116Z" fill="#3AAFA9"/>
<path d="M366.841 173.417C369.612 173.417 371.859 171.277 371.859 168.638C371.859 165.998 369.612 163.858 366.841 163.858C364.07 163.858 361.823 165.998 361.823 168.638C361.823 171.277 364.07 173.417 366.841 173.417Z" fill="#858990"/>
<path d="M370.134 177.116H363.55C362.943 177.116 362.452 177.585 362.452 178.162C362.452 178.74 362.943 179.208 363.55 179.208H370.134C370.741 179.208 371.232 178.74 371.232 178.162C371.232 177.585 370.741 177.116 370.134 177.116Z" fill="#3AAFA9"/>
<path d="M395.248 173.417C398.019 173.417 400.266 171.277 400.266 168.638C400.266 165.998 398.019 163.858 395.248 163.858C392.476 163.858 390.229 165.998 390.229 168.638C390.229 171.277 392.476 173.417 395.248 173.417Z" fill="#858990"/>
<path d="M398.541 177.116H391.957C391.35 177.116 390.858 177.585 390.858 178.162C390.858 178.74 391.35 179.208 391.957 179.208H398.541C399.147 179.208 399.639 178.74 399.639 178.162C399.639 177.585 399.147 177.116 398.541 177.116Z" fill="#3AAFA9"/>
<path d="M405.731 196.8L304.682 196.968C303.558 196.97 302.649 197.839 302.651 198.909L302.914 342.254C302.916 343.324 303.828 344.19 304.952 344.189L406.001 344.021C407.125 344.019 408.034 343.15 408.032 342.08L407.769 198.734C407.767 197.664 406.855 196.798 405.731 196.8Z" fill="#3AAFA9"/>
<path opacity="0.85" d="M405.731 196.8L304.682 196.968C303.558 196.97 302.649 197.839 302.651 198.909L302.914 342.254C302.916 343.324 303.828 344.19 304.952 344.189L406.001 344.021C407.125 344.019 408.034 343.15 408.032 342.08L407.769 198.734C407.767 197.664 406.855 196.798 405.731 196.8Z" fill="white"/>
<path d="M411.584 212.768H299.02C298.143 212.768 297.432 213.445 297.432 214.28V230.055C297.432 230.89 298.143 231.568 299.02 231.568H411.584C412.461 231.568 413.172 230.89 413.172 230.055V214.28C413.172 213.445 412.461 212.768 411.584 212.768Z" fill="#3AAFA9"/>
<path opacity="0.5" d="M411.584 212.768H299.02C298.143 212.768 297.432 213.445 297.432 214.28V230.055C297.432 230.89 298.143 231.568 299.02 231.568H411.584C412.461 231.568 413.172 230.89 413.172 230.055V214.28C413.172 213.445 412.461 212.768 411.584 212.768Z" fill="white" stroke="white" stroke-width="2" stroke-miterlimit="10"/>
<path d="M395.273 218.976H380.932C380.192 218.976 379.593 219.546 379.593 220.251V220.509C379.593 221.213 380.192 221.784 380.932 221.784H395.273C396.012 221.784 396.612 221.213 396.612 220.509V220.251C396.612 219.546 396.012 218.976 395.273 218.976Z" fill="#858990"/>
<path d="M391.516 236.518H378.724C377.984 236.518 377.385 237.088 377.385 237.793V237.797C377.385 238.501 377.984 239.072 378.724 239.072H391.516C392.255 239.072 392.855 238.501 392.855 237.797V237.793C392.855 237.088 392.255 236.518 391.516 236.518Z" fill="#858990"/>
<path d="M391.516 253.971H378.724C377.984 253.971 377.385 254.542 377.385 255.246V255.25C377.385 255.954 377.984 256.525 378.724 256.525H391.516C392.255 256.525 392.855 255.954 392.855 255.25V255.246C392.855 254.542 392.255 253.971 391.516 253.971Z" fill="#858990"/>
<path d="M391.516 271.43H378.724C377.984 271.43 377.385 272.001 377.385 272.705V272.709C377.385 273.413 377.984 273.984 378.724 273.984H391.516C392.255 273.984 392.855 273.413 392.855 272.709V272.705C392.855 272.001 392.255 271.43 391.516 271.43Z" fill="#858990"/>
<path d="M391.516 288.467H378.724C377.984 288.467 377.385 289.038 377.385 289.742V289.746C377.385 290.45 377.984 291.021 378.724 291.021H391.516C392.255 291.021 392.855 290.45 392.855 289.746V289.742C392.855 289.038 392.255 288.467 391.516 288.467Z" fill="#858990"/>
<path d="M391.516 305.926H378.724C377.984 305.926 377.385 306.497 377.385 307.201V307.205C377.385 307.909 377.984 308.48 378.724 308.48H391.516C392.255 308.48 392.855 307.909 392.855 307.205V307.201C392.855 306.497 392.255 305.926 391.516 305.926Z" fill="#858990"/>
<path d="M391.516 323.384H378.724C377.984 323.384 377.385 323.955 377.385 324.659V324.663C377.385 325.367 377.984 325.938 378.724 325.938H391.516C392.255 325.938 392.855 325.367 392.855 324.663V324.659C392.855 323.955 392.255 323.384 391.516 323.384Z" fill="#858990"/>
<path d="M352.317 218.975H325.375C324.888 218.975 324.492 219.351 324.492 219.816V220.495C324.492 220.96 324.888 221.337 325.375 221.337H352.317C352.805 221.337 353.2 220.96 353.2 220.495V219.816C353.2 219.351 352.805 218.975 352.317 218.975Z" fill="#3AAFA9"/>
<path opacity="0.2" d="M352.317 218.975H325.375C324.888 218.975 324.492 219.351 324.492 219.816V220.495C324.492 220.96 324.888 221.337 325.375 221.337H352.317C352.805 221.337 353.2 220.96 353.2 220.495V219.816C353.2 219.351 352.805 218.975 352.317 218.975Z" fill="white"/>
<path d="M352.785 236.721H328.452C327.963 236.721 327.568 237.097 327.568 237.562V238.025C327.568 238.49 327.963 238.867 328.452 238.867H352.785C353.273 238.867 353.669 238.49 353.669 238.025V237.562C353.669 237.097 353.273 236.721 352.785 236.721Z" fill="#3AAFA9"/>
<path opacity="0.3" d="M352.785 236.721H328.452C327.963 236.721 327.568 237.097 327.568 237.562V238.025C327.568 238.49 327.963 238.867 328.452 238.867H352.785C353.273 238.867 353.669 238.49 353.669 238.025V237.562C353.669 237.097 353.273 236.721 352.785 236.721Z" fill="white"/>
<path d="M341.362 242.066H328.452C327.963 242.066 327.568 242.443 327.568 242.908V243.371C327.568 243.836 327.963 244.212 328.452 244.212H341.362C341.85 244.212 342.246 243.836 342.246 243.371V242.908C342.246 242.443 341.85 242.066 341.362 242.066Z" fill="#3AAFA9"/>
<path opacity="0.3" d="M341.362 242.066H328.452C327.963 242.066 327.568 242.443 327.568 242.908V243.371C327.568 243.836 327.963 244.212 328.452 244.212H341.362C341.85 244.212 342.246 243.836 342.246 243.371V242.908C342.246 242.443 341.85 242.066 341.362 242.066Z" fill="white"/>
<path d="M339.756 224.854H325.375C324.888 224.854 324.492 225.231 324.492 225.695V226.374C324.492 226.839 324.888 227.216 325.375 227.216H339.756C340.244 227.216 340.64 226.839 340.64 226.374V225.695C340.64 225.231 340.244 224.854 339.756 224.854Z" fill="#3AAFA9"/>
<path d="M357.32 254.175H328.725C328.237 254.175 327.841 254.551 327.841 255.016V255.479C327.841 255.944 328.237 256.32 328.725 256.32H357.32C357.808 256.32 358.204 255.944 358.204 255.479V255.016C358.204 254.551 357.808 254.175 357.32 254.175Z" fill="#3AAFA9"/>
<path opacity="0.3" d="M357.32 254.175H328.725C328.237 254.175 327.841 254.551 327.841 255.016V255.479C327.841 255.944 328.237 256.32 328.725 256.32H357.32C357.808 256.32 358.204 255.944 358.204 255.479V255.016C358.204 254.551 357.808 254.175 357.32 254.175Z" fill="white"/>
<path d="M341.636 259.521H328.725C328.237 259.521 327.841 259.898 327.841 260.363V260.826C327.841 261.29 328.237 261.667 328.725 261.667H341.636C342.124 261.667 342.519 261.29 342.519 260.826V260.363C342.519 259.898 342.124 259.521 341.636 259.521Z" fill="#3AAFA9"/>
<path opacity="0.3" d="M341.636 259.521H328.725C328.237 259.521 327.841 259.898 327.841 260.363V260.826C327.841 261.29 328.237 261.667 328.725 261.667H341.636C342.124 261.667 342.519 261.29 342.519 260.826V260.363C342.519 259.898 342.124 259.521 341.636 259.521Z" fill="white"/>
<path d="M342.537 271.529H328.725C328.237 271.529 327.841 271.906 327.841 272.371V272.833C327.841 273.298 328.237 273.675 328.725 273.675H342.537C343.025 273.675 343.421 273.298 343.421 272.833V272.371C343.421 271.906 343.025 271.529 342.537 271.529Z" fill="#3AAFA9"/>
<path opacity="0.3" d="M342.537 271.529H328.725C328.237 271.529 327.841 271.906 327.841 272.371V272.833C327.841 273.298 328.237 273.675 328.725 273.675H342.537C343.025 273.675 343.421 273.298 343.421 272.833V272.371C343.421 271.906 343.025 271.529 342.537 271.529Z" fill="white"/>
<path d="M350.622 288.888H328.725C328.237 288.888 327.841 289.264 327.841 289.729V290.192C327.841 290.657 328.237 291.034 328.725 291.034H350.622C351.11 291.034 351.506 290.657 351.506 290.192V289.729C351.506 289.264 351.11 288.888 350.622 288.888Z" fill="#3AAFA9"/>
<path opacity="0.3" d="M350.622 288.888H328.725C328.237 288.888 327.841 289.264 327.841 289.729V290.192C327.841 290.657 328.237 291.034 328.725 291.034H350.622C351.11 291.034 351.506 290.657 351.506 290.192V289.729C351.506 289.264 351.11 288.888 350.622 288.888Z" fill="white"/>
<path d="M342.537 306.241H328.725C328.237 306.241 327.841 306.618 327.841 307.083V307.545C327.841 308.01 328.237 308.387 328.725 308.387H342.537C343.025 308.387 343.421 308.01 343.421 307.545V307.083C343.421 306.618 343.025 306.241 342.537 306.241Z" fill="#3AAFA9"/>
<path opacity="0.3" d="M342.537 306.241H328.725C328.237 306.241 327.841 306.618 327.841 307.083V307.545C327.841 308.01 328.237 308.387 328.725 308.387H342.537C343.025 308.387 343.421 308.01 343.421 307.545V307.083C343.421 306.618 343.025 306.241 342.537 306.241Z" fill="white"/>
<path d="M350.622 323.596H328.725C328.237 323.596 327.841 323.972 327.841 324.437V324.9C327.841 325.365 328.237 325.742 328.725 325.742H350.622C351.11 325.742 351.506 325.365 351.506 324.9V324.437C351.506 323.972 351.11 323.596 350.622 323.596Z" fill="#3AAFA9"/>
<path opacity="0.3" d="M350.622 323.596H328.725C328.237 323.596 327.841 323.972 327.841 324.437V324.9C327.841 325.365 328.237 325.742 328.725 325.742H350.622C351.11 325.742 351.506 325.365 351.506 324.9V324.437C351.506 323.972 351.11 323.596 350.622 323.596Z" fill="white"/>
<path d="M339.756 224.854H325.375C324.888 224.854 324.492 225.231 324.492 225.695V226.374C324.492 226.839 324.888 227.216 325.375 227.216H339.756C340.244 227.216 340.64 226.839 340.64 226.374V225.695C340.64 225.231 340.244 224.854 339.756 224.854Z" fill="#3AAFA9"/>
<path opacity="0.3" d="M339.756 224.854H325.375C324.888 224.854 324.492 225.231 324.492 225.695V226.374C324.492 226.839 324.888 227.216 325.375 227.216H339.756C340.244 227.216 340.64 226.839 340.64 226.374V225.695C340.64 225.231 340.244 224.854 339.756 224.854Z" fill="white"/>
<path d="M341.636 276.875H328.725C328.237 276.875 327.841 277.252 327.841 277.717V278.179C327.841 278.644 328.237 279.021 328.725 279.021H341.636C342.124 279.021 342.519 278.644 342.519 278.179V277.717C342.519 277.252 342.124 276.875 341.636 276.875Z" fill="#3AAFA9"/>
<path opacity="0.3" d="M341.636 276.875H328.725C328.237 276.875 327.841 277.252 327.841 277.717V278.179C327.841 278.644 328.237 279.021 328.725 279.021H341.636C342.124 279.021 342.519 278.644 342.519 278.179V277.717C342.519 277.252 342.124 276.875 341.636 276.875Z" fill="white"/>
<path d="M341.636 294.233H328.725C328.237 294.233 327.841 294.611 327.841 295.075V295.538C327.841 296.003 328.237 296.379 328.725 296.379H341.636C342.124 296.379 342.519 296.003 342.519 295.538V295.075C342.519 294.611 342.124 294.233 341.636 294.233Z" fill="#3AAFA9"/>
<path opacity="0.3" d="M341.636 294.233H328.725C328.237 294.233 327.841 294.611 327.841 295.075V295.538C327.841 296.003 328.237 296.379 328.725 296.379H341.636C342.124 296.379 342.519 296.003 342.519 295.538V295.075C342.519 294.611 342.124 294.233 341.636 294.233Z" fill="white"/>
<path d="M341.636 311.588H328.725C328.237 311.588 327.841 311.965 327.841 312.43V312.892C327.841 313.357 328.237 313.734 328.725 313.734H341.636C342.124 313.734 342.519 313.357 342.519 312.892V312.43C342.519 311.965 342.124 311.588 341.636 311.588Z" fill="#3AAFA9"/>
<path opacity="0.3" d="M341.636 311.588H328.725C328.237 311.588 327.841 311.965 327.841 312.43V312.892C327.841 313.357 328.237 313.734 328.725 313.734H341.636C342.124 313.734 342.519 313.357 342.519 312.892V312.43C342.519 311.965 342.124 311.588 341.636 311.588Z" fill="white"/>
<path d="M341.636 328.941H328.725C328.237 328.941 327.841 329.318 327.841 329.783V330.246C327.841 330.711 328.237 331.087 328.725 331.087H341.636C342.124 331.087 342.519 330.711 342.519 330.246V329.783C342.519 329.318 342.124 328.941 341.636 328.941Z" fill="#3AAFA9"/>
<path opacity="0.3" d="M341.636 328.941H328.725C328.237 328.941 327.841 329.318 327.841 329.783V330.246C327.841 330.711 328.237 331.087 328.725 331.087H341.636C342.124 331.087 342.519 330.711 342.519 330.246V329.783C342.519 329.318 342.124 328.941 341.636 328.941Z" fill="white"/>
<path d="M313.62 227.966C316.408 227.966 318.668 225.813 318.668 223.158C318.668 220.503 316.408 218.35 313.62 218.35C310.831 218.35 308.571 220.503 308.571 223.158C308.571 225.813 310.831 227.966 313.62 227.966Z" fill="white"/>
<path d="M317.409 244.826C319.943 244.826 321.998 242.869 321.998 240.455C321.998 238.041 319.943 236.084 317.409 236.084C314.874 236.084 312.819 238.041 312.819 240.455C312.819 242.869 314.874 244.826 317.409 244.826Z" fill="white"/>
<path d="M317.409 262.217C319.943 262.217 321.998 260.26 321.998 257.846C321.998 255.432 319.943 253.476 317.409 253.476C314.874 253.476 312.819 255.432 312.819 257.846C312.819 260.26 314.874 262.217 317.409 262.217Z" fill="white"/>
<path d="M317.409 279.608C319.943 279.608 321.998 277.651 321.998 275.237C321.998 272.823 319.943 270.866 317.409 270.866C314.874 270.866 312.819 272.823 312.819 275.237C312.819 277.651 314.874 279.608 317.409 279.608Z" fill="white"/>
<path d="M317.409 296.997C319.943 296.997 321.998 295.039 321.998 292.626C321.998 290.212 319.943 288.255 317.409 288.255C314.874 288.255 312.819 290.212 312.819 292.626C312.819 295.039 314.874 296.997 317.409 296.997Z" fill="white"/>
<path d="M317.409 314.387C319.943 314.387 321.998 312.43 321.998 310.016C321.998 307.602 319.943 305.646 317.409 305.646C314.874 305.646 312.819 307.602 312.819 310.016C312.819 312.43 314.874 314.387 317.409 314.387Z" fill="white"/>
<path d="M317.409 331.775C319.943 331.775 321.998 329.818 321.998 327.404C321.998 324.99 319.943 323.033 317.409 323.033C314.874 323.033 312.819 324.99 312.819 327.404C312.819 329.818 314.874 331.775 317.409 331.775Z" fill="white"/>
<path d="M350.12 204.434H313.283C312.794 204.434 312.399 204.81 312.399 205.275V207.392C312.399 207.857 312.794 208.234 313.283 208.234H350.12C350.608 208.234 351.004 207.857 351.004 207.392V205.275C351.004 204.81 350.608 204.434 350.12 204.434Z" fill="#858990"/>
<path d="M170.07 312.73H121.945V363.98H170.07V312.73Z" fill="#CCCCCC"/>
<path d="M114.508 440.561H90.0081L87.3831 420.561H117.133L114.508 440.561Z" fill="#D8DBDD"/>
<path d="M146.643 426.577L145.816 437.341C145.778 437.829 145.851 438.318 146.028 438.776C146.205 439.235 146.484 439.652 146.844 439.999C147.205 440.347 147.639 440.617 148.118 440.792C148.597 440.967 149.11 441.042 149.622 441.012L155.428 440.677C155.697 440.662 155.959 440.59 156.195 440.467C156.432 440.344 156.637 440.173 156.796 439.966C156.956 439.759 157.065 439.521 157.117 439.269C157.169 439.017 157.162 438.758 157.097 438.509L153.874 426.232L146.643 426.577Z" fill="white"/>
<path d="M195.203 432.942C202.036 434.465 206.917 436.628 210.123 439.557C211.265 440.592 212.759 441.201 214.334 441.276C216.345 441.376 217.989 441.162 219.225 440.636H219.225C219.541 440.503 219.815 440.292 220.017 440.024C220.219 439.757 220.342 439.443 220.373 439.115C220.411 438.781 220.354 438.445 220.209 438.139C220.063 437.834 219.835 437.571 219.547 437.379L203.342 426.397L196.459 429.02L194.853 430.549C194.679 430.715 194.548 430.917 194.47 431.139C194.392 431.361 194.369 431.597 194.403 431.829C194.437 432.061 194.527 432.282 194.666 432.475C194.805 432.668 194.989 432.828 195.203 432.942H195.203Z" fill="white"/>
<path d="M174.176 257.186L127.856 256.777C127.972 250.352 129.542 244.043 132.973 238.397C135.227 234.689 135.178 230.653 134.635 227.253C133.797 222.007 135.746 216.638 140.076 213.299C143.386 210.742 147.562 209.426 151.82 209.598L152.719 209.634C155.649 209.75 158.501 210.565 161.014 212.004C163.527 213.443 165.619 215.461 167.1 217.871C168.605 220.444 169.212 223.407 168.833 226.33C168.54 229.08 169.242 231.859 170.885 234.664C173.72 240.823 174.334 248.705 174.176 257.186Z" fill="#2F2E41"/>
<path d="M205.166 426.971L196.075 429.23L151.807 337.381L154.574 426.971H145.483C135.769 384.822 118.231 336.177 126.116 320.819L173.151 318.184L205.166 426.971Z" fill="#3AAFA9"/>
<path d="M151.412 241.768C158.179 241.768 163.665 236.544 163.665 230.099C163.665 223.654 158.179 218.43 151.412 218.43C144.645 218.43 139.159 223.654 139.159 230.099C139.159 236.544 144.645 241.768 151.412 241.768Z" fill="#FFB9B9"/>
<path d="M162.084 251.555L141.926 250.426C143.902 246.108 144.691 241.949 143.903 238.004H158.922C158.888 241.033 160.471 246.274 162.084 251.555Z" fill="#FFB9B9"/>
<path d="M174.731 321.571L130.464 324.582L135.009 249.861L142.716 247.791L151.412 249.673L160.107 245.532L165.641 247.415L174.731 321.571Z" fill="#3AAFA9"/>
<path d="M137.974 375.4L107.737 368.812C116.728 340.417 132.926 275.457 127.697 252.308L143.507 245.532L137.974 375.4Z" fill="white"/>
<path d="M123.349 293.339L111.887 286.563L121.662 259.297C122.753 256.483 124.841 254.121 127.566 252.618L130.859 250.803L128.883 278.282L123.349 293.339Z" fill="white"/>
<path d="M201.016 369.189C191.473 374.448 167.618 377.379 157.143 373.707C156.373 348.051 154.861 275.482 159.713 244.78L177.104 251.556L175.523 271.883C167.208 289.272 191.351 349.837 201.016 369.189Z" fill="white"/>
<path d="M199.632 289.951L188.96 286.563L174.731 271.129L177.103 251.555L200.818 283.175L199.632 289.951Z" fill="white"/>
<path d="M166.187 304.603C166.362 305.333 166.833 305.967 167.498 306.366C168.163 306.765 168.967 306.897 169.733 306.733L178.792 304.779L177.483 299.272L168.424 301.226C167.657 301.391 166.991 301.84 166.571 302.473C166.152 303.107 166.014 303.873 166.187 304.603V304.603Z" fill="#FFB9B9"/>
<path d="M162.084 227.088C155.278 224.423 148.556 224.23 141.926 226.711L139.159 217.301H164.455L162.084 227.088Z" fill="#2F2E41"/>
<path d="M174.336 298.233L179.475 307.267C188.117 304.971 195.607 297.734 202.794 289.199L200.818 283.176L188.565 286.187L174.336 298.233Z" fill="white"/>
<path d="M170.582 279.599H169.001C169.001 258.303 164.397 243.462 159.91 243.462L159.515 241.956C163.538 241.956 166.104 248.133 167.547 253.314C169.504 260.339 170.582 269.674 170.582 279.599Z" fill="#3F3D56"/>
<path d="M134.219 274.33H132.638C132.638 254.826 137.274 242.71 144.1 242.71L143.705 244.216C138.983 244.216 134.219 253.527 134.219 274.33Z" fill="#3F3D56"/>
<path d="M169.791 283.74C171.974 283.74 173.743 282.054 173.743 279.975C173.743 277.896 171.974 276.211 169.791 276.211C167.608 276.211 165.838 277.896 165.838 279.975C165.838 282.054 167.608 283.74 169.791 283.74Z" fill="#3F3D56"/>
<path d="M127.895 283.363H126.314C126.314 277.967 129.505 273.576 133.428 273.576V275.082C130.377 275.082 127.895 278.797 127.895 283.363Z" fill="#3F3D56"/>
<path d="M140.543 283.363H138.962C138.962 278.797 136.479 275.082 133.428 275.082V273.576C137.351 273.576 140.543 277.967 140.543 283.363Z" fill="#3F3D56"/>
<path d="M139.752 285.246C140.626 285.246 141.333 284.572 141.333 283.74C141.333 282.909 140.626 282.234 139.752 282.234C138.879 282.234 138.171 282.909 138.171 283.74C138.171 284.572 138.879 285.246 139.752 285.246Z" fill="#3F3D56"/>
<path d="M127.104 285.246C127.978 285.246 128.685 284.572 128.685 283.74C128.685 282.909 127.978 282.234 127.104 282.234C126.231 282.234 125.523 282.909 125.523 283.74C125.523 284.572 126.231 285.246 127.104 285.246Z" fill="#3F3D56"/>
<path d="M107.342 269.895L117.206 271.572L139.752 302.104L127.774 299.42L107.342 269.895Z" fill="#3AAFA9"/>
<path d="M105.592 269.521C105.442 269.523 105.295 269.563 105.167 269.638C105.038 269.713 104.934 269.819 104.863 269.945C104.793 270.072 104.759 270.214 104.767 270.357C104.774 270.5 104.821 270.639 104.904 270.758L125.979 301.212C126.096 301.382 126.278 301.503 126.486 301.549L136.292 303.747C136.457 303.784 136.63 303.772 136.788 303.713C136.947 303.654 137.082 303.551 137.177 303.417C137.273 303.283 137.323 303.124 137.321 302.963C137.32 302.801 137.266 302.644 137.169 302.511L114.03 271.177C113.967 271.092 113.887 271.019 113.795 270.963C113.702 270.907 113.6 270.869 113.492 270.851L105.75 269.534C105.698 269.525 105.645 269.521 105.592 269.521V269.521Z" fill="#3F3D56"/>
<path d="M118.739 291.294L119.324 296.913L128.567 296.039C129.35 295.965 130.069 295.598 130.567 295.019C131.066 294.44 131.302 293.696 131.224 292.951C131.147 292.206 130.762 291.52 130.153 291.046C129.545 290.571 128.764 290.346 127.982 290.42L118.739 291.294Z" fill="#FFB9B9"/>
<path d="M110.702 290.643C110.715 292.559 111.523 294.392 112.949 295.743C114.376 297.095 116.305 297.854 118.317 297.856H119.837L120.943 289.075L111.782 285.934L110.702 290.643Z" fill="white"/>
<path d="M83.7165 413.162C90.0251 421.208 103.12 422.055 103.12 422.055C103.12 422.055 105.988 409.856 99.6791 401.81C93.3705 393.764 80.2751 392.917 80.2751 392.917C80.2751 392.917 77.4079 405.116 83.7165 413.162Z" fill="#D8DBDD"/>
<path d="M115.854 416.186C111.691 421.496 103.05 422.055 103.05 422.055C103.05 422.055 101.158 414.005 105.321 408.696C109.484 403.386 118.125 402.827 118.125 402.827C118.125 402.827 120.017 410.877 115.854 416.186Z" fill="#D8DBDD"/>
</svg>
