<svg width="755" height="582" viewBox="0 0 755 582" fill="none" xmlns="http://www.w3.org/2000/svg">
<g clip-path="url(#clip0)">
<path opacity="0.1" d="M251.006 581.673C287.774 581.673 317.581 576.463 317.581 570.036C317.581 563.61 287.774 558.4 251.006 558.4C214.238 558.4 184.432 563.61 184.432 570.036C184.432 576.463 214.238 581.673 251.006 581.673Z" fill="#3AAFA9"/>
<path opacity="0.1" d="M612.894 582C658.775 582 695.969 576.79 695.969 570.364C695.969 563.937 658.775 558.727 612.894 558.727C567.013 558.727 529.82 563.937 529.82 570.364C529.82 576.79 567.013 582 612.894 582Z" fill="#3AAFA9"/>
<path opacity="0.1" d="M9.45579 251.466H78.7971V354.32H14.5322C14.3614 355.376 14.1974 356.439 14.0198 357.502H78.7971V440.452C78.681 440.415 78.5785 440.37 78.4692 440.325C76.6381 439.537 74.8207 438.705 73.0033 437.812L71.8418 437.24C70.0199 436.303 68.1979 435.312 66.3759 434.266C65.7405 433.901 65.1051 433.522 64.4766 433.135C54.3619 426.969 45.1732 419.156 37.2292 409.967C36.9969 409.721 36.7783 409.461 36.546 409.223C35.4392 407.914 34.3528 406.591 33.3006 405.238L32.1391 403.751C30.8956 402.093 29.6932 400.39 28.5248 398.665C28.354 398.412 28.19 398.159 28.0124 397.921C23.2608 390.752 19.3155 382.988 16.2608 374.797C16.1651 374.552 16.0832 374.284 15.9943 374.054C15.056 371.426 14.2248 368.774 13.5005 366.098C13.1862 364.975 12.8856 363.867 12.626 362.7C12.5303 362.358 12.4484 362.023 12.3732 361.688C8.49243 345.204 8.03467 328.08 8.03467 311.076C8.03467 309.09 8.03467 307.098 8.03467 305.127C8.03467 298.249 8.10982 291.327 8.21914 284.412C8.21914 282.62 8.28746 280.836 8.32162 279.036C8.41728 274.471 8.55393 269.906 8.73157 265.34C8.77256 264.069 8.82722 262.805 8.88871 261.541C8.88871 260.812 8.92287 260.083 8.9912 259.355C9.15517 256.708 9.29182 254.083 9.45579 251.466Z" fill="#3AAFA9"/>
<path opacity="0.1" d="M78.7973 136.945H40.7617C46.9446 126.414 53.7001 116.294 60.9922 106.639C66.6426 99.0843 72.6072 91.7233 78.7973 84.6299V136.945Z" fill="#3AAFA9"/>
<path opacity="0.1" d="M78.7975 140.128V248.284H9.6748C9.6748 247.971 9.72263 247.652 9.74313 247.339C9.80462 246.484 9.86611 245.629 9.93443 244.781C10.0096 243.785 10.0916 242.781 10.1804 241.807C10.2692 240.833 10.3649 239.644 10.4674 238.565C10.5698 237.487 10.6655 236.394 10.7816 235.316C10.8978 234.238 11.0003 233.16 11.1233 232.089C11.2462 231.018 11.3556 229.933 11.4854 228.862C11.5879 227.97 11.6972 227.085 11.8065 226.193C11.9636 224.936 12.1276 223.672 12.3053 222.423C12.3053 222.237 12.3531 222.044 12.3804 221.865C13.6274 212.721 15.3266 203.657 17.4705 194.711C19.7146 185.328 22.5803 176.133 26.0451 167.2C29.7275 157.855 34.039 148.819 38.9445 140.165L78.7975 140.128Z" fill="#3AAFA9"/>
<path opacity="0.1" d="M95.3521 251.459V354.32H243.457V251.459H95.3521ZM95.3521 357.495V445.828C96.1993 446.021 97.0396 446.207 97.8732 446.363C99.0073 446.601 100.135 446.817 101.289 447.003C101.508 447.04 101.733 447.077 101.973 447.099C102.424 447.181 102.888 447.248 103.339 447.315C104.48 447.486 105.614 447.627 106.755 447.739C107.295 447.798 107.842 447.85 108.388 447.895L109.707 448.006C110.424 448.066 111.135 448.11 111.838 448.133C112.276 448.133 112.713 448.177 113.164 448.192C113.506 448.192 113.847 448.192 114.202 448.192C114.558 448.192 115.063 448.192 115.494 448.192C116.081 448.192 116.669 448.192 117.25 448.192H118.035C118.623 448.192 119.211 448.192 119.791 448.133H119.832C120.235 448.133 120.645 448.133 121.055 448.073C121.169 448.081 121.283 448.081 121.397 448.073C121.739 448.073 122.08 448.073 122.408 448.021H122.647L124.936 447.828C125.688 447.754 126.446 447.657 127.211 447.568L128.769 447.367C135.107 446.401 141.374 444.95 147.524 443.025C161.339 438.831 174.853 432.965 188.661 428.667C206.514 423.127 226.239 420.406 243.491 427.18V357.495H95.3521ZM243.457 136.946V0.00752109C227.242 -0.183661 211.071 1.88027 195.336 6.14918C157.834 16.4026 124.184 38.642 95.3521 67.0453V136.938H102.786V140.113H95.3521V248.284H243.457V140.121H133.306V136.946H243.457ZM433.689 90.6899C424.411 90.333 415.187 87.1358 406.845 82.1986C390.891 72.7557 378.149 58.1748 363.911 45.8692C334.327 20.2393 297.637 4.77362 259.998 0.936948V136.946H471.424L471.95 136.343L433.689 90.6899ZM452.949 86.9722L473.371 111.36V80.5777C466.532 81.4997 460.54 83.6932 452.977 86.9424L452.949 86.9722ZM473.371 467.762V357.495H429.856C429.74 357.027 429.624 356.551 429.487 356.075C429.617 356.551 429.726 357.027 429.849 357.495H260.025V437.24C261.637 438.541 263.229 439.909 264.808 441.3C266.509 442.787 268.19 444.356 269.877 445.895L271.578 447.426C272.391 448.17 273.211 448.914 274.038 449.612C275.678 451.06 277.333 452.487 279.005 453.895C279.832 454.639 280.679 455.308 281.519 456.007C294.861 467.108 308.935 477.125 323.627 485.979C326.92 487.962 330.243 489.898 333.595 491.786C335.83 493.028 338.077 494.262 340.332 495.459C343.721 497.259 347.137 498.994 350.581 500.664C382.328 516.173 415.898 526.815 450.333 532.287C457.98 533.516 465.658 534.483 473.364 535.187V467.755H474.048L473.371 467.762ZM260.025 140.121V248.284H473.399V140.121H260.025ZM260.025 251.459V354.32H473.399V251.459H260.025ZM489.96 80.4439V114.781L516.026 83.656C507.389 82.1392 498.701 81.0561 489.96 80.4067V80.4439ZM489.96 251.496V354.32H697.492V251.459L489.96 251.496ZM696.734 475.926L697.465 357.495H489.96V536.369C503.328 536.98 516.716 536.806 530.066 535.848V535.848H530.298C536.675 535.412 543.022 534.778 549.34 533.945H549.483C583.188 529.676 616.144 520.106 647.322 505.534L696.734 475.926ZM737.509 268.396C736.73 266.396 735.917 264.411 735.091 262.448C733.546 258.73 731.914 255.117 730.233 251.503H714.04V354.32H754.979C754.959 325.203 748.188 295.461 737.53 268.359L737.509 268.396ZM714.04 357.532V459.397C725.573 447.367 735.316 433.604 742.333 417.871C750.771 398.925 754.631 378.411 754.945 357.517L714.04 357.532ZM714.04 221.524V248.291H728.716C724.276 239.076 719.384 230.129 714.061 221.486L714.04 221.524ZM573.294 100.624C572.215 100.177 571.135 99.7239 570.049 99.2852C558.592 94.6807 546.884 90.8516 534.992 87.8198L495.105 135.459L494.34 136.343L494.852 136.953H636.814C617.043 122.142 595.728 109.935 573.315 100.586L573.294 100.624ZM640.975 140.158H492.871L489.96 143.058V248.284H515.472H515.513H697.52V197.314C681.055 175.644 662.052 156.416 640.996 140.121L640.975 140.158Z" fill="#3AAFA9"/>
<path opacity="0.1" d="M78.7975 194.682V248.284H9.6748C9.6748 247.971 9.72263 247.652 9.74313 247.339C9.80462 246.484 9.86611 245.629 9.93443 244.781C10.0096 243.785 10.0916 242.781 10.1804 241.807C10.2692 240.833 10.3649 239.644 10.4674 238.565C10.5698 237.487 10.6655 236.394 10.7816 235.316C10.8978 234.238 11.0003 233.16 11.1233 232.089C11.2462 231.019 11.3556 229.933 11.4854 228.862C11.5879 227.97 11.6972 227.085 11.8065 226.193C11.9636 224.936 12.1276 223.672 12.3053 222.423C12.3053 222.237 12.3531 222.044 12.3804 221.866C13.6274 212.721 15.3266 203.657 17.4705 194.711L78.7975 194.682Z" fill="#3AAFA9"/>
<path opacity="0.1" d="M9.45579 251.466H78.7971V354.32H14.5322C14.3614 355.376 14.1974 356.439 14.0198 357.502H78.7971V440.452C78.681 440.415 78.5785 440.37 78.4692 440.325C76.6381 439.537 74.8207 438.705 73.0033 437.812L71.8418 437.24C70.0199 436.303 68.1979 435.312 66.3759 434.266C65.7405 433.901 65.1051 433.522 64.4766 433.135C54.3619 426.969 45.1732 419.156 37.2292 409.967C36.9969 409.721 36.7783 409.461 36.546 409.223C35.4392 407.914 34.3528 406.591 33.3006 405.238L32.1391 403.751C30.8956 402.093 29.6932 400.39 28.5248 398.665C28.354 398.412 28.19 398.159 28.0124 397.921C23.2608 390.752 19.3155 382.988 16.2608 374.797C16.1651 374.552 16.0832 374.284 15.9943 374.054C15.056 371.426 14.2248 368.774 13.5005 366.098C13.1862 364.975 12.8856 363.867 12.626 362.7C12.5303 362.358 12.4484 362.023 12.3732 361.688C8.49243 345.204 8.03467 328.08 8.03467 311.076C8.03467 309.09 8.03467 307.098 8.03467 305.127C8.03467 298.249 8.10982 291.327 8.21914 284.412C8.21914 282.62 8.28746 280.836 8.32162 279.036C8.41728 274.471 8.55393 269.906 8.73157 265.34C8.77256 264.069 8.82722 262.805 8.88871 261.541C8.88871 260.812 8.92287 260.083 8.9912 259.355C9.15517 256.708 9.29182 254.083 9.45579 251.466Z" fill="#3AAFA9"/>
<path opacity="0.1" d="M147.49 155.608V248.283H95.3521V155.608H102.786V124.231H133.299V155.608H147.49Z" fill="#3AAFA9"/>
<path opacity="0.1" d="M147.49 251.458H95.3589V354.313H147.49V251.458Z" fill="#3AAFA9"/>
<path opacity="0.1" d="M95.3521 357.502H147.49V443.01C141.339 444.933 135.072 446.382 128.735 447.345L127.177 447.553C126.412 447.649 125.653 447.731 124.902 447.813C124.15 447.895 123.371 447.954 122.613 448.006H122.374C122.046 448.006 121.691 448.051 121.37 448.058H121.021C120.611 448.058 120.201 448.103 119.791 448.118C119.211 448.155 118.63 448.163 118.035 448.17C117.783 448.17 117.543 448.17 117.291 448.17C116.703 448.17 116.122 448.17 115.535 448.17H114.243C113.895 448.17 113.56 448.17 113.198 448.17L111.879 448.118C111.196 448.118 110.458 448.036 109.748 447.984L108.436 447.88L106.803 447.716C105.655 447.605 104.514 447.464 103.387 447.293L102.02 447.084L101.337 446.98C100.196 446.787 99.0688 446.579 97.921 446.341C97.0806 446.185 96.2471 445.991 95.3999 445.805L95.3521 357.502Z" fill="#3AAFA9"/>
<path opacity="0.1" d="M473.399 144.664H430.41V248.276H473.399V144.664Z" fill="#3AAFA9"/>
<path opacity="0.1" d="M473.406 251.458V354.32H260.025V309.953H373.681V336.126H430.41V251.458H473.406Z" fill="#3AAFA9"/>
<path opacity="0.1" d="M474.082 467.785H473.399V535.261C465.701 534.552 458.026 533.588 450.374 532.369C415.922 526.88 382.338 516.215 350.581 500.679C341.412 496.188 332.429 491.285 323.634 485.972C308.942 477.114 294.866 467.096 281.519 455.999C278.167 453.204 274.858 450.344 271.592 447.419C269.331 445.389 267.083 443.307 264.808 441.285C263.229 439.894 261.637 438.526 260.025 437.218V357.502H429.842C429.726 357.027 429.61 356.551 429.487 356.082C429.617 356.551 429.74 357.027 429.856 357.502H473.399V467.74C473.631 467.747 473.856 467.77 474.082 467.785Z" fill="#3AAFA9"/>
<path opacity="0.1" d="M585.517 136.946H557.504V127.473H570.062V99.2554C571.151 99.6866 572.235 100.13 573.314 100.586V127.473H585.517V136.946Z" fill="#3AAFA9"/>
<path opacity="0.1" d="M653.007 248.284H515.486C515.486 248.284 515.486 248.284 515.533 248.321L515.472 248.284H489.96V144.671H497.189V221.256H530.223V175.9H557.511V140.128H585.524V175.929H612.812V221.286H653.007V248.284Z" fill="#3AAFA9"/>
<path opacity="0.1" d="M489.96 251.458V354.32H653.007V251.458H489.96ZM697.267 475.398L697.492 393.981H653.007V357.547H489.96V536.369C503.327 536.98 516.715 536.806 530.066 535.848V535.848H530.298C536.675 535.412 543.022 534.778 549.34 533.945H549.483C583.188 529.676 616.144 520.106 647.322 505.534" fill="#3AAFA9"/>
<path opacity="0.1" d="M716.937 357.502H754.973C754.638 378.389 750.784 398.903 742.353 417.848C735.336 433.589 725.587 447.352 714.067 459.375V393.943H716.937V357.502Z" fill="#3AAFA9"/>
<path opacity="0.1" d="M754.993 354.32H716.937V268.359H737.53C748.188 295.461 754.959 325.203 754.993 354.32Z" fill="#3AAFA9"/>
<path opacity="0.1" d="M473.405 173.468H450.374V205.954H473.405V173.468Z" fill="#3AAFA9"/>
<path opacity="0.1" d="M473.405 240.803H450.374V248.284H473.405V240.803Z" fill="#3AAFA9"/>
<path opacity="0.1" d="M473.405 251.458H450.374V273.281H473.405V251.458Z" fill="#3AAFA9"/>
<path opacity="0.1" d="M473.405 308.139H450.374V340.624H473.405V308.139Z" fill="#3AAFA9"/>
<path opacity="0.1" d="M473.405 375.474H450.374V407.959H473.405V375.474Z" fill="#3AAFA9"/>
<path opacity="0.1" d="M473.398 467.74C473.631 467.74 473.856 467.74 474.082 467.785H473.398V475.332H450.374V442.809H473.398V467.74Z" fill="#3AAFA9"/>
<path opacity="0.1" d="M473.398 510.129V535.224C465.701 534.515 458.026 533.551 450.374 532.331V510.129H473.398Z" fill="#3AAFA9"/>
<path opacity="0.1" d="M358.732 351.933H260.025V354.32H358.732V351.933Z" fill="#3AAFA9"/>
<path opacity="0.1" d="M358.732 357.495H260.025V366.64H358.732V357.495Z" fill="#3AAFA9"/>
<path opacity="0.1" d="M358.732 396.62H260.025V411.327H358.732V396.62Z" fill="#3AAFA9"/>
<path opacity="0.1" d="M358.725 441.307V456.014H281.519C278.167 453.229 274.856 450.368 271.585 447.434C269.324 445.404 267.083 443.322 264.801 441.307H358.725Z" fill="#3AAFA9"/>
<path opacity="0.1" d="M358.725 485.986V500.679H350.574C341.414 496.183 332.434 491.278 323.634 485.964L358.725 485.986Z" fill="#3AAFA9"/>
<path opacity="0.1" d="M549.504 261.429H530.073V282.576H549.504V261.429Z" fill="#3AAFA9"/>
<path opacity="0.1" d="M128.783 162.903H109.352V184.049H128.783V162.903Z" fill="#3AAFA9"/>
<path opacity="0.1" d="M128.783 212.021H109.352V233.167H128.783V212.021Z" fill="#3AAFA9"/>
<path opacity="0.1" d="M128.783 261.139H109.352V282.286H128.783V261.139Z" fill="#3AAFA9"/>
<path opacity="0.1" d="M128.783 310.25H109.352V331.397H128.783V310.25Z" fill="#3AAFA9"/>
<path opacity="0.1" d="M128.783 359.369H109.352V380.515H128.783V359.369Z" fill="#3AAFA9"/>
<path opacity="0.1" d="M128.783 408.487H109.352V429.633H128.783V408.487Z" fill="#3AAFA9"/>
<path opacity="0.1" d="M623.683 261.429H604.251V282.576H623.683V261.429Z" fill="#3AAFA9"/>
<path opacity="0.1" d="M549.504 313.589H530.073V334.735H549.504V313.589Z" fill="#3AAFA9"/>
<path opacity="0.1" d="M623.683 313.589H604.251V334.735H623.683V313.589Z" fill="#3AAFA9"/>
<path opacity="0.1" d="M549.504 365.741H530.073V386.887H549.504V365.741Z" fill="#3AAFA9"/>
<path opacity="0.1" d="M623.683 365.741H604.251V386.887H623.683V365.741Z" fill="#3AAFA9"/>
<path opacity="0.1" d="M549.504 417.9H530.073V439.047H549.504V417.9Z" fill="#3AAFA9"/>
<path opacity="0.1" d="M623.683 417.9H604.251V439.047H623.683V417.9Z" fill="#3AAFA9"/>
<path opacity="0.1" d="M549.504 470.06H530.073V491.206H549.504V470.06Z" fill="#3AAFA9"/>
<path opacity="0.1" d="M623.683 470.06H604.251V491.206H623.683V470.06Z" fill="#3AAFA9"/>
<path opacity="0.1" d="M530.073 535.848V522.212H549.497V533.908L530.073 535.848Z" fill="#3AAFA9"/>
<path opacity="0.1" d="M12.2983 221.851V233.948H78.7974V221.851H12.2983ZM18.9257 233.19H13.5008V222.594H18.9667L18.9257 233.19ZM25.5462 233.19H20.0804V222.594H25.5462V233.19ZM32.1531 233.19H26.6872V222.594H32.1531V233.19ZM38.7736 233.19H33.3146V222.594H38.7805L38.7736 233.19ZM45.3873 233.19H39.9215V222.594H45.3873V233.19ZM52.0078 233.19H46.542V222.594H52.0078V233.19ZM58.6284 233.19H53.1625V222.594H58.6284V233.19ZM65.2421 233.19H59.7762V222.594H65.2421V233.19ZM71.8558 233.19H66.3899V222.594H71.8558V233.19ZM78.4695 233.19H73.0036V222.594H78.4695V233.19Z" fill="#3AAFA9"/>
<path opacity="0.1" d="M12.2983 257.05V269.147H78.7974V257.05H12.2983ZM18.9257 268.381H13.5008V257.816H18.9667L18.9257 268.381ZM25.5462 268.381H20.0804V257.816H25.5462V268.381ZM32.1531 268.381H26.6872V257.816H32.1531V268.381ZM38.7736 268.381H33.3146V257.816H38.7805L38.7736 268.381ZM45.3873 268.381H39.9215V257.816H45.3873V268.381ZM52.0078 268.381H46.542V257.816H52.0078V268.381ZM58.6284 268.381H53.1625V257.816H58.6284V268.381ZM65.2421 268.381H59.7762V257.816H65.2421V268.381ZM71.8558 268.381H66.3899V257.816H71.8558V268.381ZM78.4695 268.381H73.0036V257.816H78.4695V268.381Z" fill="#3AAFA9"/>
<path opacity="0.1" d="M12.2983 292.264V304.384H78.7974V292.264H12.2983ZM18.9257 303.596H13.5008V293.023H18.9667L18.9257 303.596ZM25.5462 303.596H20.0804V293.023H25.5462V303.596ZM32.1531 303.596H26.6872V293.023H32.1531V303.596ZM38.7736 303.596H33.3146V293.023H38.7805L38.7736 303.596ZM45.3873 303.596H39.9215V293.023H45.3873V303.596ZM52.0078 303.596H46.542V293.023H52.0078V303.596ZM58.6284 303.596H53.1625V293.023H58.6284V303.596ZM65.2421 303.596H59.7762V293.023H65.2421V303.596ZM71.8558 303.596H66.3899V293.023H71.8558V303.596ZM78.4695 303.596H73.0036V293.023H78.4695V303.596Z" fill="#3AAFA9"/>
<path opacity="0.1" d="M12.2983 327.478V339.561H78.7974V327.478H12.2983ZM18.9257 338.81H13.5008V328.229H18.9667L18.9257 338.81ZM25.5462 338.81H20.0804V328.229H25.5462V338.81ZM32.1531 338.81H26.6872V328.229H32.1531V338.81ZM38.7736 338.81H33.3146V328.229H38.7805L38.7736 338.81ZM45.3873 338.81H39.9215V328.229H45.3873V338.81ZM52.0078 338.81H46.542V328.229H52.0078V338.81ZM58.6284 338.81H53.1625V328.229H58.6284V338.81ZM65.2421 338.81H59.7762V328.229H65.2421V338.81ZM71.8558 338.81H66.3899V328.229H71.8558V338.81ZM78.4695 338.81H73.0036V328.229H78.4695V338.81Z" fill="#3AAFA9"/>
<path opacity="0.1" d="M12.585 362.685C12.8514 363.822 13.152 364.96 13.4663 366.083V363.443H18.9322V374.016H16.008C16.0968 374.262 16.1856 374.529 16.2744 374.76H78.7971V362.685H12.585ZM25.5664 374.016H20.1005V363.443H25.5664V374.016ZM32.1733 374.016H26.7074V363.443H32.1733V374.016ZM38.7938 374.016H33.3143V363.443H38.7801L38.7938 374.016ZM45.4075 374.016H39.9416V363.443H45.4075V374.016ZM52.028 374.016H46.5621V363.443H52.028V374.016ZM58.6485 374.016H53.1827V363.443H58.6485V374.016ZM65.2622 374.016H59.7964V363.443H65.2622V374.016ZM71.8759 374.016H66.4101V363.443H71.8759V374.016ZM78.4896 374.016H73.0238V363.443H78.4896V374.016Z" fill="#3AAFA9"/>
<path opacity="0.1" d="M28.0264 397.899C28.1972 398.137 28.3612 398.405 28.5388 398.642H32.1531V403.721C32.5425 404.226 32.9251 404.732 33.3214 405.208V398.613H38.7873V409.223H36.5736C36.7922 409.468 37.004 409.729 37.2568 409.967H78.8179V397.899H28.0264ZM45.3873 409.223H39.9215V398.657H45.3873V409.223ZM52.0079 409.223H46.542V398.657H52.0079V409.223ZM58.6284 409.223H53.1625V398.657H58.6284V409.223ZM65.2421 409.223H59.7762V398.657H65.2421V409.223ZM71.8558 409.223H66.3899V398.657H71.8558V409.223ZM78.4695 409.223H73.0036V398.657H78.4695V409.223Z" fill="#3AAFA9"/>
<path opacity="0.1" d="M64.5039 433.106C65.1256 433.492 65.7611 433.849 66.4033 434.236V433.864H71.8692V437.21L73.0307 437.797V433.864H78.4965V440.296C78.6013 440.352 78.7112 440.397 78.8245 440.43V433.106H64.5039Z" fill="#3AAFA9"/>
<path opacity="0.1" d="M515.486 248.284H515.527H515.486ZM473.399 467.733H474.082H473.399ZM429.487 356.075C429.617 356.551 429.726 357.027 429.849 357.495C429.74 357.027 429.624 356.551 429.487 356.075ZM515.486 248.261H515.527H515.486ZM102.813 136.923V140.098H133.333V136.923H102.813ZM473.399 467.733H474.082H473.399ZM429.487 356.075C429.617 356.551 429.726 357.027 429.849 357.495C429.74 357.027 429.624 356.551 429.487 356.075ZM515.486 248.261H515.527H515.486ZM473.399 467.71H474.082H473.399ZM429.487 356.075C429.617 356.551 429.726 357.027 429.849 357.495C429.74 357.027 429.624 356.551 429.487 356.075Z" fill="#3AAFA9"/>
<path d="M315.381 282.301C315.381 282.301 312.689 281.892 312.689 277.624C312.689 273.356 310.762 265.385 310.762 265.385C310.762 265.348 309.095 251.503 306.792 249.302C304.49 247.101 301.532 234.179 301.532 234.179C301.532 234.179 301.026 227.167 299.994 225.658C298.963 224.148 297.569 220.453 295.512 215.181C293.456 209.909 284.881 206.259 284.881 206.259C284.881 206.259 269.379 196.474 264.985 193.284C264.586 193.022 264.213 192.715 263.872 192.369C263.106 191.276 259.772 191.254 259.772 191.254C259.424 188.86 259.089 186.109 258.98 183.618C258.98 183.35 258.98 183.082 258.946 182.815C263.844 179.663 267.534 174.695 269.338 168.821C269.42 168.539 269.488 168.241 269.563 167.959C269.857 167.853 270.127 167.683 270.356 167.457C270.585 167.232 270.769 166.957 270.895 166.65C271.292 165.691 271.298 164.568 271.79 163.676C272.364 162.62 273.457 162.055 274.318 161.259C276.491 159.252 277.051 155.869 276.949 152.79C276.88 150.3 276.512 147.786 276.655 145.31L276.696 144.686C276.737 144.314 276.785 143.942 276.846 143.585C277.181 141.741 277.912 140.002 278.322 138.172C278.732 136.343 278.773 134.284 277.816 132.707C276.416 130.395 273.498 129.934 270.936 129.696C268.033 129.428 265.436 129.778 263.578 127.153C262.708 125.781 261.73 124.495 260.654 123.309C260.271 122.922 256.554 120.454 256.554 120.29C252.927 118.462 248.815 118.119 244.973 119.324C243.047 119.933 241.229 120.93 239.275 121.428C235.06 122.513 230.209 121.339 226.629 123.963C224.634 125.45 223.438 127.815 222.317 130.12C221.406 132.018 220.482 133.914 219.544 135.808C218.034 138.923 216.496 142.091 215.861 145.541C215.727 146.292 215.645 147.052 215.615 147.816V147.853C215.615 148.128 215.615 148.404 215.615 148.679V149.028C215.615 149.288 215.615 149.541 215.656 149.772C215.697 150.002 215.69 150.077 215.711 150.233C215.731 150.389 215.765 150.738 215.806 150.976C215.847 151.214 215.929 151.631 216.011 151.958C216.045 152.099 216.093 152.233 216.134 152.367C216.203 152.619 216.284 152.865 216.373 153.11C216.421 153.237 216.469 153.37 216.524 153.497C216.626 153.757 216.749 154.01 216.872 154.24C216.927 154.344 216.968 154.441 217.022 154.538C217.213 154.884 217.423 155.216 217.651 155.534C219.113 157.519 221.265 158.783 222.857 160.642C222.857 160.717 222.857 160.791 222.857 160.858C222.857 161.066 222.857 161.267 222.857 161.475C222.942 165.621 223.956 169.681 225.811 173.303C227.666 176.925 230.306 179.999 233.502 182.257C233.502 182.54 233.536 182.83 233.55 183.112C233.683 185.319 233.658 187.534 233.475 189.737C233.196 189.38 232.848 189.096 232.456 188.906C232.063 188.715 231.636 188.623 231.206 188.637C230.913 188.621 230.619 188.649 230.332 188.718L230.27 188.666V188.733C228.767 189.135 226.916 190.837 225.146 195.678C225.146 195.678 219.762 202.281 215.663 202.006C211.563 201.73 201.185 208.876 201.185 208.876C201.185 208.876 191.06 216.029 188.887 223.315C187.672 227.447 186.216 231.491 184.528 235.42L172.011 263.489L169.702 285.758C169.702 285.758 170.979 295.662 170.727 297.171C170.474 298.681 175.981 312.295 175.981 312.295C175.981 312.295 194.175 347.085 201.609 348.87L202.142 348.461C202.46 348.642 202.797 348.779 203.146 348.87L204.676 347.695C204.768 349.004 204.729 350.321 204.56 351.621C203.535 355.056 204.943 377.474 206.733 381.868C208.523 386.263 207.888 443.88 207.888 443.88L207.635 448.966C207.635 448.966 207.635 449.129 207.696 449.412L207.635 450.616L207.819 450.72C208.011 452.333 207.948 453.97 207.635 455.561C206.993 457.791 206.733 464.097 206.733 464.097C206.733 464.097 201.615 499.697 204.041 506.85C206.466 514.003 208.53 521.84 208.53 521.84C208.53 521.84 211.092 530.763 208.653 532.287C206.214 533.811 199.279 536.369 200.707 540.087C202.005 543.522 206.931 552.727 207.662 554.073L207.601 554.779L206.596 566.624C206.759 568.188 207.149 569.713 207.751 571.144C208.851 573.724 210.989 576.401 215.055 576.111C215.738 576.059 216.53 575.97 217.296 575.858C224.736 574.773 233.898 571.159 233.898 571.159C233.423 570.83 232.986 570.438 232.6 569.992V569.992C232.234 569.606 231.945 569.144 231.748 568.632C231.552 568.121 231.454 567.572 231.459 567.018C231.568 564.861 227.858 554.586 226.936 552.058C226.793 551.693 226.717 551.485 226.717 551.485C226.717 551.485 235.176 541.864 233.768 533.335C233.768 533.335 224.408 527.387 227.49 524.123C230.571 520.859 236.078 511.483 236.078 511.483C236.078 511.483 236.331 476.425 236.078 471.19C235.814 467.557 235.972 463.902 236.549 460.312C236.652 459.769 236.775 459.241 236.904 458.721C241.166 459.413 245.468 459.768 249.777 459.784C251.348 459.784 252.947 459.784 254.559 459.68C254.559 460.176 254.58 460.711 254.621 461.286C254.976 469.971 255.639 485.198 256.178 490.857C256.944 498.969 261.173 520.829 261.173 520.829C261.173 520.829 253.104 526.465 262.58 540.354C262.58 540.354 262.58 545.388 261.952 546.117C261.281 548.499 260.74 550.922 260.333 553.374C259.936 555.991 259.772 558.638 260.415 560.013C261.952 563.3 271.175 563.032 271.175 563.032L271.401 562.988C273.142 562.792 274.902 562.974 276.578 563.524C278.254 564.074 279.813 564.981 281.164 566.192C284.669 569.256 297.972 567.91 305.173 566.936C307.995 566.549 309.881 566.192 309.881 566.192C309.972 565.845 310.004 565.482 309.976 565.122C309.901 563.196 308.514 558.973 299.113 555.203C299.113 555.203 290.272 548.734 290.395 543.098H290.21H289.185C289.93 543.053 290.408 543.098 290.408 543.098C290.408 543.098 286.944 529.342 288.359 528.227C289.773 527.112 285.537 511.869 285.537 511.869C285.537 511.869 283.112 486.291 282.982 484.499C282.987 482.962 283.201 481.433 283.617 479.964L282.982 465.941C282.982 465.941 282.859 461.279 282.982 459.762C282.961 458.445 282.863 457.131 282.688 455.828C282.626 455.308 282.565 454.765 282.497 454.23C285.81 453.315 287.962 452.468 287.962 452.468L287.58 403.654C290.395 397.706 290.914 384.657 290.9 375.399C290.9 369.451 290.654 365.049 290.654 365.049L294.501 358.216C294.501 358.216 295.389 350.037 293.982 348.245C293.36 347.435 293.64 346.595 294.153 345.903C294.419 345.674 294.7 345.465 294.993 345.279C294.993 345.279 294.952 345.212 294.904 345.115C295.173 344.871 295.458 344.65 295.758 344.453C295.758 344.453 294.392 342.148 295.615 341.174C296.763 342.022 297.787 342.661 298.566 343.182C298.512 343.725 298.457 344.037 298.457 344.037L298.785 343.293C299.536 343.754 299.994 344.037 299.994 344.037C299.994 344.037 306.02 330.973 305.891 329.047C305.761 327.121 309.99 319.009 309.99 319.009C309.99 319.009 310.502 314.749 312.812 312.964C315.121 311.18 314.602 298.25 314.602 298.25C314.602 298.25 315.244 291.513 316.781 288.762C318.319 286.011 315.381 282.301 315.381 282.301ZM200.078 276.568L200.194 279.683C199.511 278.486 199.019 277.624 199.019 277.624L200.078 276.568Z" fill="url(#paint0_linear)"/>
<path d="M300.322 338.393L298.846 345.234C298.846 345.234 287.026 338.668 284.894 330.326C282.763 321.983 288.461 318.816 288.461 318.816L299.475 323.894L300.322 338.393Z" fill="white"/>
<path opacity="0.1" d="M300.322 338.393L298.846 345.234C298.846 345.234 287.026 338.668 284.894 330.326C282.763 321.983 288.461 318.816 288.461 318.816L299.475 323.894L300.322 338.393Z" fill="black"/>
<path d="M233.987 571.204C233.987 571.204 223.055 575.576 215.54 576.126C211.549 576.416 209.452 573.754 208.372 571.189C207.783 569.763 207.402 568.245 207.245 566.69L208.222 554.905L208.741 548.63L224.709 544.116L226.97 551.641L227.182 552.214C228.091 554.727 231.732 564.951 231.623 567.085C231.618 567.631 231.715 568.173 231.908 568.677C232.1 569.182 232.385 569.639 232.743 570.022C233.11 570.472 233.528 570.869 233.987 571.204V571.204Z" fill="white"/>
<path d="M308.658 565.211C308.685 565.569 308.652 565.929 308.562 566.274C308.562 566.274 285.182 570.52 280.399 566.274C279.051 565.034 277.479 564.114 275.784 563.574C274.09 563.033 272.311 562.884 270.56 563.136C270.56 563.136 261.514 563.404 260.005 560.162C259.376 558.802 259.54 556.162 259.929 553.56C260.327 551.121 260.856 548.71 261.514 546.34L261.877 546.028L264.029 544.146L289.226 543.336H289.418C289.295 548.942 297.972 555.374 297.972 555.374C307.189 559.092 308.548 563.293 308.658 565.211Z" fill="white"/>
<path opacity="0.1" d="M308.657 565.211C308.681 565.569 308.647 565.929 308.555 566.274C308.555 566.274 285.181 570.52 280.399 566.274C279.051 565.035 277.481 564.116 275.787 563.575C274.094 563.035 272.316 562.885 270.567 563.136C270.567 563.136 261.514 563.404 260.011 560.162C259.383 558.794 259.54 556.162 259.929 553.56C263.414 553.939 268.914 554.883 271.073 557.136C274.339 560.564 279.873 563.984 283.268 564.252C285.926 564.438 301.825 564.988 308.657 565.211Z" fill="black"/>
<path opacity="0.1" d="M233.987 571.204C233.987 571.204 223.055 575.576 215.54 576.126C211.55 576.416 209.452 573.754 208.379 571.181C211.16 572.2 215.02 573.271 217.05 572.289C219.455 571.129 227.981 570.378 232.764 570.059C233.128 570.492 233.539 570.877 233.987 571.204V571.204Z" fill="black"/>
<path d="M250.207 218.876C241.188 215.062 229.587 202.459 232.484 196.57C233.127 195.084 233.509 193.48 233.611 191.841C233.797 189.616 233.825 187.379 233.693 185.149C233.49 181.498 233.086 177.863 232.484 174.264C232.484 174.264 260.64 174.955 259 179.469C258.522 180.792 258.447 183.09 258.576 185.662C258.706 188.235 259.048 191.142 259.403 193.603C259.895 196.979 260.387 199.552 260.387 199.552C260.387 199.552 258.665 202.176 257.654 202.318C256.643 202.459 263.147 224.312 250.207 218.876Z" fill="#CF6F80"/>
<path opacity="0.1" d="M227.161 552.214L226.95 552.466C218.532 541.388 208.352 555.195 208.352 555.195L208.202 554.905L208.721 548.63L224.688 544.116L226.95 551.641L227.161 552.214Z" fill="black"/>
<path opacity="0.1" d="M289.424 544.117C289.424 544.117 283.275 543.975 279.996 547.128C276.716 550.281 260.865 547.812 261.548 547.128C261.751 546.789 261.873 546.401 261.904 545.998L264.056 544.117L289.253 543.306C289.349 543.804 289.424 544.117 289.424 544.117Z" fill="black"/>
<path d="M237.635 457.115C237.178 458.347 236.83 459.624 236.597 460.929C236.027 464.502 235.869 468.139 236.126 471.755C236.378 476.96 236.126 511.839 236.126 511.839C236.126 511.839 230.721 521.141 227.708 524.42C224.695 527.699 233.857 533.588 233.857 533.588C235.224 542.064 226.943 551.641 226.943 551.641C218.525 540.562 208.345 554.377 208.345 554.377C208.345 554.377 202.811 543.968 201.431 540.25C200.051 536.532 206.835 533.96 209.22 532.45C211.604 530.941 209.104 522.041 209.104 522.041C209.104 522.041 207.088 514.241 204.697 507.125C202.306 500.01 207.334 464.587 207.334 464.587C207.334 464.587 207.594 458.297 208.215 456.103C208.529 454.521 208.592 452.891 208.4 451.285C208.359 450.743 208.311 450.289 208.277 449.984C208.243 449.679 208.215 449.538 208.215 449.538L208.311 449.36L211.727 442.43C211.727 442.43 239.275 452.75 237.635 457.115Z" fill="#3AAFA9"/>
<path d="M289.424 543.299C289.424 543.299 283.275 543.157 279.996 546.273C276.716 549.388 260.865 546.957 261.548 546.273C262.232 545.589 262.177 540.525 262.177 540.525C252.878 526.71 260.81 521.104 260.81 521.104C260.81 521.104 256.656 499.355 255.905 491.288C255.379 485.652 254.73 470.506 254.381 461.859C254.231 458.141 254.142 455.583 254.142 455.583L261.74 453.918L262.717 453.702L281.041 449.702C281.041 449.702 281.547 453.419 281.888 456.46C282.059 457.759 282.154 459.068 282.175 460.379C282.052 461.866 282.175 466.521 282.175 466.521L282.797 480.477C282.391 481.941 282.181 483.461 282.175 484.99C282.298 486.767 284.683 512.211 284.683 512.211C284.683 512.211 288.83 527.394 287.416 528.487C286.001 529.58 289.424 543.299 289.424 543.299Z" fill="#3AAFA9"/>
<path opacity="0.1" d="M259 179.469C258.522 180.792 258.447 183.09 258.577 185.662C254.805 188.134 250.47 189.398 246.068 189.308C241.666 189.219 237.377 187.78 233.693 185.157C233.49 181.503 233.087 177.865 232.484 174.264C232.484 174.264 260.64 174.941 259 179.469Z" fill="black"/>
<path d="M269.884 163.036C269.889 165.716 269.502 168.379 268.736 170.925C267.024 176.631 263.514 181.494 258.826 184.656C254.138 187.818 248.574 189.074 243.117 188.203C237.66 187.332 232.662 184.389 229.006 179.896C225.35 175.402 223.271 169.646 223.137 163.646C223.137 163.438 223.137 163.245 223.137 163.036C223.084 159.659 223.65 156.304 224.801 153.167C225.952 150.03 227.665 147.173 229.841 144.764C232.017 142.355 234.612 140.442 237.475 139.136C240.337 137.83 243.41 137.157 246.514 137.157C249.618 137.157 252.691 137.83 255.554 139.136C258.416 140.442 261.011 142.355 263.187 144.764C265.363 147.173 267.077 150.03 268.227 153.167C269.378 156.304 269.944 159.659 269.891 163.036H269.884Z" fill="#CF6F80"/>
<path opacity="0.1" d="M250.207 218.877C241.188 215.062 229.587 202.459 232.484 196.57C233.127 195.084 233.509 193.48 233.611 191.841L245.957 202.883L253.596 209.701L259.403 193.611C259.895 196.987 260.387 199.559 260.387 199.559C260.387 199.559 258.665 202.184 257.654 202.325C256.643 202.467 263.147 224.312 250.207 218.877Z" fill="black"/>
<path d="M282.134 267.675L271.824 456.163L258.378 457.122L223.561 347.829L229.272 218.073L230.475 190.659L245.957 204.496L253.602 211.315L259.581 194.756L270.697 205.299L282.134 267.675Z" fill="#3AAFA9"/>
<path opacity="0.1" d="M237.635 457.115C237.177 458.347 236.83 459.624 236.597 460.929C226.813 459.285 217.311 456.055 208.407 451.345L208.222 451.241L208.284 450.044L208.318 449.419L211.734 442.489C211.734 442.489 239.275 452.75 237.635 457.115Z" fill="black"/>
<path opacity="0.1" d="M261.897 460.959C259.396 461.422 256.873 461.734 254.34 461.896C254.19 458.178 254.101 455.62 254.101 455.62L261.699 453.955L261.897 460.959Z" fill="black"/>
<path opacity="0.1" d="M281.847 456.498C276.99 457.873 269.488 459.42 262.771 458.453L262.676 453.739L281 449.739C281 449.739 281.506 453.419 281.847 456.498Z" fill="black"/>
<path opacity="0.1" d="M262.649 459.315C234.636 464.52 208.981 449.597 208.981 449.597L209.227 444.541C209.227 444.541 209.862 387.222 208.099 382.827C206.336 378.433 204.963 356.149 205.961 352.729C206.958 349.308 202.319 298.019 202.319 298.019L201.568 277.2L174.061 265.073L186.359 237.175C188.02 233.263 189.448 229.24 190.636 225.13C192.774 217.887 202.702 210.772 202.702 210.772C202.702 210.772 212.882 203.663 216.906 203.931C220.93 204.199 226.205 197.641 226.205 197.641C230.099 186.837 233.625 191.73 233.625 191.73C233.625 192.243 233.625 191.73 233.434 193.328C232.067 205.188 255.529 242.662 255.864 243.324L258.098 302.555L260.36 377.511L262.649 459.315Z" fill="black"/>
<path d="M261.897 459.316C233.885 464.52 208.222 449.598 208.222 449.598L208.475 444.541C208.475 444.541 209.11 387.222 207.341 382.827C205.571 378.433 204.205 356.149 205.209 352.729C206.214 349.309 201.568 298.019 201.568 298.019L200.809 277.2L173.289 265.028L185.587 237.13C187.244 233.217 188.673 229.194 189.864 225.085C191.996 217.843 201.93 210.727 201.93 210.727C201.93 210.727 212.11 203.619 216.127 203.887C220.145 204.154 225.426 197.596 225.426 197.596C229.327 186.793 233.625 191.685 233.625 191.685C233.625 192.198 233.215 192.429 233.434 193.284C236.44 204.786 254.778 242.618 255.113 243.28L257.374 302.51L259.636 377.467L261.897 459.316Z" fill="white"/>
<path opacity="0.1" d="M254.347 244.967C251.334 243.599 235.374 223.769 235.374 223.769V219.256C234.793 217.769 231.343 218.676 228.542 219.717L229.744 192.302L231.11 193.537C234.103 205.032 253.999 244.306 254.347 244.967Z" fill="black"/>
<path d="M255.106 243.324C252.086 241.956 236.125 222.126 236.125 222.126V217.612C235.545 216.125 232.094 217.032 229.293 218.073L230.502 190.659L231.869 191.893C234.868 203.388 254.771 242.67 255.106 243.324Z" fill="white"/>
<path opacity="0.1" d="M208.981 342.223C209.356 342.223 228.46 340.037 228.46 340.037C228.46 340.037 240.027 364.789 239.268 370.812C238.51 376.835 237.137 382.166 232.484 381.221C227.831 380.277 207.443 381.965 207.443 381.965L208.981 342.223Z" fill="black"/>
<path d="M208.222 340.579C208.598 340.579 227.701 338.393 227.701 338.393C227.701 338.393 239.262 363.153 238.51 369.169C237.758 375.184 236.372 380.522 231.726 379.578C227.08 378.634 206.685 380.322 206.685 380.322L208.222 340.579Z" fill="white"/>
<path d="M222.618 328.958C222.618 328.958 240.15 339.211 240.526 342.342C240.901 345.472 231.603 340.973 229.594 340.431C228.272 340.084 226.926 339.855 225.57 339.747L212.171 340.141L222.618 328.958Z" fill="#CF6F80"/>
<path opacity="0.1" d="M249.455 246.246C250.474 246.246 251.3 245.348 251.3 244.239C251.3 243.13 250.474 242.231 249.455 242.231C248.436 242.231 247.61 243.13 247.61 244.239C247.61 245.348 248.436 246.246 249.455 246.246Z" fill="black"/>
<path d="M249.455 245.428C250.474 245.428 251.3 244.529 251.3 243.421C251.3 242.312 250.474 241.413 249.455 241.413C248.436 241.413 247.61 242.312 247.61 243.421C247.61 244.529 248.436 245.428 249.455 245.428Z" fill="#3F3D56"/>
<path opacity="0.1" d="M252.851 333.151C253.87 333.151 254.696 332.253 254.696 331.144C254.696 330.035 253.87 329.136 252.851 329.136C251.832 329.136 251.006 330.035 251.006 331.144C251.006 332.253 251.832 333.151 252.851 333.151Z" fill="black"/>
<path d="M252.851 332.326C253.87 332.326 254.696 331.427 254.696 330.319C254.696 329.21 253.87 328.311 252.851 328.311C251.832 328.311 251.006 329.21 251.006 330.319C251.006 331.427 251.832 332.326 252.851 332.326Z" fill="#3F3D56"/>
<path opacity="0.1" d="M251.293 289.699C252.312 289.699 253.138 288.8 253.138 287.691C253.138 286.582 252.312 285.684 251.293 285.684C250.274 285.684 249.448 286.582 249.448 287.691C249.448 288.8 250.274 289.699 251.293 289.699Z" fill="black"/>
<path d="M251.293 288.881C252.312 288.881 253.138 287.982 253.138 286.873C253.138 285.765 252.312 284.866 251.293 284.866C250.274 284.866 249.448 285.765 249.448 286.873C249.448 287.982 250.274 288.881 251.293 288.881Z" fill="#3F3D56"/>
<path d="M293.818 339.33C293.818 339.33 295.075 341.382 293.818 342.341C292.561 343.301 293.941 345.621 293.941 345.621C293.941 345.621 290.805 347.621 292.185 349.42C293.565 351.219 292.69 359.346 292.69 359.346L288.919 366.142C288.919 366.142 289.144 370.522 289.158 376.44C289.158 385.675 288.659 398.657 285.899 404.576L286.282 453.137C286.282 453.137 273.075 458.386 262.02 456.787L260.38 378.864C260.38 378.864 262.772 334.676 263.653 326.199C264.169 321.799 264.379 317.362 264.282 312.927C264.282 312.927 263.906 299.662 262.642 293.506C262.642 293.506 261.275 266.835 261.139 259.451C261.077 255.92 261.248 245.614 261.439 235.814C261.651 225.1 261.89 214.995 261.89 214.995L259.396 193.522C259.396 193.522 261.89 193.246 262.642 194.339C262.978 194.682 263.345 194.988 263.735 195.254V195.254C268.039 198.422 283.248 208.162 283.248 208.162C283.248 208.162 291.666 211.805 293.681 217.025C295.697 222.245 297.097 225.947 298.074 227.435C299.051 228.922 299.584 235.911 299.584 235.911C299.584 235.911 302.481 248.774 304.743 250.953C307.004 253.131 308.658 266.991 308.658 266.991L288.673 284.092C288.673 284.092 286.917 312.54 286.541 313.641C286.166 314.741 293.818 339.33 293.818 339.33Z" fill="white"/>
<path d="M294.576 339.33C294.576 339.33 295.826 341.382 294.576 342.341C293.326 343.301 294.692 345.621 294.692 345.621C294.692 345.621 291.577 347.643 292.943 349.442C294.31 351.242 293.449 359.369 293.449 359.369L289.677 366.165C289.677 366.165 289.903 370.544 289.923 376.463C289.923 385.697 289.425 398.68 286.664 404.598L287.04 453.159C287.04 453.159 273.813 458.408 262.772 456.81L261.139 378.887C261.139 378.887 263.53 334.698 264.411 326.221C264.928 321.821 265.136 317.384 265.033 312.949C265.033 312.949 264.657 299.684 263.4 293.528C263.4 293.528 262.034 266.857 261.89 259.474C261.829 255.942 262.006 245.636 262.191 235.837C262.403 225.122 262.642 215.017 262.642 215.017L259.349 193.254C259.349 193.254 262.642 193.254 263.4 194.362C263.734 194.708 264.1 195.015 264.493 195.276C268.798 198.444 284.013 208.184 284.013 208.184C284.013 208.184 292.424 211.828 294.44 217.047C296.455 222.267 297.856 225.97 298.84 227.457C299.823 228.944 300.343 235.933 300.343 235.933C300.343 235.933 303.24 248.796 305.501 250.975C307.763 253.154 309.395 266.984 309.395 266.984L289.411 284.085C289.411 284.085 287.655 312.533 287.272 313.633C286.89 314.734 294.576 339.33 294.576 339.33Z" fill="white"/>
<path opacity="0.1" d="M270.642 221.33L272.446 227.055L262.949 237.465C263.161 226.758 263.4 216.646 263.4 216.646L260.107 194.882C260.107 194.882 263.4 194.882 264.158 195.99C264.491 196.336 264.858 196.64 265.252 196.897L273.327 222.252L270.642 221.33Z" fill="black"/>
<path d="M269.884 219.687L271.695 225.412L262.198 235.822C262.41 225.107 262.649 215.002 262.649 215.002L259.349 193.239C259.349 193.239 262.649 193.239 263.4 194.347C263.735 194.691 264.102 194.997 264.493 195.261L272.576 220.609L269.884 219.687Z" fill="white"/>
<path opacity="0.1" d="M269.884 163.036C269.889 165.716 269.502 168.379 268.736 170.925C268.607 170.947 268.475 170.941 268.349 170.906C268.222 170.872 268.103 170.81 267.998 170.725C267.821 164.033 264.794 157.75 261.07 152.404C260.025 150.79 258.757 149.36 257.313 148.166C255.852 146.972 254.035 146.412 252.216 146.597C250.166 146.902 248.355 148.418 246.285 148.612C243.552 148.857 241.106 146.797 238.394 146.693C237.291 146.705 236.203 146.972 235.203 147.477C234.203 147.982 233.313 148.714 232.593 149.623C231.168 151.457 230.11 153.595 229.484 155.898C228.41 159.392 227.825 163.041 227.749 166.724C227.715 168.806 227.53 171.416 225.754 172.175C225.888 170.643 225.728 169.099 225.284 167.638C224.841 166.178 224.124 164.834 223.178 163.691L223.137 163.646C223.137 163.438 223.137 163.245 223.137 163.036C223.084 159.659 223.65 156.304 224.801 153.167C225.952 150.03 227.665 147.173 229.841 144.764C232.017 142.355 234.612 140.442 237.475 139.136C240.337 137.83 243.41 137.157 246.514 137.157C249.618 137.157 252.691 137.83 255.554 139.136C258.416 140.442 261.011 142.355 263.187 144.764C265.363 147.173 267.077 150.03 268.227 153.167C269.378 156.304 269.944 159.659 269.891 163.036H269.884Z" fill="black"/>
<path d="M256.192 122.64C252.641 120.822 248.603 120.479 244.836 121.673C242.944 122.283 241.161 123.272 239.241 123.77C235.141 124.848 230.359 123.681 226.84 126.291C224.886 127.778 223.711 130.127 222.618 132.41L219.885 138.076C218.395 141.176 216.892 144.329 216.27 147.742C215.649 151.155 216.024 154.976 218.013 157.72C219.461 159.72 221.6 160.977 223.171 162.858C224.112 164.002 224.827 165.346 225.269 166.804C225.711 168.263 225.871 169.805 225.74 171.334C227.523 170.591 227.694 167.974 227.735 165.892C227.811 162.209 228.396 158.559 229.47 155.066C230.094 152.761 231.153 150.624 232.579 148.79C233.3 147.882 234.189 147.151 235.19 146.646C236.19 146.141 237.277 145.873 238.38 145.861C241.113 145.965 243.566 148.017 246.271 147.772C248.321 147.586 250.138 146.061 252.202 145.764C254.021 145.577 255.839 146.136 257.299 147.333C258.743 148.526 260.008 149.955 261.049 151.571C264.78 156.917 267.807 163.185 267.984 169.892C268.756 170.509 269.87 169.706 270.253 168.754C270.635 167.803 270.649 166.687 271.134 165.78C271.694 164.732 272.767 164.174 273.607 163.386C275.739 161.386 276.272 158.018 276.19 154.962C276.108 151.906 275.561 148.805 276.094 145.801C276.415 143.957 277.14 142.232 277.536 140.41C277.932 138.589 277.98 136.544 277.044 134.975C275.678 132.67 272.801 132.217 270.294 132.001C267.445 131.733 264.896 132.075 263.079 129.466C262.226 128.104 261.265 126.825 260.209 125.644C259.847 125.257 256.192 122.803 256.192 122.64Z" fill="#512E4E"/>
<path opacity="0.1" d="M181.932 279.438L174.792 265.073L172.53 287.238C172.53 287.238 173.787 297.082 173.535 298.592C173.282 300.101 178.686 313.633 178.686 313.633C178.686 313.633 196.539 348.238 203.829 350.022L228.46 330.869L221.928 321.842C221.928 321.842 219.667 320.883 219.099 321.842C219.099 321.842 206.972 299.134 205.715 297.491C204.458 295.848 204.704 292.569 204.704 292.569C204.704 292.569 202.818 290.383 203.447 288.331C204.075 286.279 199.805 279.163 199.805 279.163L203.699 275.2L181.932 279.438Z" fill="black"/>
<path d="M175.167 263.437L173.282 265.073L171.02 287.238C171.02 287.238 172.277 297.082 172.024 298.592C171.772 300.101 177.183 313.634 177.183 313.634C177.183 313.634 195.029 348.238 202.319 350.022L226.956 330.869L220.418 321.842C220.418 321.842 218.156 320.883 217.589 321.842C217.589 321.842 205.462 299.134 204.205 297.491C202.948 295.848 203.2 292.569 203.2 292.569C203.2 292.569 201.315 290.383 201.943 288.331C202.572 286.279 198.295 279.163 198.295 279.163L202.189 275.2L175.167 263.437Z" fill="white"/>
<path opacity="0.1" d="M292.185 350.268C293.551 352.074 292.69 360.186 292.69 360.186L288.919 366.982C288.919 366.982 289.144 371.369 289.158 377.281L282.818 379.437C282.245 379.632 281.637 379.674 281.046 379.562C280.454 379.449 279.896 379.184 279.418 378.789C278.94 378.394 278.556 377.88 278.298 377.29C278.039 376.701 277.914 376.052 277.932 375.399L279.026 337.025L293.818 343.182C292.56 344.133 293.941 346.468 293.941 346.468C293.941 346.468 290.805 348.461 292.185 350.268Z" fill="black"/>
<path d="M292.943 349.442C294.309 351.249 293.448 359.369 293.448 359.369L289.677 366.165C289.677 366.165 289.902 370.544 289.923 376.463L283.466 378.656C282.905 378.846 282.311 378.887 281.732 378.776C281.153 378.665 280.607 378.405 280.139 378.019C279.671 377.632 279.295 377.129 279.042 376.551C278.789 375.974 278.666 375.34 278.684 374.7L279.784 336.207L294.583 342.364C293.319 343.316 294.699 345.643 294.699 345.643C294.699 345.643 291.576 347.643 292.943 349.442Z" fill="white"/>
<path d="M297.842 331.151C297.842 331.151 296.838 338.133 294.323 338.542C291.809 338.951 290.682 349.836 288.174 349.45C285.667 349.063 287.327 339.33 287.416 337.442C287.505 335.553 284.683 327.731 286.794 325.954C288.905 324.177 295.587 325.954 295.587 325.954L297.842 331.151Z" fill="#CF6F80"/>
<path opacity="0.1" d="M303.192 277.386L307.933 266.976C307.933 266.976 309.819 274.91 309.819 279.148C309.819 283.386 312.456 283.802 312.456 283.802C312.456 283.802 315.346 287.52 313.823 290.227C312.299 292.933 311.684 299.67 311.684 299.67C311.684 299.67 312.183 312.525 309.921 314.303C307.66 316.08 307.189 320.325 307.189 320.325C307.189 320.325 303.034 328.393 303.164 330.311C303.294 332.229 297.384 345.219 297.384 345.219C297.384 345.219 300.274 329.077 283.433 322.102C283.433 322.102 283.303 316.622 284.56 315.12C285.817 313.618 287.778 312.934 286.548 305.343C285.318 297.751 286.193 288.68 286.193 286.858C286.193 285.037 289.964 273.675 289.964 273.675L303.192 277.386Z" fill="black"/>
<path d="M305.241 265.489L309.381 266.976C309.381 266.976 311.274 274.91 311.274 279.148C311.274 283.386 313.911 283.802 313.911 283.802C313.911 283.802 316.801 287.52 315.278 290.227C313.754 292.933 313.146 299.67 313.146 299.67C313.146 299.67 313.645 312.525 311.383 314.303C309.122 316.08 308.616 320.325 308.616 320.325C308.616 320.325 304.469 328.393 304.599 330.311C304.729 332.229 298.812 345.219 298.812 345.219C298.812 345.219 301.709 329.077 284.86 322.102C284.86 322.102 284.737 316.622 285.994 315.12C287.252 313.618 289.212 312.934 287.983 305.343C286.753 297.751 287.627 288.68 287.627 286.858C287.627 285.037 291.399 273.675 291.399 273.675L305.241 265.489Z" fill="white"/>
<path opacity="0.1" d="M213.791 535.298C213.791 535.298 220.391 530.785 224.722 534.064C229.054 537.343 213.791 535.298 213.791 535.298Z" fill="black"/>
<path opacity="0.1" d="M265.074 521.342C265.074 521.342 270.916 520.524 275.822 526.272C280.727 532.019 265.074 521.342 265.074 521.342Z" fill="black"/>
<g opacity="0.1">
<path opacity="0.1" d="M273.621 161.758C272.781 162.546 271.701 163.111 271.141 164.159C270.663 165.059 270.649 166.167 270.267 167.133C269.884 168.1 268.77 168.888 267.998 168.278C267.821 161.587 264.787 155.304 261.063 149.95C260.022 148.334 258.757 146.905 257.312 145.712C255.85 144.515 254.03 143.956 252.209 144.143C250.159 144.448 248.355 145.965 246.285 146.151C243.552 146.403 241.099 144.344 238.387 144.24C237.285 144.252 236.197 144.52 235.198 145.026C234.199 145.533 233.311 146.266 232.593 147.177C231.167 149.007 230.108 151.142 229.484 153.445C228.411 156.938 227.826 160.588 227.749 164.271C227.708 166.345 227.53 168.933 225.768 169.706C225.809 170.255 225.809 170.807 225.768 171.357C227.544 170.613 227.722 167.996 227.763 165.914C227.839 162.231 228.424 158.581 229.498 155.088C230.122 152.783 231.18 150.646 232.607 148.812C233.326 147.904 234.215 147.173 235.214 146.668C236.213 146.163 237.299 145.895 238.401 145.883C241.134 145.987 243.593 148.039 246.299 147.794C248.348 147.608 250.166 146.084 252.222 145.786C254.044 145.599 255.864 146.159 257.326 147.355C258.771 148.548 260.036 149.978 261.077 151.593C264.801 156.939 267.834 163.207 268.012 169.914C268.784 170.531 269.898 169.728 270.28 168.777C270.663 167.825 270.676 166.71 271.155 165.802C271.715 164.754 272.795 164.196 273.635 163.408C275.767 161.408 276.299 158.04 276.218 154.984C276.218 154.887 276.218 154.791 276.218 154.701C276.088 157.348 275.439 160.047 273.621 161.758Z" fill="black"/>
<path opacity="0.1" d="M223.185 161.23C221.614 159.348 219.468 158.092 218.027 156.099C216.813 154.335 216.119 152.212 216.038 150.01C215.823 152.761 216.529 155.505 218.027 157.735C219.468 159.735 221.614 160.992 223.185 162.873C224.694 164.713 225.6 167.045 225.761 169.505C225.865 168.008 225.691 166.503 225.249 165.081C224.806 163.659 224.104 162.349 223.185 161.23V161.23Z" fill="black"/>
<path opacity="0.1" d="M277.55 138.782C277.147 140.604 276.43 142.336 276.102 144.173C275.907 145.4 275.836 146.646 275.89 147.89C275.913 147.182 275.983 146.476 276.102 145.779C276.43 143.935 277.147 142.21 277.55 140.388C277.785 139.383 277.861 138.342 277.776 137.31C277.733 137.806 277.658 138.298 277.55 138.782V138.782Z" fill="black"/>
</g>
<path opacity="0.1" d="M90.6856 565.531C127.453 565.531 157.26 560.321 157.26 553.894C157.26 547.468 127.453 542.258 90.6856 542.258C53.9176 542.258 24.1113 547.468 24.1113 553.894C24.1113 560.321 53.9176 565.531 90.6856 565.531Z" fill="#3AAFA9"/>
<path d="M92.8307 330.98H88.5469V435.946H92.8307V330.98Z" fill="#535461"/>
<path d="M119.75 435.626L119.484 440.355L119.101 447.047L118.944 449.828L118.568 456.52L118.404 459.301L118.022 465.993L113.704 541.886C113.516 545.151 112.192 548.216 110.001 550.457C107.81 552.697 104.917 553.945 101.911 553.946H79.4599C76.4543 553.945 73.5621 552.697 71.3724 550.456C69.1827 548.215 67.8602 545.151 67.6742 541.886L63.3766 465.941L62.994 459.249L62.8369 456.468L62.4543 449.776L62.2971 446.995L61.9145 440.303L61.6412 435.574C61.5938 434.664 61.7177 433.753 62.0054 432.897C62.2931 432.041 62.7385 431.257 63.3143 430.595C63.8901 429.933 64.5841 429.406 65.3538 429.046C66.1235 428.687 66.9526 428.502 67.7903 428.503H113.71C114.545 428.511 115.369 428.705 116.132 429.073C116.895 429.441 117.581 429.975 118.147 430.642C118.713 431.31 119.147 432.096 119.423 432.954C119.699 433.811 119.81 434.72 119.75 435.626V435.626Z" fill="#3F3D56"/>
<path d="M119.484 440.355L119.101 447.025H62.2698L61.8872 440.355H119.484Z" fill="#9D9CB5"/>
<path d="M118.944 449.806L118.568 456.483H62.8099L62.4272 449.806H118.944Z" fill="#9D9CB5"/>
<path d="M118.404 459.271L118.029 465.941H63.3494L62.9668 459.271H118.404Z" fill="#9D9CB5"/>
<path d="M55.3489 370.321C80.2938 389.965 90.7062 420.689 90.7062 420.689C90.7062 420.689 60.644 419.566 35.6923 399.921C10.7406 380.277 0.348633 349.561 0.348633 349.561C0.348633 349.561 30.3972 350.677 55.3489 370.321Z" fill="#3AAFA9"/>
<path d="M0.328125 349.561C0.328125 349.561 31.5382 368.41 41.5476 384.017C51.557 399.624 90.7062 420.689 90.7062 420.689" stroke="#535461" stroke-width="2" stroke-miterlimit="10"/>
<path d="M71.4525 330.75C85.0283 341.435 90.706 358.157 90.706 358.157C90.706 358.157 74.3425 357.547 60.7599 346.862C47.1772 336.178 41.5132 319.448 41.5132 319.448C41.5132 319.448 57.8698 320.058 71.4525 330.75Z" fill="#3AAFA9"/>
<path d="M41.5132 319.448C41.5132 319.448 58.4984 329.709 63.9437 338.2C69.3891 346.691 90.706 358.157 90.706 358.157" stroke="#535461" stroke-width="2" stroke-miterlimit="10"/>
<path d="M110.417 357.309C94.8191 375.965 91.519 400.345 91.519 400.345C91.519 400.345 113.512 394.471 129.097 375.808C144.681 357.146 147.995 332.772 147.995 332.772C147.995 332.772 126.015 338.654 110.417 357.309Z" fill="#3AAFA9"/>
<path d="M148.009 332.78C148.009 332.78 127.689 351.903 122.524 365.079C117.359 378.255 91.519 400.345 91.519 400.345" stroke="#535461" stroke-width="2" stroke-miterlimit="10"/>
<path d="M683.008 350.744C683.008 350.744 671.728 289.669 676.046 282.07C676.046 282.07 676.203 275.007 675.943 266.002C675.943 265.66 675.943 265.318 675.943 264.969C676.703 265.52 677.495 266.017 678.314 266.456C682.293 268.68 686.86 269.322 691.227 268.27L687.811 264.128C686.991 263.14 686.137 262.069 685.96 260.76C685.782 259.452 686.274 258.284 686.697 257.117C689.943 248.194 690.114 236.974 683.862 230.164C678.581 224.438 677.296 217.047 671.564 211.82C667.376 207.991 665.073 202.377 662.9 196.95C661.063 192.362 659.211 187.737 658.159 182.874C657.339 179.075 657.011 175.141 655.884 171.431C654.756 167.721 652.645 164.115 649.345 162.457C648.17 161.869 646.865 161.535 645.792 160.754C644.385 159.72 643.538 158.04 642.52 156.568C637.348 149.132 620.028 153.512 611.829 156.531C609.6 157.291 607.536 158.535 605.762 160.189L605.837 160.055C605.898 159.943 605.973 159.832 606.042 159.72C605.144 160.51 604.369 161.451 603.746 162.509C602.55 164.568 602.052 166.97 601.054 169.201C599.852 171.84 593.163 179.209 596.039 182.175C596.241 182.375 596.472 182.535 596.722 182.651C597.802 183.14 598.991 183.27 600.139 183.023L600.016 183.343C599.033 185.96 598.53 188.761 598.533 191.589C598.533 203.805 607.791 213.709 619.221 213.709C621.37 213.711 623.507 213.353 625.555 212.646C625.603 212.928 625.644 213.211 625.692 213.493C625.692 213.605 625.726 213.716 625.739 213.828L625.377 214.378C625.359 214.344 625.339 214.312 625.316 214.281L614.589 230.595C612.949 231.851 603.507 239.287 602.974 244.863C602.414 250.968 601.854 258.113 601.854 258.113L601.778 259.645C601.31 260.071 600.761 260.382 600.172 260.555C599.582 260.728 598.964 260.76 598.362 260.649C595.014 260.054 595.014 274.032 595.014 274.032C595.014 274.032 592.787 276.263 591.257 274.33C589.726 272.397 585.681 278.947 585.681 278.947L560.333 280.137L559.753 280.174L558.386 275.572C558.239 275.086 557.922 274.683 557.504 274.451C557.085 274.218 556.6 274.175 556.152 274.33C556.046 274.368 555.943 274.415 555.845 274.471L555.749 274.531L555.571 274.664L555.482 274.754C555.434 274.802 555.388 274.854 555.346 274.91L555.264 275.014L555.223 275.059C555.065 275.296 554.961 275.57 554.918 275.86C554.875 276.149 554.895 276.445 554.977 276.724L556.152 280.672C551.26 281.743 546.259 284.762 550.338 293.075L529.663 288.918L536.352 295.03L570.883 302.785C570.425 303.678 570.725 304.971 572.153 306.793C578.302 314.652 589.507 316.786 594.017 317.336C595.208 320.235 596.695 322.979 598.451 325.515L598.062 333.345C598.062 333.345 586.645 393.022 584.554 396.048C585.609 394.746 586.575 393.362 587.444 391.906C584.13 404.167 579.498 420.949 578.282 423.462C576.328 427.477 574.517 443.724 576.745 444.765C577.428 445.084 579.382 444.928 582.17 444.698V446.044L582.047 497.043C582.047 497.043 582.607 528.324 581.07 531.305C579.532 534.287 579.122 540.54 579.122 540.54C579.122 540.54 572.973 552.876 568.102 557.835C568.069 557.874 568.032 557.908 567.992 557.939L567.842 556.779C567.842 556.779 561.987 564.824 549.033 564.371C549.033 564.371 541.237 569.888 552.797 570.185C564.358 570.483 579.122 569.739 579.122 569.739C579.122 569.739 589.432 552.638 598.068 554.868V567.828H600.713V554.66C601.939 553.782 602.988 552.641 603.797 551.308C604.607 549.975 605.159 548.477 605.42 546.905C605.646 545.284 605.481 543.628 604.939 542.098C604.397 540.569 603.499 539.219 602.332 538.183C601.808 537.667 601.387 537.039 601.096 536.338C600.806 535.637 600.652 534.878 600.644 534.109L600.549 534.198C600.549 533.938 600.487 533.67 600.46 533.395C599.701 526.703 598.752 512.895 602.106 502.679C606.704 488.671 608.098 469.16 604.75 457.546C603.67 453.834 602.783 450.058 602.093 446.237C602.011 445.754 601.936 445.293 601.867 444.861C604.156 445.198 606.422 445.695 608.652 446.348C616.406 448.676 633.371 449.107 647.856 448.98C647.89 449.412 647.931 449.865 647.979 450.319C648.237 453.472 648.777 456.589 649.591 459.628C651.408 465.576 652.242 491.801 652.242 491.801C652.242 491.801 654.585 513.364 653.308 522.138C652.625 527.015 651.941 531.915 651.552 536.837V536.934C651.552 536.934 647.712 548.831 644.904 555.292C644.836 555.456 644.761 555.619 644.692 555.775C643.944 555.85 643.207 556.027 642.499 556.303C642.499 556.303 638.734 564.482 634.984 565.836C631.233 567.189 632.476 571.643 640.969 570.007C649.461 568.371 662.286 567.033 662.286 567.033L662.839 558.69L665.449 555.136L664.766 563.456L667.546 562.861L667.177 552.742L671.448 546.927C671.448 546.927 676.606 541.931 668.94 532.101V532.317C668.858 532.175 668.783 532.027 668.694 531.885V531.841C667.423 529.699 666.412 525.707 668.264 518.621C671.612 505.817 673.559 494.195 673.559 494.195C673.559 494.195 681.033 463.063 672.049 448.334H672.445C671.524 446.261 670.874 444.059 670.512 441.79C670.466 441.523 670.425 441.248 670.389 440.965C677.036 440.549 683.561 439.24 688.884 436.415C688.863 436.385 685.659 362.507 683.008 350.744ZM598.608 299.216V299.365L597.242 299.439L598.608 299.216ZM593.921 299.923C593.697 299.977 593.486 300.086 593.306 300.242C592.719 301.147 592.35 302.198 592.234 303.298L590.102 302.778C590.102 302.778 588.606 302.428 586.453 302.034L585.435 300.919C588.237 300.666 591.147 300.294 593.921 299.923V299.923Z" fill="url(#paint1_linear)"/>
<path d="M664.451 552.846L663.638 563.382L666.364 562.787L665.954 551.359L664.451 552.846Z" fill="#1D2366"/>
<path d="M602.256 502.82C598.97 513.007 599.899 526.755 600.637 533.432C600.91 535.9 601.163 537.402 601.163 537.402C601.163 537.402 596.251 549.582 595.841 550.043C595.431 550.504 581.384 559.835 581.384 559.835L571.566 566.073C571.566 566.073 561.604 561.322 566.38 559.686C567.356 559.26 568.235 558.608 568.956 557.775C573.738 552.831 579.744 540.54 579.744 540.54C579.744 540.54 580.154 534.302 581.657 531.335C583.16 528.368 582.613 497.192 582.613 497.192L582.73 446.371V439.746L601.416 439.894C601.534 442.143 601.803 444.38 602.222 446.586C602.893 450.394 603.762 454.158 604.825 457.858C608.119 469.45 606.752 488.864 602.256 502.82Z" fill="#FFB0B1"/>
<path opacity="0.1" d="M601.163 537.402C601.163 537.402 596.251 549.582 595.841 550.043C595.431 550.504 581.384 559.835 581.384 559.835L571.566 566.073C571.566 566.073 561.604 561.322 566.38 559.686C567.356 559.26 568.235 558.608 568.956 557.775L569.379 561.025L572.652 560.876L600.665 533.447C600.91 535.9 601.163 537.402 601.163 537.402Z" fill="black"/>
<path d="M600.821 534.138L572.652 561.753L569.379 561.902L568.696 556.697C568.696 556.697 562.97 564.713 550.248 564.267C550.248 564.267 542.61 569.761 553.931 570.059C565.252 570.356 579.709 569.613 579.709 569.613C579.709 569.613 589.808 552.511 598.259 554.742V567.657H600.856V554.623C602.063 553.738 603.093 552.598 603.884 551.269C604.676 549.94 605.212 548.45 605.461 546.89C605.685 545.283 605.526 543.639 604.999 542.118C604.471 540.597 603.592 539.25 602.447 538.205C601.936 537.684 601.528 537.054 601.249 536.354C600.969 535.655 600.824 534.901 600.821 534.138V534.138Z" fill="#1D2366"/>
<path d="M667.048 518.702C665.23 525.766 666.221 529.744 667.464 531.878V531.923C669.059 534.557 670.168 537.504 670.73 540.6L670.839 541.269L658.022 561.605L651.067 564.579C651.067 564.579 639.882 560.423 641.925 559.233C642.437 558.943 643.237 557.396 644.152 555.262C646.885 548.831 650.657 536.964 650.657 536.964V536.867C651.053 531.967 651.682 527.082 652.379 522.219C653.629 513.468 651.333 491.987 651.333 491.987C651.333 491.987 650.513 465.866 648.737 459.925C647.935 456.905 647.402 453.807 647.145 450.676C646.776 446.958 646.694 443.895 646.694 443.895C646.694 443.895 654.059 432.742 667.56 444.787C668.64 445.748 669.59 446.869 670.382 448.118C679.708 462.558 672.199 494.366 672.199 494.366C672.199 494.366 670.32 505.936 667.048 518.702Z" fill="#FFB0B1"/>
<path opacity="0.1" d="M670.86 541.269L658.043 561.605L651.087 564.579C651.087 564.579 639.903 560.422 641.946 559.233C642.458 558.943 643.257 557.396 644.173 555.262C648.908 555.218 651.361 560.125 651.361 560.125L657.359 559.084C657.359 559.084 665.271 542.161 667.048 541.127C668.824 540.094 667.321 533.402 667.321 533.402V531.699C667.369 531.759 667.41 531.826 667.464 531.885V531.93C669.059 534.565 670.168 537.512 670.73 540.607L670.86 541.269Z" fill="black"/>
<path d="M651.77 560.564C651.77 560.564 648.354 553.738 641.809 556.259C641.809 556.259 638.126 564.438 634.444 565.761C630.761 567.085 631.991 571.546 640.313 569.918C648.634 568.289 661.179 566.943 661.179 566.943L661.725 558.623L670.184 546.897C670.184 546.897 675.226 541.923 667.724 532.131V533.833C667.724 533.833 669.227 540.525 667.451 541.559C665.674 542.592 657.79 559.523 657.79 559.523L651.77 560.564Z" fill="#1D2366"/>
<path opacity="0.1" d="M601.436 439.879C601.554 442.128 601.824 444.365 602.243 446.571C594.549 445.344 587.41 445.954 582.729 446.356V439.731L601.436 439.879Z" fill="black"/>
<path opacity="0.1" d="M671.14 449.969C671.14 449.969 660.208 450.549 647.172 450.668C646.803 446.951 646.721 443.887 646.721 443.887C646.721 443.887 654.086 432.734 667.587 444.779C668.667 445.74 669.617 446.861 670.409 448.11C670.621 448.744 670.865 449.365 671.14 449.969V449.969Z" fill="black"/>
<path d="M671.14 448.631C671.14 448.631 623.259 451.152 608.665 446.698C594.071 442.244 579.607 446.103 577.428 445.069C575.248 444.036 577.018 427.849 578.931 423.841C580.844 419.833 591.338 379.303 591.338 379.303L601.436 322.006L612.074 318.816L612.826 318.585L631.362 313.024L644.945 308.942C644.945 308.942 671.953 423.693 669.637 432.154C668.796 435.394 668.66 438.803 669.24 442.11C669.594 444.369 670.234 446.563 671.14 448.631V448.631Z" fill="#1D2366"/>
<path d="M566.236 282.821C566.236 282.821 556.671 293.974 563.913 300.19C571.156 306.406 575.918 300.785 575.918 300.785L566.236 282.821Z" fill="#C7DAF5"/>
<path opacity="0.1" d="M566.236 282.821C566.236 282.821 556.671 293.974 563.913 300.19C571.156 306.406 575.918 300.785 575.918 300.785L566.236 282.821Z" fill="black"/>
<path d="M643.517 209.493C643.517 209.493 642.396 210.653 640.709 212.363C638.304 214.809 634.744 218.386 631.587 221.382C627.215 225.524 623.607 228.565 624.898 225.97C626.19 223.375 625.944 218.854 625.302 214.623C625.254 214.341 625.213 214.058 625.165 213.783C624.633 210.676 623.928 207.607 623.054 204.593C623.054 204.593 630.118 194.659 634.026 190.741C635.482 189.254 636.5 188.644 636.561 189.678C636.63 191.068 637.586 194.139 638.775 197.395C638.809 197.5 638.843 197.596 638.884 197.7C639.677 199.931 640.572 202.221 641.358 204.199C642.56 207.233 643.517 209.493 643.517 209.493Z" fill="#FFB0B1"/>
<path opacity="0.1" d="M638.884 197.7C638.22 201.586 636.61 205.207 634.22 208.184C631.831 211.161 628.751 213.385 625.302 214.623C624.758 211.229 624.007 207.878 623.054 204.593C623.054 204.593 636.356 185.893 636.561 189.678C636.609 191.113 637.648 194.295 638.884 197.7Z" fill="black"/>
<path opacity="0.1" d="M623.976 219.62L625.698 216.98C625.698 216.98 626.839 224.55 631.034 221.211C635.229 217.873 635.434 246.335 635.434 246.335L630.932 319.597L598.396 317.478L599.318 282.078L603.001 264.233L612.108 238.29L617.527 229.717L623.976 219.62Z" fill="black"/>
<path d="M635.434 246.789L631.335 313.031L630.904 320.05L612.764 318.868L612.081 318.823L598.417 317.931L599.339 282.524L603.022 264.679L612.129 238.736L617.547 230.163L623.997 220.029L625.719 217.397C625.719 217.397 626.86 224.966 631.055 221.627L631.143 221.561C635.243 218.735 635.434 246.789 635.434 246.789Z" fill="#1D2366"/>
<path d="M603.479 258.478C603.479 258.478 601.846 262.195 598.567 261.593C595.287 260.991 595.294 274.977 595.294 274.977C595.294 274.977 593.115 277.207 591.611 275.274C590.108 273.341 586.146 279.877 586.146 279.877L561.317 281.066C561.317 281.066 572.365 286.561 570.199 303.187C570.199 303.187 607.708 300.659 608.938 296.8C610.168 292.941 603.479 258.478 603.479 258.478Z" fill="white"/>
<path opacity="0.03" d="M603.479 258.478C603.479 258.478 601.846 262.195 598.567 261.593C595.287 260.991 595.294 274.977 595.294 274.977C595.294 274.977 593.115 277.207 591.611 275.274C590.108 273.341 586.146 279.877 586.146 279.877L561.317 281.066C561.317 281.066 572.365 286.561 570.199 303.187C570.199 303.187 607.708 300.659 608.938 296.8C610.168 292.941 603.479 258.478 603.479 258.478Z" fill="black"/>
<path d="M531.323 289.803L537.869 295.885L591.748 308.206L585.066 300.785L531.323 289.803Z" fill="white"/>
<path d="M624.079 221.962C623.184 223.449 620.622 231.063 618.483 237.71C616.7 243.25 615.211 248.12 615.211 248.12C615.211 248.12 611.733 272.761 609.957 277.215C608.18 281.669 609.144 299.038 609.144 299.038L602.523 341.933C602.523 341.933 599.524 364.053 594.891 377.266C590.32 390.27 585.23 396.367 585.073 396.561C587.123 393.542 598.294 334.103 598.294 334.103L601.983 259.139C601.983 259.139 602.523 252.016 603.07 245.926C603.616 239.837 614.685 231.524 614.685 231.524L625.357 215.01C626.429 216.571 625.712 219.293 624.079 221.962Z" fill="white"/>
<path d="M596.251 318.303C596.251 318.303 580.537 317.559 572.925 307.611C565.314 297.662 590.519 303.64 590.519 303.64L597.071 305.276L596.251 318.303Z" fill="#FFB0B1"/>
<path opacity="0.1" d="M669.637 432.161C668.795 435.402 668.66 438.81 669.24 442.117C652.098 443.441 633.76 438.4 633.76 438.4C630.344 441.82 621.346 446.861 621.346 446.861L616.44 380.686C613.304 371.764 612.074 325.017 612.074 325.017C612.074 325.017 612.354 322.571 612.757 318.905C612.757 318.816 612.757 318.719 612.792 318.63C614.015 308.391 616.44 289.171 617.629 286.576C619.269 283.007 612.587 273.512 612.587 273.512L615.627 245.295L615.996 241.889C622.405 238.774 627.317 228.825 627.317 228.825L631.089 221.635C635.188 218.772 635.4 246.826 635.4 246.826L631.3 313.068L644.883 308.986C644.883 308.986 671.953 423.7 669.637 432.161Z" fill="black"/>
<path d="M687.23 436.734C668.544 446.832 634.58 437.478 634.58 437.478C631.164 440.898 622.166 445.939 622.166 445.939L617.254 379.764C614.124 370.842 612.895 324.095 612.895 324.095C612.895 324.095 616.844 289.216 618.483 285.654C618.962 284.613 618.729 283.066 618.162 281.401C615.374 273.474 614.349 264.941 615.17 256.5L616.482 244.373L616.844 240.975C623.259 237.852 628.172 227.903 628.172 227.903L631.588 221.39L637.874 209.389L640.852 203.708L641.358 204.206L645.218 208.013C645.218 208.013 646.858 209.5 649.318 211.731C654.667 216.638 663.912 225.278 668.68 230.565C672.876 235.22 674.201 253.325 674.584 266.954C674.836 275.928 674.686 282.962 674.686 282.962C670.457 290.539 681.518 351.368 681.518 351.368C684.094 363.124 687.23 436.734 687.23 436.734Z" fill="white"/>
<path opacity="0.03" d="M651.36 227.754C651.36 227.754 638.536 254.321 640.026 264.418C641.515 274.516 645.751 285.944 643.708 288.613C643.006 289.625 642.099 290.445 641.057 291.012C640.015 291.578 638.867 291.874 637.703 291.877C635.653 292.026 630.187 296.182 630.187 296.629C630.187 297.075 625.138 297.075 620.622 299.157C616.106 301.239 609.437 302.421 609.437 302.421C609.437 302.421 596.456 301.975 595.246 303.313C594.037 304.651 592.794 312.659 595.383 319.046C597.973 325.433 600.849 330.2 603.022 331.069C605.194 331.939 618.982 326.913 630.166 325.723C641.351 324.534 653.492 314.89 653.492 314.89C653.492 314.89 666.863 309.685 669.206 300.934C671.55 292.182 666.344 244.082 666.344 244.082C666.344 244.082 662.408 221.665 651.36 227.754Z" fill="black"/>
<path opacity="0.03" d="M649.72 225.524C649.72 225.524 636.896 252.098 638.399 262.188C639.902 272.278 644.125 283.713 642.075 286.39C641.376 287.402 640.47 288.224 639.429 288.791C638.388 289.357 637.24 289.653 636.076 289.654C634.027 289.803 628.561 293.959 628.561 294.405C628.561 294.852 623.512 294.852 618.995 296.926C614.479 299.001 607.811 300.19 607.811 300.19C607.811 300.19 594.83 299.744 593.627 301.082C592.425 302.421 591.167 310.436 593.764 316.816C596.36 323.195 599.229 327.969 601.402 328.839C603.575 329.709 617.363 324.682 628.547 323.5C639.732 322.318 651.873 312.659 651.873 312.659C651.873 312.659 665.237 307.455 667.553 298.711C669.869 289.967 664.69 241.852 664.69 241.852C664.69 241.852 660.768 219.442 649.72 225.524Z" fill="black"/>
<path d="M650.957 226.416C650.957 226.416 638.133 252.99 639.636 263.08C641.139 273.17 645.361 284.605 643.319 287.275C642.619 288.29 641.712 289.113 640.67 289.681C639.628 290.249 638.479 290.545 637.313 290.546C635.263 290.695 629.797 294.851 629.797 295.29C629.797 295.729 624.755 295.736 620.232 297.818C615.709 299.9 609.048 301.082 609.048 301.082C609.048 301.082 596.066 300.636 594.857 301.975C593.647 303.313 592.404 311.328 594.993 317.708C597.583 324.088 600.459 328.861 602.632 329.731C604.805 330.601 618.592 325.575 629.777 324.385C640.961 323.195 653.102 313.552 653.102 313.552C653.102 313.552 666.473 308.347 668.817 299.595C671.16 290.844 665.988 242.744 665.988 242.744C665.988 242.744 661.998 220.363 650.957 226.416Z" fill="white"/>
<path opacity="0.1" d="M650.677 297.692C650.677 297.692 640.428 295.461 643.995 299.179C647.561 302.897 647.541 306.153 651.907 306.005C656.273 305.856 650.677 297.692 650.677 297.692Z" fill="black"/>
<path opacity="0.1" d="M667.997 377.682C667.997 377.682 663.365 381.095 672.226 388.962C681.088 396.828 667.997 377.682 667.997 377.682Z" fill="black"/>
<path opacity="0.1" d="M659.156 405.736C659.156 406.182 657.516 422.094 663.652 426.072C669.787 430.05 659.156 405.736 659.156 405.736Z" fill="black"/>
<path d="M561.741 281.029C556.794 281.215 546.108 282.858 551.649 294.108C556.548 304.064 564.781 297.409 569.413 292.361C568.283 287.654 565.537 283.598 561.741 281.029V281.029Z" fill="#FFB0B1"/>
<path d="M569.475 292.271L569.68 292.041L569.475 292.271Z" fill="#FFB0B1"/>
<path opacity="0.1" d="M649.318 212.185C644.07 216.088 639.67 219.382 638.809 220.066C636.459 221.962 631.977 233.093 629.087 238.774C626.785 243.347 619.303 244.521 616.481 244.811L616.844 241.413C623.259 238.29 628.172 228.342 628.172 228.342L640.852 204.147L645.218 208.467C645.218 208.467 646.858 209.954 649.318 212.185Z" fill="black"/>
<path d="M649.318 211.738C644.07 215.642 639.67 218.936 638.809 219.627C636.459 221.516 631.977 232.647 629.087 238.327C626.785 242.9 619.303 244.075 616.481 244.365L616.844 240.967C623.259 237.844 628.172 227.896 628.172 227.896L640.852 203.701L645.218 208.006C645.218 208.006 646.858 209.478 649.318 211.738Z" fill="#DCE7FF"/>
<path d="M639.219 192.793C639.222 197.257 637.978 201.615 635.653 205.292C632.906 209.639 628.819 212.771 624.132 214.118C619.446 215.466 614.47 214.941 610.109 212.638C605.747 210.336 602.289 206.408 600.361 201.567C598.434 196.727 598.164 191.295 599.602 186.257C601.039 181.219 604.089 176.908 608.197 174.108C612.305 171.307 617.199 170.202 621.992 170.993C626.785 171.783 631.158 174.418 634.319 178.417C637.48 182.417 639.218 187.518 639.219 192.793V192.793Z" fill="#FFB0B1"/>
<path opacity="0.1" d="M674.583 266.961C671.809 265.104 669.549 262.462 668.045 259.318C666.904 256.864 666.145 254.031 664.198 252.291C662.442 250.73 660.099 250.35 657.912 249.652C650.725 247.339 644.699 240.201 644.473 232.052C644.364 228.215 645.464 224.386 644.965 220.586C644.681 218.436 643.896 216.401 642.683 214.675C642.081 213.85 641.421 213.077 640.709 212.363C639.752 211.381 638.748 210.43 637.873 209.389C637.322 208.744 636.841 208.033 636.438 207.27C636.113 206.645 635.85 205.984 635.653 205.299C634.286 200.749 635.53 195.351 634.027 190.748L633.945 190.495C633.377 188.86 632.223 187.224 630.617 187.097C629.012 186.971 627.638 188.421 626.108 189.068C622.903 190.421 619.446 188.116 616.775 185.766C614.103 183.417 611.09 180.733 607.695 181.253C605.447 181.603 603.67 183.268 601.6 184.131C601.133 184.328 600.651 184.479 600.159 184.584C601.911 179.829 605.13 175.887 609.262 173.434C613.395 170.981 618.184 170.172 622.806 171.144C627.427 172.116 631.594 174.809 634.589 178.762C637.584 182.714 639.221 187.677 639.219 192.8C639.221 194.347 639.072 195.89 638.775 197.403C638.809 197.507 638.843 197.604 638.884 197.708C639.677 199.938 640.572 202.228 641.358 204.206L645.218 208.013C645.218 208.013 646.858 209.5 649.317 211.731C654.667 216.638 663.911 225.278 668.68 230.565C672.875 235.234 674.187 253.332 674.583 266.961Z" fill="black"/>
<path d="M601.361 170.546C602.338 168.382 602.823 165.958 603.992 163.906C605.707 160.932 608.699 159.029 611.774 157.876C619.802 154.865 636.766 150.493 641.836 157.876C642.834 159.363 643.66 161.014 645.04 162.04C646.093 162.821 647.363 163.155 648.518 163.743C651.75 165.393 653.813 168.992 654.913 172.665C656.013 176.338 656.341 180.279 657.147 184.064C658.179 188.919 659.989 193.522 661.793 198.094C663.918 203.492 666.173 209.091 670.272 212.906C675.868 218.111 677.104 225.479 682.297 231.189C688.446 237.971 688.248 249.161 685.078 258.046C684.661 259.213 684.19 260.433 684.354 261.675C684.518 262.916 685.365 264.047 686.164 265.035L689.526 269.162C681.573 271.251 672.575 266.731 668.872 258.797C667.731 256.343 666.972 253.518 665.018 251.771C663.269 250.209 660.919 249.837 658.739 249.139C651.552 246.819 645.525 239.673 645.3 231.524C645.191 227.695 646.291 223.866 645.792 220.073C645.514 217.909 644.726 215.859 643.503 214.125C641.624 211.456 638.789 209.664 637.258 206.69C634.669 201.715 636.637 195.254 634.771 189.915C634.197 188.28 633.05 186.644 631.444 186.517C629.838 186.391 628.465 187.841 626.928 188.488C623.73 189.841 620.273 187.544 617.602 185.186C614.93 182.829 611.917 180.153 608.515 180.681C606.267 181.023 604.497 182.688 602.427 183.558C600.897 184.198 597.795 184.77 596.456 183.365C593.627 180.532 600.179 173.193 601.361 170.546Z" fill="#591D4B"/>
<path opacity="0.1" d="M670.771 256.344C669.623 253.89 668.872 251.064 666.918 249.325C665.169 247.763 662.818 247.384 660.632 246.685C653.451 244.373 647.425 237.227 647.193 229.078C647.084 225.249 648.183 221.412 647.692 217.62C647.405 215.469 646.617 213.434 645.403 211.709C643.517 209.039 640.682 207.247 639.158 204.273C636.569 199.306 638.536 192.845 636.664 187.499C636.097 185.871 634.942 184.235 633.344 184.101C631.745 183.967 630.358 185.432 628.828 186.079C625.63 187.432 622.166 185.127 619.501 182.778C616.837 180.428 613.81 177.744 610.414 178.264C608.167 178.614 606.39 180.279 604.327 181.142C602.796 181.781 599.688 182.361 598.349 180.956C595.534 177.982 602.086 170.658 603.261 168.026C604.238 165.855 604.723 163.438 605.898 161.386C605.96 161.274 606.028 161.163 606.096 161.051C605.217 161.844 604.459 162.782 603.849 163.832C602.68 165.884 602.195 168.293 601.218 170.472C600.036 173.104 593.484 180.45 596.306 183.402C597.672 184.815 600.747 184.235 602.277 183.595C604.327 182.725 606.117 181.06 608.365 180.718C611.781 180.19 614.787 182.874 617.452 185.224C620.116 187.573 623.601 189.878 626.785 188.525C628.315 187.878 629.654 186.421 631.294 186.555C632.934 186.689 634.027 188.317 634.621 189.953C636.487 195.291 634.519 201.753 637.108 206.727C638.639 209.649 641.474 211.478 643.353 214.162C644.576 215.897 645.364 217.946 645.642 220.111C646.141 223.903 645.041 227.732 645.15 231.561C645.375 239.74 651.402 246.856 658.589 249.176C660.755 249.875 663.119 250.247 664.868 251.808C666.829 253.555 667.601 256.381 668.721 258.834C672.425 266.768 681.423 271.289 689.376 269.199L687.791 267.251C680.897 267.363 673.921 263.095 670.771 256.344Z" fill="black"/>
<path opacity="0.1" d="M623.669 222.408C622.774 223.895 620.212 231.509 618.073 238.157C616.071 237.309 614.254 231.903 614.254 231.903L624.926 215.382C626.019 217.018 625.302 219.732 623.669 222.408Z" fill="black"/>
<path d="M624.079 221.962C623.184 223.449 620.622 231.063 618.483 237.71C616.481 236.87 614.664 231.457 614.664 231.457L625.336 214.943C626.429 216.571 625.712 219.293 624.079 221.962Z" fill="#DCE7FF"/>
<path d="M562.027 297.922L556.111 277.616C556.04 277.379 556.014 277.128 556.033 276.879C556.053 276.631 556.117 276.388 556.222 276.167C556.327 275.945 556.472 275.748 556.648 275.587C556.823 275.426 557.026 275.305 557.245 275.23V275.23C557.685 275.08 558.162 275.126 558.571 275.357C558.981 275.588 559.29 275.986 559.431 276.464L565.348 296.748L564.76 300.993L562.027 297.922Z" fill="#BE8B87"/>
<path opacity="0.1" d="M556.671 275.832C557.112 275.68 557.591 275.725 558.002 275.956C558.413 276.187 558.723 276.587 558.864 277.066L564.781 297.35L564.337 300.532L564.767 301.023L565.355 296.777L559.404 276.494C559.263 276.016 558.954 275.618 558.544 275.387C558.135 275.156 557.658 275.11 557.218 275.259V275.259C556.847 275.39 556.527 275.652 556.309 276.003C556.425 275.935 556.546 275.878 556.671 275.832V275.832Z" fill="white"/>
<path d="M562.027 297.922L565.348 296.777L564.863 300.257L564.76 301.023L563.79 299.923L562.027 297.922Z" fill="#EFC8C4"/>
<path d="M563.791 299.923C563.848 299.843 563.92 299.777 564.002 299.729C564.05 299.696 564.106 299.679 564.163 299.679C564.22 299.679 564.275 299.696 564.323 299.729C564.37 299.79 564.409 299.858 564.44 299.93C564.485 300.012 564.546 300.082 564.62 300.135C564.693 300.188 564.776 300.222 564.863 300.235L564.761 300.978L563.791 299.923Z" fill="#727A9C"/>
<path d="M556.077 284.829C556.077 284.829 567.944 284.754 565.15 290.249C562.356 295.744 557.99 296.406 557.99 296.406L556.077 284.829Z" fill="#FFB0B1"/>
<path d="M482.267 38.2329H481.755C461.367 38.2329 443.337 49.9734 432.965 67.298C422.594 49.9734 404.563 38.2329 384.175 38.2329H383.663C368.363 38.3916 353.738 45.1151 342.967 56.9425C332.196 68.7698 326.15 84.7451 326.142 101.397C326.142 122.075 334.463 151.415 350.69 175.558C381.606 221.561 432.965 261.809 432.965 261.809C432.965 261.809 484.324 221.568 515.233 175.558C531.467 151.415 539.782 122.075 539.782 101.397C539.773 84.7464 533.728 68.7722 522.959 56.9451C512.189 45.118 497.566 38.3935 482.267 38.2329V38.2329ZM474.936 179.097C472.614 179.087 470.349 178.314 468.439 176.878C466.528 175.442 465.061 173.411 464.23 171.052H452.041C451.238 171.046 450.457 170.768 449.807 170.256C449.156 169.745 448.669 169.024 448.413 168.197L444.669 155.921L432.822 200.972C432.591 201.839 432.108 202.602 431.445 203.145C430.782 203.688 429.975 203.982 429.146 203.983H428.907C428.041 203.938 427.216 203.57 426.569 202.942C425.923 202.314 425.494 201.464 425.354 200.533L413.144 120.617L404.221 167.907C404.017 168.805 403.542 169.603 402.872 170.173C402.202 170.743 401.376 171.052 400.525 171.052H383.356C382.841 171.076 382.327 170.986 381.845 170.788C381.363 170.59 380.923 170.288 380.551 169.9C380.179 169.512 379.883 169.046 379.681 168.53C379.479 168.015 379.375 167.46 379.375 166.899C379.375 166.339 379.479 165.784 379.681 165.268C379.883 164.752 380.179 164.287 380.551 163.899C380.923 163.511 381.363 163.209 381.845 163.011C382.327 162.813 382.841 162.723 383.356 162.746H397.519L410.159 99.1662C410.366 98.2262 410.867 97.3938 411.576 96.8113C412.285 96.2288 413.158 95.9324 414.046 95.9728C414.933 96.0132 415.781 96.3879 416.442 97.0327C417.104 97.6776 417.54 98.5526 417.674 99.5082L430.143 181.03L440.761 140.723C440.982 139.874 441.449 139.125 442.093 138.589C442.737 138.053 443.523 137.758 444.334 137.749H444.409C445.212 137.749 445.995 138.025 446.645 138.538C447.295 139.05 447.78 139.773 448.03 140.604L454.801 162.769H464.08C464.739 160.588 465.94 158.647 467.549 157.162C469.158 155.677 471.113 154.704 473.198 154.351C475.282 153.998 477.416 154.279 479.364 155.163C481.311 156.047 482.996 157.499 484.233 159.359C485.47 161.22 486.211 163.415 486.373 165.705C486.536 167.994 486.114 170.288 485.154 172.333C484.195 174.378 482.735 176.095 480.935 177.293C479.135 178.492 477.067 179.127 474.957 179.127L474.936 179.097Z" fill="#3AAFA9"/>
</g>
<defs>
<linearGradient id="paint0_linear" x1="243.457" y1="576.148" x2="243.457" y2="118.617" gradientUnits="userSpaceOnUse">
<stop stop-color="#808080" stop-opacity="0.25"/>
<stop offset="0.54" stop-color="#808080" stop-opacity="0.12"/>
<stop offset="1" stop-color="#808080" stop-opacity="0.1"/>
</linearGradient>
<linearGradient id="paint1_linear" x1="152508" y1="345213" x2="152508" y2="110359" gradientUnits="userSpaceOnUse">
<stop stop-color="#808080" stop-opacity="0.25"/>
<stop offset="0.54" stop-color="#808080" stop-opacity="0.12"/>
<stop offset="1" stop-color="#808080" stop-opacity="0.1"/>
</linearGradient>
<clipPath id="clip0">
<rect width="755" height="582" fill="white"/>
</clipPath>
</defs>
</svg>
