<svg width="950px" height="850px" viewBox="0 0 1092 838" fill="none" xmlns="http://www.w3.org/2000/svg">
<path d="M40.5486 835.943L0.174181 338.146C-0.848819 325.47 2.65837 312.842 10.0632 302.534L211.509 22.1318C216.893 14.6373 224.118 8.67681 232.48 4.8335C240.84 0.989326 250.05 -0.604769 259.206 0.205568L948.828 61.3625C959.74 62.3306 970.089 66.6721 978.452 73.7911C986.824 80.91 992.791 90.4583 995.545 101.125L1090.3 467.938C1092.62 476.943 1092.56 486.402 1090.13 495.378L997.412 837.169L40.5486 835.943Z" fill="#8CD9D5"/>
<path d="M862.521 737.861H868.488V535.337C868.488 534.48 867.167 533.802 865.53 533.802H806.026C804.389 533.802 803.067 534.488 803.067 535.337V735.838H808.984V540.216H862.521V737.861Z" fill="#B2B6BB"/>
<g opacity="0.1">
<path opacity="0.1" d="M862.521 737.861H868.488V535.337C868.488 534.48 867.167 533.802 865.53 533.802H806.026C804.389 533.802 803.067 534.488 803.067 535.337V735.838H808.984V540.216H862.521V737.861Z" fill="black"/>
</g>
<path d="M786.854 836.801H893.211V824.135H786.854V836.801Z" fill="#B2B6BB"/>
<path opacity="0.1" d="M786.854 836.801H893.211V824.135H786.854V836.801Z" fill="black"/>
<path d="M858.258 737.861H864.225V535.337C864.225 534.48 862.904 533.802 861.267 533.802H801.763C800.126 533.802 798.805 534.488 798.805 535.337V735.838H804.721V540.216H858.258V737.861Z" fill="#B2B6BB"/>
<path d="M812.453 660.918H750.971V733.548H812.453V660.918Z" fill="#DADDDF"/>
<path d="M763.264 683.274H800.151V672.624H763.264V683.274Z" fill="#F4F4F4"/>
<path d="M908.53 660.918H847.048V733.548H908.53V660.918Z" fill="#DADDDF"/>
<path d="M860.781 723.106H897.669V675.523H860.781V723.106Z" fill="#F4F4F4"/>
<path d="M833.681 836.801H844.857V734.502H833.681V836.801Z" fill="#B2B6BB"/>
<g opacity="0.1">
<path opacity="0.1" d="M833.681 836.801H844.857V734.502H833.681V836.801Z" fill="black"/>
</g>
<path d="M826.861 836.801H838.038V734.502H826.861V836.801Z" fill="#B2B6BB"/>
<path d="M781.056 836.801H887.414V824.135H781.056V836.801Z" fill="#B2B6BB"/>
<path d="M908.53 561.242H847.048V633.864H908.53V561.242Z" fill="#DADDDF"/>
<path d="M860.219 584.85H897.106V574.2H860.219V584.85Z" fill="#F4F4F4"/>
<path d="M744.406 645.398H944.096V632.733H744.406V645.398Z" fill="#B2B6BB"/>
<path opacity="0.1" d="M744.406 645.398H944.096V632.733H744.406V645.398Z" fill="black"/>
<path d="M744.406 745.726H944.096V733.06H744.406V745.726Z" fill="#B2B6BB"/>
<path opacity="0.1" d="M744.406 745.726H944.096V733.06H744.406V745.726Z" fill="black"/>
<path d="M817.815 561.242H756.333V633.872H817.815V561.242Z" fill="#DADDDF"/>
<path d="M768.627 583.547H805.515V572.897H768.627V583.547Z" fill="#F4F4F4"/>
<path d="M768.627 602.875H805.515V592.224H768.627V602.875Z" fill="#F4F4F4"/>
<path d="M737.587 745.828H936.492L936.799 733.162H737.587V745.828Z" fill="#B2B6BB"/>
<path d="M737.587 645.398H937.277V632.733H737.587V645.398Z" fill="#B2B6BB"/>
<path d="M160.777 836.063H469.518V189.113H160.777V836.063Z" fill="#B2B6BB"/>
<path d="M160.778 836.063H463.441V189.113H160.778V836.063Z" fill="#DADDDF"/>
<path d="M447.5 836.063V203.794H176.72V836.063H447.5Z" fill="#B2B6BB"/>
<path opacity="0.1" d="M369.776 281.741H259.803V322.901H369.776V281.741Z" fill="black"/>
<path d="M242.641 493.304C228.591 489.402 214.508 501.965 200.493 498.063C197.518 497.274 195.08 493.227 195.08 490.243C195.08 487.242 197.518 486.393 200.493 487.181C214.542 491.075 228.625 478.521 242.641 482.422C245.616 483.211 248.054 487.259 248.054 490.243C248.054 493.235 245.607 494.093 242.641 493.304Z" fill="white"/>
<path opacity="0.1" d="M179.155 836.063V203.794H175.37V836.063H179.155Z" fill="black"/>
<path d="M364.54 281.741H254.568V322.901H364.54V281.741Z" fill="#F4F4F4"/>
<path d="M99.2008 654.753C98.4327 654.757 97.6749 654.935 96.9843 655.273C96.2938 655.612 95.6877 656.102 95.2111 656.708C88.7321 665.086 87.4193 682.759 90.0961 687.347C93.2504 692.749 89.9938 694.687 90.7526 699.566C91.3664 703.536 96.9161 706.546 98.9707 707.532C99.2076 707.652 99.4685 707.714 99.7336 707.714C99.9988 707.714 100.26 707.652 100.497 707.532C102.628 706.495 108.51 703.305 109.022 699.292C109.635 694.387 106.328 692.552 109.311 687.055C111.869 682.391 110.011 664.76 103.284 656.588C102.789 655.995 102.167 655.522 101.464 655.204C100.762 654.886 99.9962 654.733 99.2264 654.753" fill="#3AAFA9"/>
<g opacity="0.4">
<g opacity="0.4">
<path opacity="0.4" d="M99.2008 654.753C98.4327 654.757 97.6749 654.935 96.9843 655.273C96.2938 655.612 95.6877 656.102 95.2111 656.708C88.7321 665.086 87.4193 682.759 90.0961 687.347C93.2504 692.749 89.9938 694.687 90.7526 699.566C91.3664 703.536 96.9161 706.546 98.9707 707.532C99.2076 707.652 99.4685 707.714 99.7336 707.714C99.9988 707.714 100.26 707.652 100.497 707.532C102.628 706.495 108.51 703.305 109.022 699.292C109.635 694.387 106.328 692.552 109.311 687.055C111.869 682.391 110.011 664.76 103.284 656.588C102.789 655.995 102.167 655.522 101.464 655.204C100.762 654.886 99.9962 654.733 99.2264 654.753" fill="white"/>
</g>
</g>
<path d="M144.971 702.929C144.395 702.42 143.713 702.048 142.975 701.84C142.238 701.632 141.463 701.594 140.708 701.728C130.333 703.675 117.691 716.04 116.685 721.253C115.483 727.393 111.774 726.68 109.123 730.839C106.966 734.226 109.123 740.17 110.027 742.288C110.131 742.532 110.288 742.75 110.488 742.925C110.686 743.102 110.923 743.23 111.178 743.299C113.454 743.95 119.958 745.477 122.976 742.811C126.659 739.544 125.397 735.95 131.254 733.832C136.224 732.031 146.463 717.609 146.812 707.002C146.832 706.228 146.678 705.461 146.362 704.755C146.046 704.05 145.577 703.425 144.988 702.929" fill="#3AAFA9"/>
<path d="M52.0065 714.307C51.5138 714.716 51.1182 715.231 50.8497 715.814C50.5812 716.397 50.4464 717.034 50.455 717.677C50.6681 726.509 59.0652 738.582 63.1828 740.126C68.0335 741.935 66.9594 744.911 70.0028 747.655C72.475 749.884 77.6156 748.89 79.457 748.435C79.671 748.384 79.8713 748.281 80.0418 748.144C80.2132 748.006 80.3513 747.826 80.4459 747.629C81.2984 745.837 83.3871 740.666 81.6139 737.819C79.4485 734.338 76.3539 734.895 75.3991 729.776C74.5978 725.437 64.1888 715.053 55.5785 713.338C54.9494 713.219 54.3015 713.244 53.6825 713.412C53.0645 713.579 52.4916 713.886 52.0065 714.307Z" fill="#3AAFA9"/>
<path d="M130.069 734.03C129.614 733.706 129.094 733.488 128.545 733.391C127.997 733.295 127.435 733.323 126.897 733.473C119.557 735.625 111.339 745.477 110.973 749.267C110.538 753.777 107.81 753.554 106.199 756.719C104.886 759.291 106.864 763.441 107.657 764.899C107.749 765.071 107.878 765.216 108.035 765.328C108.191 765.439 108.371 765.516 108.56 765.551C110.265 765.851 115.039 766.486 117.026 764.35C119.455 761.778 118.287 759.205 122.354 757.293C125.806 755.638 132.166 744.508 131.671 736.834C131.628 736.276 131.461 735.736 131.184 735.25C130.907 734.765 130.526 734.348 130.069 734.03Z" fill="#3AAFA9"/>
<path d="M75.1697 681.165C74.5585 681.354 73.9975 681.679 73.5287 682.115C73.0589 682.552 72.6932 683.089 72.4588 683.686C69.3045 691.935 72.4588 706.324 75.7153 709.325C79.5175 712.858 77.4203 715.191 79.1679 718.895C80.6087 721.905 85.7407 722.96 87.6162 723.243C87.8336 723.276 88.0561 723.26 88.2667 723.196C88.4772 723.133 88.6716 723.022 88.8353 722.874C90.2845 721.536 94.1975 717.566 93.6349 714.256C92.9443 710.2 89.8753 709.531 90.9324 704.438C91.8361 700.15 86.1499 686.525 78.8269 681.645C78.2916 681.295 77.6854 681.07 77.052 680.987C76.4195 680.904 75.7758 680.965 75.1697 681.165Z" fill="#3AAFA9"/>
<path d="M126.158 683.102C125.592 682.805 124.967 682.638 124.328 682.612C123.69 682.587 123.054 682.704 122.466 682.957C114.444 686.549 106.584 698.992 106.755 703.408C106.959 708.613 103.814 708.75 102.492 712.626C101.393 715.782 104.291 720.181 105.408 721.716C105.538 721.895 105.707 722.041 105.902 722.145C106.097 722.249 106.312 722.307 106.533 722.316C108.502 722.401 114.052 722.376 115.987 719.632C118.349 716.279 116.644 713.629 120.974 710.774C124.649 708.356 130.182 694.704 128.442 686.044C128.309 685.414 128.037 684.823 127.646 684.314C127.255 683.805 126.754 683.39 126.183 683.102" fill="#3AAFA9"/>
<g opacity="0.2">
<g opacity="0.2">
<path opacity="0.2" d="M75.1697 681.165C74.5585 681.354 73.9975 681.679 73.5287 682.115C73.0589 682.552 72.6932 683.089 72.4588 683.686C69.3045 691.935 72.4588 706.324 75.7153 709.325C79.5175 712.858 77.4203 715.191 79.1679 718.895C80.6087 721.905 85.7407 722.96 87.6162 723.243C87.8336 723.276 88.0561 723.26 88.2667 723.196C88.4772 723.133 88.6716 723.022 88.8353 722.874C90.2845 721.536 94.1975 717.566 93.6349 714.256C92.9443 710.2 89.8753 709.531 90.9324 704.438C91.8361 700.15 86.1499 686.525 78.8269 681.645C78.2916 681.295 77.6854 681.07 77.052 680.987C76.4195 680.904 75.7758 680.965 75.1697 681.165Z" fill="white"/>
</g>
</g>
<g opacity="0.2">
<g opacity="0.2">
<path opacity="0.2" d="M126.158 683.102C125.592 682.805 124.967 682.638 124.328 682.612C123.69 682.587 123.054 682.704 122.466 682.957C114.444 686.549 106.584 698.992 106.755 703.408C106.959 708.613 103.814 708.75 102.492 712.626C101.393 715.782 104.291 720.181 105.408 721.716C105.538 721.895 105.707 722.041 105.902 722.145C106.097 722.249 106.312 722.307 106.533 722.316C108.502 722.401 114.052 722.376 115.987 719.632C118.349 716.279 116.644 713.629 120.974 710.774C124.649 708.356 130.182 694.704 128.442 686.044C128.309 685.414 128.037 684.823 127.646 684.314C127.255 683.805 126.754 683.39 126.183 683.102" fill="white"/>
</g>
</g>
<path d="M97.7678 685.04C97.125 685.014 96.4839 685.135 95.8932 685.393C95.3024 685.651 94.7772 686.041 94.3578 686.532C88.7142 693.289 87.0698 707.97 89.1413 711.837C91.588 716.425 88.8259 717.934 89.3033 722.016C89.6955 725.334 94.2052 728.018 95.8846 728.876C96.0824 728.971 96.2998 729.021 96.5197 729.021C96.7388 729.021 96.9562 728.971 97.154 728.876C98.9613 728.087 103.975 725.617 104.486 722.299C105.151 718.243 102.457 716.605 105.109 712.137C107.359 708.338 106.387 693.632 101.051 686.618C100.657 686.112 100.156 685.701 99.5828 685.417C99.0099 685.131 98.3816 684.979 97.7422 684.972" fill="#3AAFA9"/>
<path d="M74.2581 750.973C73.8438 751.265 73.5003 751.651 73.253 752.097C73.0049 752.543 72.8592 753.04 72.8259 753.546C72.4252 760.457 78.2137 770.447 81.3509 771.922C85.0252 773.637 83.9937 775.901 86.1931 778.251C87.9834 780.154 92.0754 779.708 93.5417 779.477C93.7181 779.451 93.8869 779.391 94.0353 779.288C94.1836 779.194 94.3064 779.057 94.3942 778.902C95.1614 777.556 97.1477 773.654 95.9457 771.313C94.4709 768.449 92.0157 768.689 91.598 764.625C91.2484 761.195 83.7891 752.38 77.1651 750.485C76.6801 750.356 76.1728 750.339 75.6784 750.425C75.1848 750.519 74.7176 750.716 74.3093 751.008" fill="#3AAFA9"/>
<g opacity="0.2">
<g opacity="0.2">
<path opacity="0.2" d="M130.069 734.03C129.614 733.706 129.094 733.488 128.545 733.391C127.997 733.295 127.435 733.323 126.897 733.473C119.557 735.625 111.339 745.477 110.973 749.267C110.538 753.777 107.81 753.554 106.199 756.719C104.886 759.291 106.864 763.441 107.657 764.899C107.749 765.071 107.878 765.216 108.035 765.328C108.191 765.439 108.371 765.516 108.56 765.551C110.265 765.851 115.039 766.486 117.026 764.35C119.455 761.778 118.287 759.205 122.354 757.293C125.806 755.638 132.166 744.508 131.671 736.834C131.628 736.276 131.461 735.736 131.184 735.25C130.907 734.765 130.526 734.348 130.069 734.03Z" fill="black"/>
</g>
</g>
<g opacity="0.2">
<g opacity="0.2">
<path opacity="0.2" d="M97.7678 685.04C97.125 685.014 96.4839 685.135 95.8932 685.393C95.3024 685.651 94.7772 686.041 94.3578 686.532C88.7142 693.289 87.0698 707.97 89.1413 711.837C91.588 716.425 88.8259 717.934 89.3033 722.016C89.6955 725.334 94.2052 728.018 95.8846 728.876C96.0824 728.971 96.2998 729.021 96.5197 729.021C96.7388 729.021 96.9562 728.971 97.154 728.876C98.9613 728.087 103.975 725.617 104.486 722.299C105.151 718.243 102.457 716.605 105.109 712.137C107.359 708.338 106.387 693.632 101.051 686.618C100.657 686.112 100.156 685.701 99.5828 685.417C99.0099 685.131 98.3816 684.979 97.7422 684.972" fill="black"/>
</g>
</g>
<g opacity="0.2">
<g opacity="0.2">
<path opacity="0.2" d="M74.2581 750.973C73.8438 751.265 73.5003 751.651 73.253 752.097C73.0049 752.543 72.8592 753.04 72.8259 753.546C72.4252 760.457 78.2137 770.447 81.3509 771.922C85.0252 773.637 83.9937 775.901 86.1931 778.251C87.9834 780.154 92.0754 779.708 93.5417 779.477C93.7181 779.451 93.8869 779.391 94.0353 779.288C94.1836 779.194 94.3064 779.057 94.3942 778.902C95.1614 777.556 97.1477 773.654 95.9457 771.313C94.4709 768.449 92.0157 768.689 91.598 764.625C91.2484 761.195 83.7891 752.38 77.1651 750.485C76.6801 750.356 76.1728 750.339 75.6784 750.425C75.1848 750.519 74.7176 750.716 74.3093 751.008" fill="black"/>
</g>
</g>
<path d="M98.9353 789.038L98.4238 788.883C98.5432 788.463 111.083 746.823 130.137 735.092L130.418 735.555C111.544 747.183 99.0632 788.626 98.9353 789.038Z" fill="#3AAFA9"/>
<path d="M98.135 789.029C96.43 778.362 75.0408 752.868 74.8276 752.611L75.2368 752.26C76.0893 753.314 96.9159 778.122 98.6636 788.943L98.135 789.029Z" fill="#3AAFA9"/>
<path d="M98.8017 788.986L98.2646 788.918L100.822 767.017C102.198 754.661 107.461 743.061 115.843 733.919L143.618 703.752L144.018 704.12L116.244 734.287C107.924 743.342 102.698 754.832 101.325 767.086L98.8017 788.986Z" fill="#3AAFA9"/>
<path d="M98.0516 789.055C97.9152 788.558 83.6699 738.343 52.9458 715.474L53.2697 715.036C84.1388 738.017 98.4523 788.403 98.5716 788.909L98.0516 789.055Z" fill="#3AAFA9"/>
<path d="M97.6157 687.554L97.0786 687.561L98.2746 788.935L98.8117 788.926L97.6157 687.554Z" fill="#3AAFA9"/>
<path d="M97.9995 756.11C97.4624 723.972 125.007 684.518 125.279 684.081L125.713 684.398C125.441 684.792 97.9901 724.1 98.5272 756.058L97.9995 756.11Z" fill="#3AAFA9"/>
<path d="M97.9994 757.653C97.3345 745.331 74.9819 683.222 74.7773 682.596L75.2888 682.408C75.5105 683.034 97.863 745.228 98.5365 757.619L97.9994 757.653Z" fill="#3AAFA9"/>
<path d="M99.0538 656.101L98.5176 656.122L99.5977 685.059L100.134 685.039L99.0538 656.101Z" fill="#3AAFA9"/>
<path d="M75.4525 759.668L75.2437 760.166L83.3484 763.604L83.5573 763.107L75.4525 759.668Z" fill="#3AAFA9"/>
<path d="M54.1902 723.999L53.9873 724.499L68.126 730.296L68.3289 729.797L54.1902 723.999Z" fill="#3AAFA9"/>
<path d="M73.1123 691.026L72.6895 691.359L82.1428 703.495L82.5657 703.163L73.1123 691.026Z" fill="#3AAFA9"/>
<path d="M102.558 698.745L97.6919 716.137L98.2085 716.283L103.075 698.891L102.558 698.745Z" fill="#3AAFA9"/>
<path d="M115.608 689.183L113.633 703.763L114.165 703.836L116.14 689.256L115.608 689.183Z" fill="#3AAFA9"/>
<path d="M127.207 722.118L126.687 721.981C128.034 716.716 130.046 708.733 130.097 708.347H130.643C130.643 708.621 128.239 718.054 127.233 722.067" fill="#3AAFA9"/>
<path d="M126.957 745.22L114.912 752.405L115.185 752.868L127.231 745.683L126.957 745.22Z" fill="#3AAFA9"/>
<g opacity="0.3">
<g opacity="0.3">
<path opacity="0.3" d="M98.939 789.038L98.4275 788.883C98.5469 788.463 111.087 746.823 130.141 735.092L130.422 735.555C111.548 747.183 99.0669 788.626 98.939 789.038Z" fill="black"/>
<path opacity="0.3" d="M98.1377 789.029C96.4327 778.362 75.0435 752.868 74.8304 752.611L75.2395 752.26C76.092 753.314 96.9186 778.122 98.6662 788.943L98.1377 789.029Z" fill="black"/>
<path opacity="0.3" d="M98.8018 788.986L98.2647 788.918L100.822 767.017C102.198 754.661 107.461 743.061 115.843 733.919L143.618 703.752L144.018 704.12L116.244 734.287C107.924 743.342 102.698 754.832 101.325 767.086L98.8018 788.986Z" fill="black"/>
<path opacity="0.3" d="M98.0516 789.055C97.9152 788.558 83.6699 738.343 52.9458 715.474L53.2697 715.036C84.1388 738.017 98.4523 788.403 98.5716 788.909L98.0516 789.055Z" fill="black"/>
<path opacity="0.3" d="M97.616 687.554L97.0789 687.561L98.2749 788.935L98.812 788.926L97.616 687.554Z" fill="black"/>
<path opacity="0.3" d="M97.9996 756.11C97.4625 723.972 125.007 684.518 125.28 684.081L125.713 684.398C125.441 684.792 97.9902 724.1 98.5273 756.058L97.9996 756.11Z" fill="black"/>
<path opacity="0.3" d="M97.9996 757.653C97.3346 745.331 74.9821 683.222 74.7775 682.596L75.289 682.408C75.5106 683.034 97.8632 745.228 98.5367 757.619L97.9996 757.653Z" fill="black"/>
<path opacity="0.3" d="M99.0541 656.101L98.5179 656.122L99.598 685.059L100.134 685.039L99.0541 656.101Z" fill="black"/>
<path opacity="0.3" d="M75.4526 759.668L75.2438 760.166L83.3485 763.604L83.5574 763.107L75.4526 759.668Z" fill="black"/>
<path opacity="0.3" d="M54.1939 723.999L53.991 724.499L68.1297 730.296L68.3326 729.797L54.1939 723.999Z" fill="black"/>
<path opacity="0.3" d="M73.116 691.026L72.6931 691.359L82.1465 703.495L82.5693 703.163L73.116 691.026Z" fill="black"/>
<path opacity="0.3" d="M102.558 698.745L97.6918 716.137L98.2084 716.283L103.075 698.891L102.558 698.745Z" fill="black"/>
<path opacity="0.3" d="M115.608 689.183L113.633 703.763L114.165 703.836L116.14 689.257L115.608 689.183Z" fill="black"/>
<path opacity="0.3" d="M127.207 722.118L126.687 721.981C128.034 716.716 130.046 708.733 130.097 708.347H130.643C130.643 708.621 128.239 718.054 127.233 722.067" fill="black"/>
<path opacity="0.3" d="M126.957 745.22L114.911 752.405L115.185 752.868L127.231 745.683L126.957 745.22Z" fill="black"/>
</g>
</g>
<path d="M108.486 835.814H88.8785C87.5076 835.814 86.1513 835.54 84.8853 835.017C83.6194 834.485 82.4685 833.714 81.5001 832.745C80.5308 831.767 79.7627 830.609 79.2375 829.34C78.7132 828.063 78.4438 826.699 78.4438 825.319V789.621H118.963V825.319C118.963 826.699 118.693 828.063 118.168 829.34C117.643 830.609 116.874 831.767 115.904 832.745C114.934 833.722 113.783 834.494 112.516 835.017C111.249 835.549 109.891 835.814 108.52 835.814" fill="#868A91"/>
<path d="M98.9354 835.814H108.483C109.854 835.814 111.212 835.549 112.479 835.017C113.746 834.494 114.898 833.722 115.867 832.745C116.837 831.767 117.606 830.609 118.131 829.34C118.656 828.063 118.927 826.699 118.927 825.319V794.003L78.5095 794.517L78.4072 796.232H108.117V826.022C108.117 826.022 110.282 835.797 98.9354 835.797" fill="#606266"/>
<path d="M119.9 794.526H76.8915C76.5761 794.526 76.2752 794.397 76.0527 794.174C75.831 793.951 75.7065 793.643 75.7065 793.325V790.83C75.7065 790.513 75.831 790.213 76.0527 789.981C76.2752 789.758 76.5761 789.63 76.8915 789.63H119.9C120.215 789.63 120.517 789.758 120.738 789.981C120.961 790.213 121.085 790.513 121.085 790.83V793.325C121.085 793.643 120.961 793.951 120.738 794.174C120.517 794.397 120.215 794.526 119.9 794.526Z" fill="#868A91"/>
<path d="M121.085 793.317V790.821C121.08 790.659 121.042 790.496 120.975 790.35C120.908 790.204 120.812 790.067 120.693 789.955C120.574 789.844 120.435 789.758 120.283 789.698C120.131 789.638 119.969 789.612 119.806 789.621H111.281V794.526H119.806C119.969 794.534 120.131 794.509 120.283 794.449C120.435 794.389 120.574 794.303 120.693 794.191C120.812 794.08 120.908 793.943 120.975 793.797C121.042 793.651 121.08 793.488 121.085 793.325" fill="#606266"/>
<g opacity="0.1">
<g opacity="0.1">
<g opacity="0.1">
<g opacity="0.1">
<path opacity="0.1" d="M727.263 258.846H680.879V302.519H727.263V258.846Z" fill="black"/>
</g>
</g>
</g>
</g>
<path d="M973.934 192.586H613.624V432.926H973.934V192.586Z" fill="#B2B6BB"/>
<path d="M979.313 192.586H973.934V432.926H979.313V192.586Z" fill="#DADDDF"/>
<path opacity="0.3" d="M979.313 192.586H973.934V432.926H979.313V192.586Z" fill="black"/>
<path d="M964.931 202.114H623.924V424.378H964.931V202.114Z" fill="#DADDDF"/>
<path opacity="0.3" d="M630.514 202.114H623.924V424.378H630.514V202.114Z" fill="black"/>
<path d="M645.074 332.883H813.213V215.663H645.074V332.883Z" fill="white"/>
<path d="M749.982 283.86H802.923V224.581H749.982V283.86Z" fill="#3AAFA9"/>
<path opacity="0.6" d="M749.982 283.86H802.923V224.581H749.982V283.86Z" fill="white"/>
<path d="M653.999 229.502H744.509V224.58H653.999V229.502Z" fill="#3AAFA9"/>
<path d="M653.999 239.783H744.509V234.861H653.999V239.783Z" fill="#3AAFA9"/>
<path d="M669.174 250.066H744.509V245.144H669.174V250.066Z" fill="#3AAFA9"/>
<path d="M653.999 260.337H744.509V255.415H653.999V260.337Z" fill="#3AAFA9"/>
<path d="M653.999 280.875H744.509V275.953H653.999V280.875Z" fill="#3AAFA9"/>
<path d="M743.75 297.442H802.922V292.778H743.75V297.442Z" fill="#3AAFA9"/>
<path d="M743.75 307.406H802.922V302.741H743.75V307.406Z" fill="#3AAFA9"/>
<path d="M743.75 317.489H802.922V312.824H743.75V317.489Z" fill="#3AAFA9"/>
<path d="M653.999 270.627H699.966V265.705H653.999V270.627Z" fill="#3AAFA9"/>
<path d="M705.857 270.627H744.51V265.705H705.857V270.627Z" fill="#3AAFA9"/>
<path d="M731.347 292.776H654.008V326.184H731.347V292.776Z" fill="#3AAFA9"/>
<path opacity="0.6" d="M731.347 292.776H654.008V326.184H731.347V292.776Z" fill="white"/>
<path opacity="0.6" d="M653.999 229.502H744.509V224.58H653.999V229.502Z" fill="white"/>
<path opacity="0.6" d="M653.999 239.783H744.509V234.861H653.999V239.783Z" fill="white"/>
<path opacity="0.6" d="M669.174 250.066H744.509V245.144H669.174V250.066Z" fill="white"/>
<path opacity="0.6" d="M653.999 260.337H744.509V255.415H653.999V260.337Z" fill="white"/>
<path opacity="0.6" d="M653.999 280.875H744.509V275.953H653.999V280.875Z" fill="white"/>
<path opacity="0.6" d="M743.75 297.442H802.922V292.778H743.75V297.442Z" fill="white"/>
<path opacity="0.6" d="M743.75 307.406H802.922V302.741H743.75V307.406Z" fill="white"/>
<path opacity="0.6" d="M743.75 317.489H802.922V312.824H743.75V317.489Z" fill="white"/>
<path opacity="0.6" d="M653.999 270.627H699.966V265.705H653.999V270.627Z" fill="white"/>
<path opacity="0.6" d="M705.857 270.627H744.51V265.705H705.857V270.627Z" fill="white"/>
<path d="M765.046 249.559C766.137 249.019 767.168 248.461 768.243 247.998C769.342 247.5 770.536 247.224 771.746 247.183C772.838 247.121 773.92 247.397 774.841 247.974C775.77 248.55 776.503 249.4 776.938 250.408C777.867 252.341 778.345 254.466 778.319 256.616C778.37 259.917 778.225 263.219 778.174 266.511C778.174 269.436 778.089 272.36 779.078 275.172C779.265 275.904 779.649 276.573 780.169 277.113C780.698 277.654 781.354 278.049 782.079 278.259C782.513 278.372 782.965 278.43 783.417 278.431C788.677 278.431 793.945 278.431 799.214 278.431C799.453 278.461 799.691 278.434 799.921 278.354C800.143 278.273 800.348 278.141 800.51 277.966C800.68 277.792 800.799 277.581 800.876 277.35C800.944 277.12 800.961 276.876 800.919 276.639C800.893 273.191 800.399 269.762 799.444 266.451C798.796 264.051 797.424 261.915 795.505 260.346C794.653 259.711 793.715 259.208 792.718 258.854C790.646 258.28 788.626 257.56 786.657 256.702C785.514 256.188 784.525 255.391 783.775 254.386C783.494 253.952 783.315 253.462 783.238 252.949C783.161 252.437 783.204 251.916 783.349 251.42C783.4 251.284 783.477 251.163 783.588 251.068C785.992 248.48 787.356 245.089 787.415 241.55C787.501 240.117 787.432 238.678 787.194 237.262C786.946 236.148 786.452 235.104 785.753 234.204C785.062 233.304 784.176 232.571 783.161 232.057C781.371 230.985 779.376 230.306 777.313 230.064C775.242 229.822 773.153 230.021 771.167 230.651C770.229 230.875 769.359 231.327 768.643 231.97C767.919 232.611 767.364 233.421 767.032 234.33C766.827 235.022 766.734 235.743 766.759 236.465C766.87 238.368 766.231 240.239 764.994 241.678C764.261 242.536 763.613 243.393 762.94 244.251C762.727 244.506 762.556 244.796 762.437 245.108C762.326 245.418 762.292 245.749 762.326 246.075C762.36 246.401 762.48 246.714 762.659 246.991C762.838 247.266 763.076 247.496 763.358 247.664C763.639 247.831 763.954 247.93 764.278 247.955C764.807 248.024 765.011 248.178 764.969 248.701C764.969 248.988 764.995 249.276 765.046 249.559Z" fill="white"/>
<path d="M777.356 278.439C776.222 276.632 775.54 274.57 775.387 272.437C775.225 270.578 775.156 268.712 775.182 266.846C775.182 264.359 775.429 261.881 775.387 259.394C775.318 257.462 775.139 255.536 774.858 253.623C774.739 252.945 774.509 252.291 774.185 251.685C773.963 251.181 773.579 250.766 773.102 250.506C772.616 250.247 772.062 250.157 771.525 250.253C770.238 250.441 768.993 250.872 767.868 251.523C767.245 251.84 766.649 252.217 766.001 252.586C766.384 253.203 766.887 253.735 767.484 254.149C768.081 254.563 768.754 254.851 769.462 254.995C769.513 255.574 769.385 256.155 769.087 256.654C768.788 257.153 768.345 257.545 767.816 257.774C766.657 258.234 765.421 258.454 764.176 258.417C762.795 258.416 761.44 258.724 760.195 259.317C758.95 259.911 757.859 260.775 756.99 261.847C755.813 263.343 754.944 265.056 754.432 266.889C753.605 269.765 753.102 272.724 752.932 275.713C752.932 276.013 752.881 276.321 752.864 276.63C752.821 276.864 752.829 277.105 752.889 277.334C752.957 277.563 753.068 277.774 753.23 277.95C753.392 278.126 753.588 278.263 753.81 278.349C754.023 278.436 754.262 278.469 754.5 278.448C756.069 278.448 757.638 278.448 759.206 278.448H777.373L777.356 278.439Z" fill="white"/>
<path d="M681.108 322.439C681.925 322.312 682.76 322.368 683.554 322.602C686.717 323.382 689.974 322.825 693.068 322.019C696.768 320.749 700.331 322.876 704.074 322.67C707.119 322.765 709.941 320.655 709.787 317.431C709.762 315.67 709.378 313.935 708.662 312.329C706.104 305.992 708.236 300.83 709.31 294.578H694.875C695.178 298.46 695.263 302.357 695.131 306.249C695.003 309.173 688.806 310.965 686.649 312.68C685.382 313.698 683.859 314.346 682.25 314.55C681.041 314.731 679.881 315.156 678.84 315.802C678.675 315.879 678.489 315.898 678.311 315.853C677.875 315.768 677.426 315.772 676.991 315.864C676.555 315.958 676.143 316.137 675.779 316.392C675.414 316.649 675.103 316.976 674.866 317.354C674.629 317.733 674.47 318.155 674.398 318.597C673.853 322.353 678.2 323.433 681.108 322.439ZM700.067 311.926C701.67 313.555 702.821 310.622 704.116 311.926C705.506 314.498 700.041 315.467 698.618 313.641C698.487 313.552 698.377 313.435 698.294 313.3C698.211 313.165 698.157 313.014 698.136 312.856C698.115 312.699 698.127 312.539 698.171 312.386C698.215 312.234 698.291 312.093 698.394 311.971C698.496 311.85 698.622 311.753 698.764 311.684C698.907 311.615 699.063 311.578 699.221 311.573C699.378 311.569 699.535 311.598 699.681 311.659C699.827 311.719 699.959 311.81 700.067 311.926Z" fill="white"/>
<path d="M840.5 396.311H951.01V260.037H840.5V396.311Z" fill="white"/>
<path d="M862.938 328.183H930.414V268.998H862.938V328.183Z" fill="#3AAFA9"/>
<path opacity="0.6" d="M862.938 328.183H930.414V268.998H862.938V328.183Z" fill="white"/>
<path d="M876.689 302.671L875.982 303.04C875.581 303.231 875.223 303.521 874.959 303.883C874.694 304.245 874.515 304.668 874.456 305.114C874.387 305.56 874.43 306.015 874.584 306.438C874.737 306.863 874.993 307.242 875.325 307.542C875.504 307.687 875.641 307.875 875.717 308.089C875.803 308.303 875.82 308.534 875.786 308.76C875.752 309.704 875.786 310.65 875.888 311.589C875.914 311.659 875.956 311.72 876.016 311.768C876.067 311.816 876.135 311.849 876.203 311.864C877.533 311.795 878.872 311.701 880.176 311.615C880.321 310.475 880.679 309.995 881.429 309.849C881.779 309.798 882.137 309.866 882.444 310.041C882.759 310.216 882.998 310.489 883.134 310.818L883.705 310.62L884.328 310.389C884.276 310.21 884.251 310.02 884.268 309.832C884.285 309.645 884.336 309.462 884.421 309.295C884.507 309.128 884.626 308.978 884.771 308.857C884.916 308.737 885.078 308.645 885.257 308.588C885.564 308.488 885.896 308.49 886.203 308.596C886.51 308.701 886.783 308.903 886.962 309.171C887.448 309.077 887.576 308.777 887.542 308.314C887.507 307.851 887.542 307.208 887.542 306.685C886.689 306.599 885.896 306.556 885.103 306.436C884.907 306.42 884.72 306.363 884.549 306.268C884.37 306.173 884.225 306.042 884.106 305.885C883.987 305.728 883.901 305.547 883.859 305.354C883.808 305.161 883.808 304.961 883.842 304.766C883.884 304.573 883.961 304.388 884.072 304.226C884.183 304.064 884.328 303.928 884.498 303.827C884.669 303.725 884.856 303.661 885.052 303.637C885.248 303.614 885.444 303.633 885.632 303.692C886.774 303.848 887.925 303.796 889.042 303.538C890.585 303.28 892.128 302.937 893.68 302.834C894.899 302.677 896.135 302.916 897.209 303.518C898.283 304.12 899.144 305.053 899.647 306.179C900.806 308.528 903.006 309.609 905.776 309.06C909.084 308.556 912.196 307.183 914.804 305.081C918.751 301.763 920.457 297.578 919.766 292.519C919.459 289.903 918.632 287.376 917.345 285.084C915.776 282.351 913.423 280.158 910.593 278.79C907.371 277.247 903.867 276.371 900.295 276.218C896.331 275.901 892.341 276.19 888.462 277.075C884.711 277.822 881.25 279.637 878.497 282.306C876.357 284.458 875.104 287.342 874.984 290.384C874.89 292.229 875.129 294.076 875.683 295.837C875.734 295.941 875.76 296.054 875.769 296.169C875.777 296.284 875.76 296.399 875.717 296.507C875.675 296.615 875.615 296.714 875.538 296.798C875.462 296.882 875.359 296.949 875.257 296.995C874.984 297.172 874.694 297.344 874.404 297.509C874.2 297.593 874.021 297.726 873.884 297.897C873.748 298.067 873.654 298.268 873.603 298.484C873.561 298.7 873.569 298.923 873.637 299.134C873.697 299.346 873.808 299.539 873.961 299.696C874.686 300.596 875.487 301.411 876.272 302.311C876.399 302.442 876.544 302.562 876.689 302.671ZM880.474 294.277C880.849 294.066 881.276 293.967 881.702 293.989C882.137 294.012 882.546 294.157 882.895 294.405C883.484 294.758 884.012 295.197 884.464 295.709C885.01 296.246 885.436 296.892 885.717 297.605C885.998 298.319 886.135 299.084 886.101 299.85C886.084 300.216 885.973 300.57 885.777 300.879C885.589 301.19 885.317 301.444 885.001 301.622C884.686 301.799 884.328 301.89 883.961 301.889C883.594 301.889 883.236 301.795 882.921 301.617C881.983 301.18 881.165 300.515 880.551 299.68C879.929 298.846 879.528 297.87 879.383 296.84C879.358 295.46 879.707 294.688 880.474 294.277Z" fill="white"/>
<path d="M881.08 314.326L876.434 314.763C876.485 315.441 876.536 316.144 876.587 316.847C876.638 317.522 876.834 318.177 877.167 318.764C877.499 319.352 877.96 319.857 878.514 320.243C879.068 320.629 879.699 320.887 880.364 320.996C881.029 321.106 881.702 321.065 882.35 320.877C884.805 320.243 887.226 319.479 889.664 318.793C890.849 318.459 892.06 318.193 893.245 317.85C894.217 317.615 895.078 317.071 895.717 316.297C896.348 315.524 896.723 314.564 896.766 313.563C896.911 312.002 897.175 310.45 897.328 308.889C897.354 308.478 897.269 308.066 897.09 307.697C896.834 306.987 896.322 306.395 895.666 306.027C895.01 305.659 894.242 305.54 893.509 305.691C892.657 305.768 891.753 305.948 890.875 306.06C890.534 306.06 890.466 306.265 890.474 306.565C890.474 307.526 890.474 308.495 890.474 309.455C890.5 309.768 890.432 310.082 890.278 310.356C890.125 310.631 889.903 310.855 889.622 310.999C889.136 311.265 888.667 311.548 888.19 311.813C888.335 312.859 888.19 313.357 887.482 313.683C887.192 313.846 886.851 313.899 886.527 313.831C886.203 313.763 885.913 313.58 885.709 313.314C885.683 313.258 885.641 313.21 885.59 313.171C885.538 313.132 885.479 313.104 885.419 313.088C885.359 313.071 885.3 313.068 885.24 313.077C885.172 313.087 885.112 313.109 885.061 313.142C884.728 313.28 884.379 313.383 883.97 313.528C884.081 313.803 884.106 314.102 884.046 314.391C883.987 314.68 883.85 314.947 883.646 315.158C883.424 315.349 883.16 315.484 882.879 315.552C882.043 315.706 881.557 315.346 881.08 314.326Z" fill="white"/>
<path d="M851.072 343.284H940.448V338.266H851.072V343.284Z" fill="#3AAFA9"/>
<path d="M851.072 353.669H940.448V348.652H851.072V353.669Z" fill="#3AAFA9"/>
<path d="M851.072 364.044H940.448V359.027H851.072V364.044Z" fill="#3AAFA9"/>
<path d="M851.072 374.419H940.448V369.403H851.072V374.419Z" fill="#3AAFA9"/>
<path d="M851.072 384.803H940.448V379.786H851.072V384.803Z" fill="#3AAFA9"/>
<path opacity="0.6" d="M851.072 343.284H940.448V338.266H851.072V343.284Z" fill="white"/>
<path opacity="0.6" d="M851.072 353.669H940.448V348.652H851.072V353.669Z" fill="white"/>
<path opacity="0.6" d="M851.072 364.044H940.448V359.027H851.072V364.044Z" fill="white"/>
<path opacity="0.6" d="M851.072 374.419H940.448V369.403H851.072V374.419Z" fill="white"/>
<path opacity="0.6" d="M851.072 384.803H940.448V379.786H851.072V384.803Z" fill="white"/>
<path d="M741.704 346.534H674.67V413.96H741.704V346.534Z" fill="#F4F4F4"/>
<path d="M713.035 359.276H703.35V401.233H713.035V359.276Z" fill="#3AAFA9"/>
<path d="M729.045 385.12V375.379H687.332V385.12H729.045Z" fill="#3AAFA9"/>
<g opacity="0.2">
<path opacity="0.2" d="M713.035 359.276H703.35V401.233H713.035V359.276Z" fill="white"/>
<path opacity="0.2" d="M729.045 385.12V375.379H687.332V385.12H729.045Z" fill="white"/>
</g>
<path d="M411.549 824.65L458.138 825.842L439.511 812.533C438.002 811.461 436.764 810.055 435.897 808.417C435.031 806.779 434.561 804.953 434.524 803.101L433.672 788.24L408.378 788.326L411.549 824.65Z" fill="#FC9D9D"/>
<path opacity="0.15" d="M416.663 807.508V807.234C416.574 806.462 416.793 805.682 417.272 805.065C417.751 804.456 418.452 804.053 419.221 803.958L434.361 801.763L434.182 798.848H409.05L411.318 823.646L431.625 821.374L424.915 818.724C422.66 817.781 420.701 816.238 419.247 814.265C417.794 812.285 416.901 809.952 416.663 807.508Z" fill="black"/>
<path d="M327.654 822.978H348.591L352.487 787.331L327.765 787.417L327.654 822.978Z" fill="#FC9D9D"/>
<path opacity="0.15" d="M332.913 816.958L333.45 806.016C333.504 805.33 333.785 804.679 334.248 804.164C334.711 803.65 335.33 803.315 336.007 803.195L351.054 800.914L351.421 797.904L327.849 797.999L327.764 823.252L332.913 816.958Z" fill="black"/>
<path d="M474.865 832.402V831.398C474.865 829.803 474.236 828.277 473.117 827.154C471.998 826.03 470.48 825.396 468.898 825.396H460.56C458.799 825.413 457.103 824.727 455.846 823.484L434.568 803.101L427.952 811.856C427.434 812.542 426.769 813.091 426.008 813.485C425.246 813.871 424.407 814.085 423.553 814.102C422.7 814.12 421.853 813.94 421.077 813.579C420.3 813.228 419.614 812.696 419.069 812.036C418.533 811.393 417.869 810.878 417.119 810.518C416.37 810.149 415.552 809.952 414.721 809.935H410.28V832.007L474.865 832.402Z" fill="#3F4249"/>
<path d="M474.863 832.402V835.686H410.073V832.041L474.863 832.402Z" fill="black"/>
<path d="M430.302 808.606L444.709 820.371C445.48 820.997 446.451 821.306 447.438 821.263C448.425 821.211 449.359 820.791 450.063 820.096L451.146 818.999L434.565 803.101C434.132 802.981 433.673 802.998 433.251 803.152C432.829 803.307 432.466 803.59 432.212 803.958L430.507 806.419C430.285 806.702 430.143 807.028 430.095 807.388C430.046 807.74 430.095 808.1 430.234 808.426L430.302 808.606Z" fill="black"/>
<path d="M345.907 806.839H347.612C348.396 806.831 349.156 807.114 349.743 807.637C350.329 808.16 350.7 808.88 350.783 809.669L351.15 816.229C351.253 818.261 351.779 820.251 352.693 822.069L353.323 823.252C354.47 825.542 355.055 828.071 355.028 830.635V831.827H321.849C321.859 828.569 322.84 825.396 324.662 822.703C326.031 820.697 326.887 818.381 327.152 815.963L327.876 809.403C328.03 808.675 328.429 808.014 329.007 807.551C329.585 807.08 330.306 806.822 331.048 806.831H332.233" fill="#3F4249"/>
<path d="M322.036 831.733H355.121V834.923H322.036V831.733Z" fill="black"/>
<path d="M341.523 803.83H336.63C336.045 803.83 335.467 803.95 334.933 804.19C334.4 804.43 333.925 804.782 333.538 805.227C333.151 805.665 332.863 806.188 332.691 806.745C332.521 807.311 332.471 807.903 332.546 808.486L333.637 817.421C333.816 818.75 334.463 819.968 335.463 820.851C336.462 821.743 337.745 822.24 339.076 822.249C340.43 822.257 341.74 821.76 342.746 820.851C343.752 819.942 344.383 818.682 344.515 817.327L345.513 808.392C345.595 807.817 345.554 807.234 345.391 806.685C345.227 806.128 344.946 805.613 344.566 805.185C344.187 804.747 343.718 804.404 343.193 804.173C342.667 803.933 342.098 803.821 341.523 803.83Z" fill="black"/>
<path d="M347.868 809.755H330.281" stroke="white" stroke-width="1.4" stroke-linecap="round" stroke-linejoin="round"/>
<path d="M347.32 813.957H330.824" stroke="white" stroke-width="1.4" stroke-linecap="round" stroke-linejoin="round"/>
<path d="M346.869 818.056H331.277" stroke="white" stroke-width="1.4" stroke-linecap="round" stroke-linejoin="round"/>
<path d="M446.766 812.799L440.33 818.905" stroke="white" stroke-width="1.4" stroke-linecap="round" stroke-linejoin="round"/>
<path d="M443.322 809.609L436.707 815.903" stroke="white" stroke-width="1.4" stroke-linecap="round" stroke-linejoin="round"/>
<path d="M439.782 806.599L433.26 812.799" stroke="white" stroke-width="1.4" stroke-linecap="round" stroke-linejoin="round"/>
<path d="M426.04 508.824L435.417 798.393H408.18L383.022 560.96C382.947 560.226 382.606 559.545 382.063 559.049C381.52 558.552 380.814 558.273 380.081 558.267C379.329 558.24 378.595 558.504 378.03 559.005C377.466 559.506 377.114 560.205 377.046 560.96L353.407 798.393H326.195V507.203L426.04 508.824Z" fill="#3AAFA9"/>
<path d="M325.573 792.476H355.01L354.481 798.393H325.496L325.573 792.476Z" fill="#3AAFA9"/>
<path opacity="0.2" d="M325.574 792.476H337.885L337.62 798.393H325.489L325.574 792.476Z" fill="black"/>
<path opacity="0.2" d="M408.002 797.098L383.024 561.002C382.948 560.268 382.607 559.588 382.064 559.091C381.522 558.594 380.816 558.316 380.083 558.309H383.493C386.967 558.339 390.312 559.639 392.905 561.967C395.497 564.293 397.161 567.489 397.584 570.958L424.012 795.212L408.002 797.098Z" fill="black"/>
<path d="M406.842 792.476H435.93L436.289 798.393H407.473L406.842 792.476Z" fill="#3AAFA9"/>
<path opacity="0.2" d="M406.842 792.476H423.62L424.421 798.393H407.473L406.842 792.476Z" fill="black"/>
<path opacity="0.2" d="M348.675 509.364L337.883 792.339L326.195 792.253V509.278L348.675 509.364Z" fill="black"/>
<path d="M398.99 395.934L330.662 415.048L324.234 468.976L323.927 577.938H378.564L381.13 556.801L383.312 577.938H430.481L428.444 458.163L398.99 395.934Z" fill="white"/>
<path d="M428.259 446.818L428.446 458.163L431.916 465.477L428.259 446.818Z" fill="white"/>
<path d="M435.572 441.433L346.273 424.386L345.651 406.79L346.98 442.865H354.031V467.184L327.893 470.502C325.736 470.782 323.545 470.623 321.451 470.037C319.355 469.452 317.398 468.45 315.694 467.092C313.99 465.734 312.573 464.045 311.528 462.127C310.482 460.21 309.829 458.1 309.607 455.925L303.179 390.24C302.71 385.542 303.877 380.826 306.482 376.897C309.086 372.968 312.966 370.071 317.458 368.7C350.552 358.564 352.786 358.744 352.786 358.744L388.591 358.564L423.543 364.841C426.975 365.367 430.188 366.862 432.808 369.153C435.427 371.443 437.347 374.436 438.343 377.781L459.289 449.811C462.946 462.022 451.881 473.769 439.57 470.631L436.024 469.533L435.572 441.433Z" fill="white"/>
<path d="M361.541 410.665C360.233 404.855 359.217 398.983 358.497 393.069L359.827 392.889C360.541 398.761 361.549 404.594 362.845 410.365L361.541 410.665Z" fill="#3F4249"/>
<path d="M356.903 410.684C356.988 411.695 357.368 412.658 357.997 413.452C358.624 414.247 359.472 414.837 360.432 415.147C361.392 415.458 362.422 415.477 363.393 415.2C364.364 414.924 365.232 414.365 365.887 413.594C366.543 412.822 366.957 411.874 367.078 410.866C367.199 409.859 367.021 408.838 366.566 407.932C366.112 407.026 365.401 406.275 364.523 405.775C363.646 405.274 362.641 405.046 361.634 405.119C360.959 405.167 360.3 405.35 359.695 405.657C359.09 405.964 358.553 406.389 358.113 406.907C357.673 407.424 357.339 408.025 357.131 408.673C356.923 409.321 356.846 410.005 356.903 410.684Z" fill="#3AAFA9"/>
<path d="M358.948 410.519C358.993 411.136 359.22 411.724 359.599 412.211C359.978 412.697 360.492 413.06 361.076 413.252C361.659 413.445 362.287 413.459 362.878 413.292C363.471 413.126 363.999 412.786 364.399 412.317C364.799 411.847 365.051 411.27 365.124 410.656C365.196 410.042 365.086 409.42 364.807 408.869C364.529 408.319 364.093 407.864 363.557 407.563C363.021 407.261 362.408 407.126 361.795 407.175C360.978 407.243 360.221 407.632 359.688 408.259C359.154 408.885 358.889 409.697 358.948 410.519Z" fill="white"/>
<path opacity="0.1" d="M377.345 410.503C377.345 410.503 384.54 477.174 381.13 558.328" stroke="black" stroke-width="0.89" stroke-miterlimit="10"/>
<path d="M353.101 358.694L348.54 359.706L377.346 408.978L391.677 359.165L382.649 357.167" fill="#21252B"/>
<path d="M342.616 421.779C343.682 421.959 347.254 421.959 348.498 422.945L350.468 424.377L354.568 425.192L353.494 443.045L340.203 444.571L338.78 421.513L342.616 421.779Z" fill="#FC9D9D"/>
<path opacity="0.1" d="M411.838 436.767L411.395 399.037C411.396 398.873 411.457 398.713 411.566 398.59C411.674 398.465 411.823 398.386 411.986 398.363C412.149 398.342 412.314 398.38 412.452 398.471C412.589 398.561 412.689 398.699 412.733 398.857L424.148 439.246L411.838 436.767Z" fill="black"/>
<path d="M387.755 316.606C387.755 316.606 356.442 296.883 355.36 321.005L354.916 327.29L352.785 358.915C352.803 359.488 352.962 360.046 353.251 360.541C353.538 361.035 353.944 361.449 354.43 361.745L371.608 373.492C371.876 373.645 372.184 373.709 372.49 373.678C372.796 373.645 373.083 373.517 373.313 373.312L386.689 361.736C387.15 361.367 387.507 360.883 387.727 360.333C387.946 359.783 388.021 359.185 387.942 358.598L385.888 339.844C386.297 337.989 386.505 336.094 386.51 334.193C386.825 324.958 387.755 316.606 387.755 316.606Z" fill="#FC9D9D"/>
<path d="M401.047 307.278C401.049 305.163 400.427 303.097 399.26 301.338C398.094 299.58 396.435 298.209 394.494 297.4C392.552 296.59 390.416 296.378 388.354 296.789C386.293 297.202 384.4 298.219 382.914 299.714C381.428 301.209 380.416 303.113 380.007 305.187C379.597 307.26 379.808 309.409 380.613 311.361C381.418 313.315 382.781 314.983 384.529 316.157C386.277 317.33 388.331 317.956 390.434 317.954C391.828 317.958 393.21 317.685 394.5 317.15C395.79 316.615 396.962 315.829 397.948 314.837C398.935 313.845 399.716 312.666 400.248 311.368C400.78 310.071 401.052 308.681 401.047 307.278Z" fill="#21252B"/>
<path d="M391.235 299.473C391.235 299.473 402.317 346.31 378.447 349.457C357.748 352.235 355.43 319.839 355.43 319.839L356.282 298.839L391.235 299.473Z" fill="#FC9D9D"/>
<path d="M389.809 302.322L368.659 303.848C368.027 303.887 367.41 304.055 366.845 304.34C366.279 304.627 365.777 305.024 365.369 305.512C364.961 305.998 364.655 306.563 364.47 307.172C364.286 307.78 364.226 308.42 364.294 309.053C364.352 309.685 364.285 310.321 364.095 310.927C363.907 311.532 363.599 312.094 363.192 312.578C362.785 313.063 362.286 313.461 361.724 313.75C361.163 314.038 360.55 314.211 359.921 314.258C359.741 314.261 359.564 314.301 359.401 314.376C359.238 314.452 359.093 314.562 358.974 314.697C358.856 314.833 358.768 314.992 358.715 315.165C358.662 315.338 358.645 315.519 358.667 315.699L358.94 320.363C358.958 320.617 358.88 320.869 358.722 321.067C358.564 321.266 358.337 321.397 358.088 321.435C357.644 321.435 357.022 321.084 357.022 320.629L356.17 316.23L355.274 314.798L350.168 317.954C350.168 317.954 342.052 305.486 345.974 294.175C348.207 287.718 354.499 285.386 357.661 284.932C358.142 284.889 358.606 284.727 359.011 284.46C359.415 284.194 359.748 283.831 359.98 283.405C361.233 281.347 364.175 277.668 370.867 277.934C372.737 277.948 374.574 278.432 376.212 279.341C377.849 280.25 379.235 281.556 380.244 283.139C380.646 283.807 381.277 284.304 382.018 284.536C382.76 284.769 383.56 284.72 384.268 284.4C385.676 283.76 387.221 283.482 388.762 283.591C390.304 283.701 391.795 284.193 393.1 285.026C399.886 289.245 397.124 301.173 389.809 302.322Z" fill="#21252B"/>
<path opacity="0.15" d="M354.747 328.723C354.747 328.723 356.801 328.817 357.867 327.917L354.457 333.122L354.747 328.723Z" fill="black"/>
<path d="M355.904 316.162C355.709 315.567 355.385 315.025 354.955 314.573C354.525 314.121 354.001 313.77 353.42 313.547C352.839 313.323 352.216 313.233 351.596 313.282C350.976 313.331 350.374 313.517 349.835 313.829C344.66 316.162 345.649 328.098 354.481 328.724C359.118 329.084 358.223 326.392 357.422 322.799L355.904 316.162Z" fill="#FC9D9D"/>
<path opacity="0.15" d="M349.478 317.062C350.204 316.538 351.1 316.311 351.985 316.428C352.409 316.533 352.809 316.723 353.16 316.985C353.512 317.247 353.807 317.576 354.031 317.954C354.567 318.984 354.872 320.119 354.926 321.281L355.105 322.353C355.105 322.713 354.926 322.979 354.653 322.979C354.38 322.979 354.031 322.799 354.031 322.533L353.852 321.453C353.818 320.503 353.543 319.579 353.05 318.769C352.607 318.134 352.249 317.688 351.806 317.688C351.507 317.62 351.196 317.624 350.899 317.701C350.603 317.779 350.329 317.927 350.101 318.134C349.743 318.228 349.47 318.228 349.299 317.954C349.214 317.422 349.316 317.148 349.478 317.062Z" fill="black"/>
<path opacity="0.15" d="M387.48 353.222L386.679 345.685C384.633 347.751 378.921 350.71 372.493 349.278C369.27 348.368 366.366 346.564 364.113 344.072C364.073 344.03 364.024 343.995 363.97 343.972C363.916 343.948 363.858 343.936 363.798 343.936C363.739 343.936 363.681 343.948 363.627 343.972C363.572 343.995 363.523 344.03 363.482 344.072C363.401 344.157 363.355 344.269 363.355 344.385C363.355 344.503 363.401 344.615 363.482 344.698C366.36 347.936 370.288 350.036 374.565 350.624C378.359 353.176 383.003 354.11 387.48 353.222Z" fill="black"/>
<g opacity="0.15">
<path opacity="0.15" d="M380.169 340.05C379.184 340.071 378.201 340.161 377.228 340.316C377.063 340.316 376.904 340.25 376.788 340.133C376.672 340.016 376.606 339.856 376.606 339.69C376.606 339.524 376.672 339.365 376.788 339.247C376.904 339.13 377.063 339.064 377.228 339.064C378.153 339.032 379.077 338.94 379.99 338.789C380.075 338.781 380.16 338.79 380.24 338.819C380.32 338.846 380.393 338.892 380.453 338.952C380.514 339.012 380.561 339.084 380.59 339.165C380.619 339.245 380.629 339.33 380.621 339.415C380.8 339.493 380.442 339.853 380.169 340.05Z" fill="black"/>
</g>
<g opacity="0.15">
<path opacity="0.15" d="M381.147 337.161C375.887 337.967 373.568 335.189 372.767 333.731C372.726 333.667 372.698 333.594 372.685 333.518C372.672 333.443 372.674 333.366 372.691 333.291C372.724 333.139 372.816 333.008 372.946 332.925C373.076 332.842 373.234 332.814 373.384 332.848C373.534 332.882 373.665 332.975 373.747 333.105C374.548 334.537 377.157 337.504 383.38 335.437C383.45 335.401 383.527 335.378 383.605 335.372C383.684 335.365 383.762 335.375 383.837 335.4C383.912 335.425 383.981 335.464 384.04 335.516C384.099 335.569 384.147 335.632 384.181 335.703C384.218 335.774 384.24 335.852 384.247 335.931C384.254 336.01 384.245 336.091 384.22 336.166C384.195 336.243 384.156 336.312 384.104 336.373C384.052 336.433 383.989 336.483 383.917 336.518C383.012 336.804 382.086 337.02 381.147 337.161Z" fill="black"/>
</g>
<path d="M377.313 321.366C377.313 320.992 377.203 320.627 376.996 320.316C376.79 320.006 376.497 319.764 376.153 319.622C375.81 319.479 375.433 319.442 375.068 319.516C374.704 319.589 374.37 319.77 374.108 320.035C373.846 320.299 373.668 320.636 373.597 321.003C373.526 321.369 373.564 321.749 373.707 322.094C373.851 322.438 374.092 322.732 374.401 322.939C374.712 323.144 375.075 323.254 375.446 323.252C375.693 323.257 375.938 323.211 376.168 323.118C376.397 323.024 376.605 322.885 376.78 322.71C376.954 322.533 377.091 322.324 377.183 322.092C377.274 321.861 377.319 321.614 377.313 321.366Z" fill="black"/>
<path d="M376.689 320.739C376.708 320.673 376.711 320.603 376.699 320.535C376.686 320.467 376.658 320.404 376.617 320.348C376.576 320.293 376.522 320.249 376.461 320.218C376.399 320.187 376.331 320.171 376.263 320.171C376.194 320.171 376.127 320.187 376.065 320.218C376.004 320.249 375.95 320.293 375.909 320.348C375.868 320.404 375.839 320.467 375.827 320.535C375.815 320.603 375.818 320.673 375.837 320.739C375.818 320.806 375.815 320.875 375.827 320.943C375.839 321.011 375.868 321.075 375.909 321.13C375.95 321.185 376.004 321.23 376.065 321.26C376.127 321.291 376.194 321.308 376.263 321.308C376.331 321.308 376.399 321.291 376.461 321.26C376.522 321.23 376.576 321.185 376.617 321.13C376.658 321.075 376.686 321.011 376.699 320.943C376.711 320.875 376.708 320.806 376.689 320.739Z" fill="white"/>
<path d="M392.035 321.366C392.035 320.993 391.925 320.628 391.719 320.317C391.513 320.008 391.22 319.766 390.878 319.623C390.535 319.48 390.157 319.442 389.794 319.515C389.43 319.588 389.096 319.767 388.833 320.032C388.572 320.296 388.393 320.632 388.32 320.998C388.248 321.363 388.285 321.743 388.427 322.088C388.569 322.433 388.81 322.727 389.118 322.934C389.426 323.142 389.789 323.252 390.16 323.252C390.408 323.258 390.654 323.213 390.885 323.12C391.115 323.028 391.324 322.889 391.499 322.713C391.675 322.536 391.812 322.326 391.904 322.095C391.997 321.863 392.041 321.615 392.035 321.366Z" fill="black"/>
<path d="M391.411 320.739C391.38 320.651 391.322 320.573 391.246 320.519C391.17 320.465 391.079 320.435 390.985 320.435C390.891 320.435 390.8 320.465 390.724 320.519C390.647 320.573 390.589 320.651 390.559 320.739C390.589 320.828 390.647 320.904 390.724 320.959C390.8 321.013 390.891 321.043 390.985 321.043C391.079 321.043 391.17 321.013 391.246 320.959C391.322 320.904 391.38 320.828 391.411 320.739Z" fill="white"/>
<g opacity="0.15">
<path opacity="0.15" d="M382.667 332.402L380.169 332.582C379.811 332.582 379.546 332.402 379.546 332.136C379.546 331.87 379.725 331.51 379.99 331.51L382.488 331.33C382.639 331.319 382.788 331.278 382.925 331.208C383.061 331.14 383.182 331.044 383.282 330.928C383.382 330.811 383.458 330.677 383.506 330.531C383.554 330.385 383.573 330.231 383.562 330.078C383.551 329.925 383.51 329.775 383.441 329.638C383.372 329.501 383.277 329.378 383.162 329.278C383.046 329.178 382.912 329.101 382.767 329.053C382.622 329.005 382.47 328.986 382.317 328.998C381.959 328.998 381.686 328.818 381.686 328.543C381.686 328.269 381.865 327.917 382.138 327.917C382.737 327.877 383.33 328.069 383.794 328.452C384.258 328.836 384.559 329.384 384.636 329.984C384.68 330.275 384.663 330.573 384.586 330.857C384.509 331.141 384.373 331.406 384.187 331.634C384.002 331.862 383.77 332.049 383.508 332.181C383.246 332.313 382.959 332.388 382.667 332.402Z" fill="black"/>
</g>
<path d="M394.627 316.434H368.395C367.663 316.437 366.962 316.73 366.444 317.251C365.927 317.771 365.635 318.477 365.633 319.213V321.365C365.633 323.364 366.423 325.281 367.828 326.695C369.233 328.108 371.139 328.902 373.127 328.902C375.114 328.902 377.02 328.108 378.425 326.695C379.831 325.281 380.62 323.364 380.62 321.365V319.213C380.634 318.899 380.585 318.586 380.477 318.291C380.369 317.997 380.203 317.727 379.989 317.498H382.939C382.549 317.985 382.33 318.587 382.317 319.213V321.365C382.317 323.364 383.106 325.281 384.511 326.695C385.917 328.108 387.822 328.902 389.81 328.902C391.797 328.902 393.704 328.108 395.108 326.695C396.514 325.281 397.304 323.364 397.304 321.365V319.213C397.342 318.846 397.299 318.475 397.18 318.126C397.06 317.777 396.866 317.459 396.611 317.194C396.356 316.929 396.045 316.724 395.703 316.593C395.36 316.461 394.993 316.407 394.627 316.434ZM379.64 319.118V321.279C379.579 322.952 378.876 324.536 377.677 325.698C376.48 326.86 374.88 327.51 373.216 327.51C371.551 327.51 369.952 326.86 368.754 325.698C367.557 324.536 366.853 322.952 366.793 321.279V319.118C366.803 318.667 366.986 318.237 367.303 317.918C367.621 317.599 368.048 317.414 368.498 317.403H377.875C378.311 317.467 378.716 317.667 379.033 317.974C379.349 318.282 379.561 318.683 379.64 319.118ZM396.494 321.365C396.525 322.234 396.382 323.099 396.074 323.911C395.765 324.722 395.297 325.463 394.697 326.088C394.097 326.714 393.379 327.211 392.583 327.551C391.789 327.891 390.934 328.066 390.07 328.066C389.206 328.066 388.351 327.891 387.556 327.551C386.761 327.211 386.042 326.714 385.443 326.088C384.843 325.463 384.375 324.722 384.066 323.911C383.757 323.099 383.615 322.234 383.647 321.365V319.213C383.659 318.762 383.843 318.334 384.16 318.015C384.477 317.696 384.903 317.51 385.352 317.498H394.814C395.263 317.509 395.69 317.693 396.008 318.012C396.325 318.331 396.508 318.762 396.519 319.213L396.494 321.365Z" fill="black"/>
<path d="M401.762 431.742L415.948 420.072C417.437 418.861 419.293 418.199 421.208 418.194H433.876C434.105 418.171 434.337 418.194 434.557 418.263C434.777 418.333 434.982 418.446 435.157 418.597C435.332 418.747 435.475 418.932 435.578 419.141C435.68 419.348 435.739 419.575 435.752 419.806V419.986C435.745 420.429 435.579 420.855 435.284 421.184C434.989 421.514 434.586 421.725 434.149 421.778L421.481 422.499L436.732 424.565C437.016 424.617 437.284 424.735 437.513 424.912C437.742 425.089 437.925 425.319 438.047 425.582C438.17 425.845 438.227 426.134 438.214 426.424C438.203 426.715 438.121 426.998 437.977 427.249C437.824 427.515 437.604 427.735 437.338 427.885C437.073 428.036 436.772 428.113 436.468 428.107H436.374L432.717 427.841C432.929 427.851 433.138 427.903 433.33 427.995C433.521 428.088 433.694 428.217 433.834 428.377C433.976 428.537 434.084 428.723 434.153 428.926C434.221 429.129 434.25 429.343 434.234 429.556C434.186 429.976 433.985 430.364 433.671 430.643C433.356 430.923 432.949 431.077 432.529 431.074L422.632 431.348L428.693 433.234C428.979 433.361 429.217 433.577 429.371 433.85C429.525 434.125 429.586 434.441 429.545 434.752C429.502 435.055 429.351 435.331 429.121 435.53C428.89 435.728 428.596 435.836 428.292 435.833L420.713 435.112C420.713 435.112 418.838 445.522 406.17 445.342L403.024 446.997L398.301 432.548L401.762 431.742Z" fill="#FC9D9D"/>
<path d="M338.958 426.177L340.117 444.665L400.329 431.923L406.041 448.524L331.021 481.452C328.924 482.379 326.641 482.793 324.354 482.661C322.069 482.528 319.846 481.853 317.87 480.689C315.894 479.527 314.22 477.909 312.985 475.97C311.75 474.031 310.99 471.825 310.765 469.533L307.543 436.09L338.958 426.177Z" fill="white"/>
<path opacity="0.1" d="M333.868 446.279H334.047L347.074 443.046L338.685 402.126C338.662 402.004 338.595 401.895 338.497 401.82C338.398 401.745 338.275 401.711 338.152 401.723C338.029 401.734 337.915 401.792 337.833 401.884C337.75 401.976 337.704 402.096 337.705 402.22L339.938 439.822L333.604 444.967C332.888 445.524 333.331 446.279 333.868 446.279Z" fill="black"/>
<path opacity="0.1" d="M433.158 439.64V441.072L354.481 425.097L354.651 424.111L433.158 439.64Z" fill="black"/>
<path opacity="0.1" d="M431.821 467.991L431.915 468.985L390.143 456.063L391.66 455.077L431.821 467.991Z" fill="black"/>
<path opacity="0.15" d="M422.102 426.084L432.861 427.25V428.108L421.974 426.941L422.102 426.084Z" fill="black"/>
<path d="M354.481 425.098L435.469 441.519L437.617 470.237L351.71 442.239L353.415 443.045L354.481 425.098Z" fill="white"/>
<path opacity="0.1" d="M343.682 361L343.255 378.501L350.075 377.738L345.532 383.835L378.106 410.503L345.907 360.339L343.682 361Z" fill="black"/>
<path opacity="0.1" d="M346.895 443.046L379.366 460.368L391.676 455.068L353.408 443.063L353.493 441.717L346.895 443.046Z" fill="black"/>
<path opacity="0.1" d="M303.179 390.368L307.647 436.09L310.852 469.472C311.058 471.58 311.718 473.618 312.786 475.443C313.854 477.268 315.305 478.837 317.038 480.041C318.77 481.245 320.743 482.055 322.818 482.414C324.893 482.773 327.02 482.673 329.053 482.121C326.204 481.353 323.654 479.732 321.741 477.474C319.829 475.215 318.645 472.424 318.345 469.472L313.23 428.818L308.772 383.148C308.427 379.455 309.072 375.736 310.639 372.378C307.987 374.499 305.912 377.261 304.607 380.407C303.303 383.553 302.812 386.98 303.179 390.368Z" fill="black"/>
<path opacity="0.1" d="M323.927 577.854H342.614L342.844 490.337C342.939 488.421 343.501 486.559 344.48 484.914C345.461 483.269 346.828 481.892 348.462 480.905L391.675 455.068L340.79 477.054L329.017 482.079C327.415 482.397 325.789 482.578 324.157 482.62L323.927 577.854Z" fill="black"/>
<path d="M395.581 396.594C395.223 415.458 396.979 419.592 398.94 421.272C400.388 422.425 402.08 423.228 403.884 423.622L404.131 422.318L404.004 422.97L404.131 422.318C402.55 421.972 401.068 421.271 399.792 420.269C398.377 419.051 396.536 415.278 396.894 396.619L395.581 396.594Z" fill="#B2B6BB"/>
<path d="M402.141 421.927L401.9 422.812C401.763 423.32 402.06 423.843 402.563 423.982L405.129 424.687C405.633 424.826 406.154 424.527 406.291 424.02L406.532 423.135C406.67 422.628 406.373 422.105 405.869 421.966L403.303 421.26C402.8 421.121 402.279 421.421 402.141 421.927Z" fill="#3AAFA9"/>
<path d="M407.183 394.227C413.9 406.721 416.509 413.829 415.392 416.573C414.714 418.052 413.719 419.362 412.477 420.406L413.287 421.444C414.713 420.265 415.85 418.771 416.611 417.079C417.941 413.804 415.546 407.004 408.333 393.601L407.183 394.227Z" fill="#B2B6BB"/>
<path d="M410.669 422.278L411.287 422.953C411.641 423.34 412.239 423.365 412.624 423.01L414.581 421.198C414.966 420.842 414.991 420.24 414.637 419.853L414.02 419.177C413.666 418.791 413.067 418.766 412.683 419.122L410.725 420.933C410.341 421.289 410.315 421.891 410.669 422.278Z" fill="#3AAFA9"/>
<path d="M408.64 392.932C407.344 390.121 405.878 387.392 404.25 384.76C403.389 383.631 402.241 382.757 400.925 382.23C400.67 382.23 400.235 379.992 399.919 378.123C399.647 376.468 399.357 374.547 398.845 374.118C398.564 373.934 398.222 373.865 397.892 373.928C397.561 373.99 397.268 374.178 397.072 374.453C396.748 375.044 397.183 376.94 397.515 378.577C397.899 380.43 398.317 382.71 398.061 382.771C397.109 383.784 396.412 385.014 396.032 386.355C395.484 389.471 395.17 392.624 395.094 395.787C395.094 397.785 395.819 397.871 396.399 397.923C397.251 398 397.592 397.357 397.686 395.11C397.831 391.551 397.686 385.677 399.988 385.112C402.332 384.786 404.685 390.497 406.219 393.626C407.183 395.582 407.66 395.676 408.41 395.341C408.939 395.059 409.45 394.681 408.64 392.932Z" fill="#3AAFA9"/>
<path d="M396.535 367.609L395.314 367.992L397.207 374.107L398.429 373.725L396.535 367.609Z" fill="#3F4249"/>
<path d="M345.046 360.632L344.773 376.976H351.585L347.041 383.073L377.348 408.978L348.559 359.457L345.046 360.632Z" fill="white"/>
<path opacity="0.1" d="M396.254 359.378L400.499 374.667L394.412 375.508L399.706 379.864L377.345 410.502L394.182 359.292L396.254 359.378Z" fill="black"/>
<path d="M394.992 359.354L398.846 373.666L392.929 375.175L398.223 379.531L377.661 408.995L391.685 359.097L394.992 359.354Z" fill="white"/>
<path opacity="0.1" d="M423.551 525.366L408.778 530.134L394.012 525.366V492.798H423.551V525.366Z" fill="black"/>
<path d="M422.033 524.037L408.776 528.607L395.52 524.037V492.798H422.033V524.037Z" fill="white"/>
<path d="M610.326 816.298L568.255 826.399L582.568 810.621C584.981 807.971 587.436 804.567 586.831 801.026L586.029 787.88L609.107 783.035L610.326 816.298Z" fill="#FC9D9D"/>
<path opacity="0.15" d="M605.158 801.789L605.107 801.54C605.077 801.18 604.976 800.82 604.809 800.494C604.642 800.177 604.412 799.885 604.135 799.654C603.857 799.414 603.534 799.242 603.188 799.131C602.841 799.019 602.476 798.985 602.115 799.019L586.847 800.237L586.438 797.51L609.012 792.682L610.299 815.363L591.425 817.258L596.991 813.511C600.802 810.913 605.781 806.342 605.158 801.789Z" fill="black"/>
<path d="M611.664 808.16L615.167 824.736C615.308 825.37 615.322 826.022 615.208 826.665C615.093 827.299 614.853 827.908 614.501 828.457C614.15 828.997 613.693 829.469 613.159 829.829C612.624 830.198 612.023 830.447 611.391 830.575L587.922 835.6H553.822C553.556 835.66 553.28 835.669 553.012 835.617C552.743 835.566 552.487 835.471 552.258 835.317C552.03 835.171 551.833 834.974 551.679 834.751C551.527 834.52 551.42 834.262 551.366 833.997C550.959 832.067 551.164 830.052 551.954 828.243C552.743 826.442 554.076 824.924 555.765 823.921L572.031 821.168L582.457 808.049C583.131 807.243 584.062 806.702 585.09 806.514C586.119 806.325 587.18 806.505 588.092 807.02L596.54 811.676C597.158 811.993 597.842 812.156 598.535 812.156C599.228 812.156 599.912 811.993 600.53 811.676L608.936 806.891C609.19 806.737 609.477 806.651 609.773 806.634C610.068 806.625 610.363 806.677 610.631 806.805C610.9 806.925 611.134 807.114 611.314 807.354C611.494 807.594 611.613 807.869 611.664 808.16Z" fill="#3F4249"/>
<path opacity="0.5" d="M611.39 830.541L587.725 835.6H553.821C553.555 835.66 553.28 835.669 553.011 835.617C552.743 835.566 552.487 835.471 552.258 835.317C552.029 835.171 551.832 834.974 551.68 834.751C551.526 834.52 551.42 834.262 551.366 833.997C551.213 833.311 551.15 832.607 551.178 831.904L585.483 831.818L615.244 825.456C615.334 826.631 614.991 827.797 614.281 828.74C613.57 829.675 612.541 830.318 611.39 830.541Z" fill="black"/>
<path d="M584.179 814.634C584.243 814.617 584.301 814.591 584.352 814.548C584.402 814.506 584.442 814.454 584.468 814.394C584.526 814.274 584.541 814.137 584.514 814.008C584.485 813.871 584.416 813.751 584.315 813.665L580.129 810.715C580.018 810.673 579.895 810.664 579.78 810.707C579.665 810.741 579.567 810.81 579.499 810.913C579.432 811.016 579.399 811.136 579.409 811.256C579.418 811.376 579.468 811.487 579.549 811.573L583.735 814.523C583.866 814.608 584.023 814.651 584.179 814.634Z" fill="white"/>
<path d="M581.947 817.327C582.009 817.31 582.067 817.284 582.117 817.241C582.168 817.207 582.208 817.155 582.237 817.095C582.294 816.975 582.31 816.838 582.283 816.701C582.255 816.572 582.185 816.443 582.083 816.358L577.897 813.417C577.775 813.357 577.637 813.339 577.505 813.374C577.373 813.399 577.253 813.468 577.164 813.571C577.107 813.691 577.092 813.828 577.121 813.965C577.151 814.094 577.222 814.214 577.326 814.3L581.512 817.25C581.642 817.327 581.798 817.361 581.947 817.327Z" fill="white"/>
<path d="M579.626 819.993C579.689 819.976 579.748 819.951 579.799 819.916C579.85 819.873 579.89 819.822 579.916 819.762C579.974 819.642 579.99 819.496 579.962 819.368C579.935 819.23 579.865 819.11 579.763 819.024L575.577 816.083C575.455 816.023 575.317 816.006 575.185 816.04C575.053 816.066 574.933 816.135 574.844 816.238C574.786 816.358 574.77 816.504 574.799 816.632C574.829 816.769 574.902 816.889 575.006 816.975L579.191 819.916C579.322 819.994 579.477 820.028 579.626 819.993Z" fill="white"/>
<path d="M578.459 535.955L563.933 662.719L583.557 796.995H612.61L602.406 662.719L625.176 577.424L622.039 533.194L578.459 535.955Z" fill="#3AAFA9"/>
<path d="M664.095 821.194L620.848 822.283L638.111 809.841C641.018 807.748 642.058 804.498 642.22 800.906L641.367 787.297L664.939 787.383L664.095 821.194Z" fill="#FC9D9D"/>
<path opacity="0.15" d="M659.276 805.33V805.082C659.322 804.722 659.296 804.353 659.2 804.001C659.103 803.65 658.937 803.315 658.713 803.032C658.488 802.741 658.209 802.501 657.891 802.329C657.574 802.149 657.225 802.037 656.863 801.995L641.723 799.988L641.885 797.236H664.962L664.297 820.277L645.457 818.184L651.68 815.68C653.77 814.823 655.586 813.408 656.926 811.581C658.266 809.755 659.08 807.594 659.276 805.33Z" fill="black"/>
<path opacity="0.2" d="M614.169 820.011C614.169 820.011 599.251 824.144 600.453 832.873L616.147 828.826L614.169 820.011Z" fill="black"/>
<path d="M667.078 813.511V830.464C667.084 831.115 666.961 831.75 666.717 832.35C666.473 832.95 666.113 833.499 665.657 833.954C665.202 834.417 664.66 834.777 664.064 835.026C663.467 835.266 662.829 835.394 662.184 835.386H604.82C604.547 835.386 604.277 835.334 604.024 835.231C603.772 835.128 603.543 834.974 603.35 834.777C603.157 834.588 603.005 834.357 602.902 834.1C602.798 833.851 602.746 833.576 602.748 833.302C602.75 831.33 603.368 829.4 604.514 827.797C605.662 826.193 607.281 824.993 609.142 824.367L622.091 820.079L638.527 807.311C639.352 806.668 640.373 806.334 641.417 806.359C642.46 806.394 643.461 806.78 644.248 807.474L651.554 813.734C652.089 814.18 652.723 814.488 653.403 814.643C654.082 814.789 654.787 814.771 655.458 814.591L664.674 811.667C664.957 811.573 665.259 811.539 665.554 811.59C665.85 811.642 666.129 811.762 666.367 811.942C666.605 812.122 666.794 812.362 666.918 812.636C667.042 812.911 667.097 813.211 667.078 813.511Z" fill="#3F4249"/>
<path opacity="0.5" d="M662.184 835.386H604.82C604.547 835.386 604.277 835.334 604.024 835.231C603.772 835.128 603.543 834.974 603.35 834.777C603.157 834.588 603.005 834.357 602.902 834.099C602.798 833.851 602.746 833.576 602.748 833.302C602.746 832.599 602.828 831.896 602.995 831.21H666.992C666.842 832.376 666.269 833.448 665.381 834.22C664.495 834.991 663.357 835.403 662.184 835.386Z" fill="black"/>
<path d="M638.859 814.094C638.922 814.094 638.986 814.077 639.043 814.051C639.101 814.017 639.151 813.983 639.191 813.931C639.27 813.82 639.313 813.691 639.313 813.554C639.313 813.417 639.27 813.288 639.191 813.176L635.704 809.421C635.595 809.343 635.464 809.301 635.329 809.301C635.194 809.301 635.063 809.343 634.954 809.421C634.871 809.532 634.826 809.661 634.826 809.798C634.826 809.935 634.871 810.064 634.954 810.175L638.441 813.931C638.555 814.034 638.704 814.094 638.859 814.094Z" fill="white"/>
<path d="M636.113 816.272C636.178 816.272 636.241 816.255 636.299 816.221C636.357 816.195 636.407 816.152 636.445 816.101C636.529 815.989 636.573 815.86 636.573 815.723C636.573 815.586 636.529 815.457 636.445 815.346L632.958 811.59C632.851 811.513 632.721 811.47 632.588 811.47C632.455 811.47 632.324 811.513 632.217 811.59C632.134 811.702 632.089 811.83 632.089 811.967C632.089 812.105 632.134 812.233 632.217 812.345L635.704 816.101C635.814 816.203 635.96 816.272 636.113 816.272Z" fill="white"/>
<path d="M633.302 818.399C633.365 818.399 633.427 818.381 633.483 818.356C633.54 818.321 633.588 818.279 633.626 818.227C633.708 818.116 633.754 817.987 633.754 817.85C633.754 817.713 633.708 817.584 633.626 817.473L630.148 813.717C630.039 813.64 629.907 813.597 629.773 813.597C629.638 813.597 629.507 813.64 629.397 813.717C629.314 813.828 629.27 813.957 629.27 814.094C629.27 814.231 629.314 814.36 629.397 814.471L632.884 818.227C632.997 818.339 633.146 818.399 633.302 818.399Z" fill="white"/>
<path opacity="0.2" d="M617.972 576.043L592.201 663.508L602.874 796.987H613.394L602.551 664.589L624.417 580.511L623.471 576.172C623.335 575.549 622.996 574.989 622.506 574.584C622.016 574.178 621.406 573.949 620.772 573.935C620.138 573.92 619.517 574.12 619.01 574.502C618.502 574.885 618.137 575.428 617.972 576.043Z" fill="black"/>
<path d="M667.444 530.639V796.995H639.311L614.043 533.451L667.444 530.639Z" fill="#3AAFA9"/>
<path opacity="0.2" d="M577.419 545.601L667.443 537.464L667.682 532.447L578.135 538.956L577.419 545.601Z" fill="black"/>
<path d="M631.664 376.812L600.25 376.066L570.514 385.498C567.727 386.2 565.223 387.752 563.347 389.941C561.472 392.13 560.315 394.849 560.037 397.726L554.709 448.713L577.087 451.474L575.314 539.119L669.541 533.589L672.882 446.707L686.233 444.34L675.031 393.327C674.397 390.451 672.911 387.836 670.77 385.826C668.629 383.817 665.932 382.506 663.036 382.068L631.664 376.812Z" fill="#3AAFA9"/>
<path d="M601.556 366.162C600.302 367 598.784 367.345 597.293 367.131C590.362 366.668 585.102 366.23 583.9 359.319C582.127 348.437 582.195 323.981 589.535 309.327C595.733 311.83 596.782 313.134 596.782 313.134C596.782 313.134 605.307 309.609 605.477 309.498C605.443 309.404 612.809 357.132 601.556 366.162Z" fill="#21252B"/>
<path d="M622.389 357.064L621.801 298.205C624.708 297.459 629.781 300.915 631.315 302.355C643.583 314.026 648.732 340.042 648.808 357.732C648.894 364.592 644.64 365.904 638.118 367.834C631.596 369.763 623.907 371.152 620.727 368.083C619.175 366.453 622.389 357.064 622.389 357.064Z" fill="#21252B"/>
<path d="M630.809 376.759L627.399 341.653L601.739 352.801L600.443 376.588L611.927 394.724C612.117 395.024 612.374 395.275 612.678 395.456C612.982 395.638 613.325 395.744 613.678 395.768C614.03 395.792 614.384 395.731 614.709 395.591C615.035 395.451 615.322 395.237 615.55 394.964L630.809 376.759Z" fill="#FC9D9D"/>
<path opacity="0.15" d="M601.219 361.05L601.628 355.288L611.236 357.277L611.15 357.38C613.712 357.025 616.186 356.196 618.448 354.936C618.602 354.849 618.784 354.826 618.954 354.874C619.125 354.921 619.269 355.035 619.356 355.189C619.443 355.344 619.466 355.527 619.418 355.698C619.371 355.87 619.258 356.015 619.104 356.102C616.542 357.549 613.714 358.456 610.792 358.769C610.426 358.769 610.051 358.829 609.667 358.838C606.172 361.487 601.219 361.05 601.219 361.05Z" fill="black"/>
<path d="M607.313 468.601L605.142 467.341L591.779 490.622L593.95 491.882L607.313 468.601Z" fill="#21252B"/>
<path d="M609.568 357.287H610.872C620.523 357.141 628.451 348.3 628.212 338.422L627.735 313.357C627.706 311.784 627.064 310.286 625.948 309.184C624.832 308.082 623.331 307.466 621.767 307.466L598.912 307.74C597.91 307.759 596.923 307.978 596.005 308.384C595.089 308.791 594.262 309.376 593.572 310.108C592.883 310.838 592.345 311.7 591.99 312.642C591.635 313.584 591.469 314.588 591.503 315.595L591.955 338.945C592.219 348.712 599.517 357.724 609.568 357.287Z" fill="#FC9D9D"/>
<path d="M610.69 344.784L610.153 345.848C609.801 346.473 609.302 347.003 608.7 347.389C608.097 347.776 607.409 348.008 606.697 348.066C605.985 348.123 605.268 348.005 604.612 347.719C603.956 347.434 603.379 346.991 602.933 346.431L602.08 345.332C601.91 345.092 602.003 344.767 602.293 344.776L610.332 344.312C610.605 344.226 610.801 344.553 610.69 344.784Z" fill="white"/>
<path d="M611.739 335.377C611.36 335.448 610.968 335.403 610.613 335.249C610.258 335.094 609.957 334.838 609.747 334.511C609.538 334.185 609.429 333.804 609.435 333.415C609.441 333.027 609.562 332.649 609.782 332.329C610.002 332.009 610.31 331.763 610.67 331.62C611.029 331.477 611.422 331.445 611.8 331.527C612.177 331.609 612.523 331.802 612.791 332.081C613.06 332.361 613.24 332.714 613.308 333.096C613.398 333.608 613.283 334.134 612.99 334.561C612.696 334.988 612.247 335.281 611.739 335.377Z" fill="#21252B"/>
<path d="M610.607 333.998C610.559 334.006 610.511 334.006 610.463 333.996C610.415 333.986 610.371 333.967 610.331 333.939C610.291 333.912 610.257 333.877 610.23 333.836C610.204 333.795 610.185 333.749 610.177 333.702C610.167 333.654 610.168 333.605 610.177 333.557C610.188 333.509 610.207 333.464 610.235 333.424C610.262 333.384 610.297 333.349 610.337 333.323C610.378 333.296 610.423 333.277 610.471 333.269C610.518 333.259 610.569 333.259 610.616 333.269C610.665 333.278 610.71 333.298 610.751 333.325C610.792 333.354 610.826 333.39 610.853 333.432C610.879 333.473 610.897 333.52 610.905 333.569C610.92 333.665 610.898 333.764 610.841 333.843C610.786 333.923 610.702 333.979 610.607 333.998Z" fill="white"/>
<path d="M596.821 335.764C596.442 335.832 596.053 335.786 595.701 335.632C595.348 335.478 595.049 335.221 594.841 334.896C594.633 334.571 594.527 334.191 594.534 333.805C594.54 333.418 594.661 333.042 594.88 332.724C595.1 332.407 595.407 332.162 595.765 332.02C596.123 331.879 596.514 331.847 596.89 331.929C597.265 332.011 597.608 332.203 597.875 332.482C598.142 332.759 598.321 333.111 598.389 333.492C598.436 333.745 598.433 334.004 598.379 334.256C598.325 334.507 598.222 334.745 598.077 334.956C597.931 335.168 597.744 335.348 597.529 335.486C597.314 335.625 597.073 335.72 596.821 335.764Z" fill="#21252B"/>
<path d="M595.577 334.279C595.53 334.288 595.48 334.287 595.433 334.276C595.386 334.266 595.341 334.246 595.302 334.218C595.262 334.191 595.229 334.155 595.202 334.114C595.177 334.073 595.159 334.027 595.151 333.979C595.138 333.908 595.148 333.833 595.177 333.767C595.207 333.7 595.254 333.644 595.316 333.605C595.377 333.566 595.448 333.546 595.52 333.548C595.593 333.549 595.663 333.572 595.722 333.614C595.781 333.656 595.827 333.715 595.853 333.783C595.88 333.85 595.886 333.924 595.87 333.995C595.854 334.066 595.819 334.132 595.767 334.182C595.714 334.233 595.648 334.266 595.577 334.279Z" fill="white"/>
<g opacity="0.15">
<path opacity="0.15" d="M604.957 341.568L607.514 341.336C607.804 341.336 608.094 341.027 608 340.762C607.906 340.496 607.693 340.179 607.429 340.273L604.871 340.504C604.721 340.52 604.571 340.505 604.427 340.462C604.283 340.419 604.149 340.347 604.033 340.251C603.917 340.155 603.819 340.038 603.749 339.905C603.678 339.772 603.633 339.626 603.618 339.475C603.603 339.325 603.617 339.174 603.661 339.029C603.704 338.885 603.775 338.749 603.87 338.633C603.965 338.515 604.082 338.418 604.214 338.347C604.346 338.275 604.491 338.23 604.641 338.215C604.94 338.215 605.221 337.906 605.127 337.64C605.033 337.375 604.82 337.057 604.565 337.152C603.964 337.221 603.413 337.523 603.029 337.994C602.646 338.464 602.46 339.066 602.51 339.673C602.547 339.959 602.639 340.235 602.782 340.486C602.925 340.735 603.115 340.955 603.343 341.13C603.57 341.306 603.83 341.436 604.106 341.511C604.383 341.586 604.672 341.605 604.957 341.568Z" fill="black"/>
</g>
<path d="M611.247 481.067L599.465 474.747L590.42 474.807L617.444 496.073L611.247 481.067Z" fill="#FC9D9D"/>
<path d="M586.909 319.317L585.895 319.412C591.214 292.778 619.006 290.325 631.418 302.442C638.903 309.782 642.986 322.507 642.986 322.507C641.222 327.549 635.493 331.94 633.865 335.455C633.174 337.025 630.77 330.225 629.483 329.453C629.287 329.384 627.948 331.005 627.028 332.128C626.909 332.296 626.745 332.424 626.554 332.5C626.364 332.575 626.157 332.594 625.957 332.553C625.757 332.512 625.572 332.414 625.427 332.27C625.281 332.126 625.179 331.943 625.135 331.742C624.399 328.536 624.212 325.227 624.581 321.958L624.965 319.017C618.588 317.568 599.253 312.003 594.974 311.008C593.917 310.734 593.149 312.397 592.962 313.443L590.856 329.059L588.017 321.367L586.909 319.317Z" fill="#21252B"/>
<path d="M625.704 341.766C625.704 341.766 633.991 343.79 637.051 335.763C640.112 327.737 630.129 324.522 627.265 332.659L624.707 341.62L625.704 341.766Z" fill="#FC9D9D"/>
<path opacity="0.15" d="M635.201 330.833C634.896 330.49 634.521 330.216 634.102 330.031C633.683 329.846 633.229 329.754 632.771 329.761C632.312 329.8 631.868 329.942 631.47 330.174C631.072 330.407 630.73 330.725 630.469 331.107C629.738 332.02 629.235 333.096 629.003 334.245L628.798 335.103C628.679 335.772 629.736 336.14 629.941 335.369L630.137 334.417C630.333 333.487 630.726 332.609 631.288 331.844C631.468 331.609 631.694 331.411 631.953 331.265C632.21 331.117 632.494 331.023 632.788 330.987C633.416 331.034 634.006 331.312 634.442 331.767C634.547 331.857 634.68 331.906 634.817 331.906C634.954 331.906 635.087 331.857 635.192 331.767C635.301 331.637 635.361 331.472 635.363 331.302C635.364 331.132 635.307 330.966 635.201 330.833Z" fill="black"/>
<path d="M550.785 485.81L572.37 498.869L554.528 481.942L550.785 485.81Z" fill="#DADDDF"/>
<path d="M588.186 333.105C588.171 334.126 588.357 335.141 588.731 336.09C589.105 337.039 589.663 337.905 590.37 338.639C591.077 339.372 591.921 339.957 592.854 340.362C593.786 340.767 594.788 340.983 595.804 340.998C596.819 341.013 597.827 340.827 598.771 340.45C599.716 340.074 600.576 339.513 601.305 338.802C602.034 338.091 602.616 337.242 603.018 336.304C603.421 335.366 603.636 334.358 603.651 333.337C603.676 331.913 603.319 330.509 602.619 329.272C603.866 328.832 605.216 328.784 606.49 329.135C606.172 329.931 606.013 330.781 606.021 331.639C605.998 333.176 606.428 334.687 607.258 335.979C608.088 337.271 609.28 338.286 610.684 338.897C612.087 339.507 613.64 339.685 615.143 339.409C616.648 339.132 618.037 338.412 619.135 337.341C620.233 336.271 620.99 334.896 621.311 333.392C621.633 331.889 621.504 330.323 620.94 328.893C620.378 327.463 619.405 326.233 618.148 325.358C616.889 324.485 615.402 324.005 613.872 323.981C612.449 323.988 611.054 324.382 609.834 325.119C608.614 325.858 607.615 326.913 606.941 328.175C605.362 327.692 603.664 327.779 602.142 328.423C601.439 327.498 600.537 326.746 599.503 326.221C598.47 325.697 597.332 325.415 596.174 325.396C594.111 325.394 592.127 326.196 590.637 327.633C589.149 329.07 588.27 331.031 588.186 333.105ZM607.078 331.682C607.095 330.341 607.507 329.035 608.263 327.93C609.018 326.826 610.082 325.971 611.321 325.474C612.559 324.979 613.916 324.863 615.219 325.143C616.523 325.424 617.714 326.086 618.644 327.049C619.572 328.01 620.196 329.228 620.437 330.546C620.677 331.865 620.523 333.226 619.994 334.457C619.465 335.688 618.584 336.733 617.464 337.46C616.345 338.187 615.035 338.563 613.702 338.542C611.923 338.506 610.229 337.765 608.988 336.48C607.749 335.197 607.062 333.472 607.078 331.682ZM589.312 333.028C589.329 331.687 589.741 330.382 590.497 329.276C591.252 328.172 592.316 327.317 593.555 326.82C594.792 326.325 596.15 326.209 597.453 326.49C598.757 326.77 599.948 327.433 600.878 328.395C601.806 329.356 602.43 330.574 602.67 331.893C602.911 333.211 602.757 334.572 602.228 335.804C601.699 337.034 600.818 338.079 599.698 338.806C598.578 339.533 597.269 339.909 595.936 339.888C595.051 339.882 594.176 339.699 593.362 339.35C592.548 339.001 591.811 338.493 591.194 337.854C590.578 337.216 590.094 336.46 589.77 335.631C589.447 334.803 589.291 333.918 589.312 333.028Z" fill="white"/>
<path d="M628.502 340.841C628.163 340.879 627.822 340.815 627.52 340.656C627.219 340.498 626.971 340.252 626.81 339.951C626.648 339.65 626.579 339.307 626.613 338.967C626.647 338.627 626.781 338.303 626.998 338.04C627.215 337.777 627.507 337.586 627.833 337.489C628.16 337.394 628.508 337.399 628.832 337.504C629.156 337.609 629.44 337.808 629.651 338.078C629.861 338.346 629.986 338.673 630.011 339.014C630.041 339.456 629.902 339.892 629.621 340.233C629.34 340.573 628.938 340.791 628.502 340.841Z" fill="#3AAFA9"/>
<path opacity="0.15" d="M627.631 340.453C628.106 340.53 628.592 340.414 628.983 340.132C629.375 339.849 629.639 339.422 629.719 338.945C629.783 338.602 629.751 338.248 629.625 337.924C629.816 338.109 629.962 338.336 630.052 338.588C630.14 338.839 630.169 339.108 630.137 339.373C630.113 339.596 630.042 339.812 629.931 340.006C629.819 340.201 629.667 340.369 629.486 340.501C629.306 340.633 629.099 340.725 628.881 340.771C628.663 340.817 628.437 340.817 628.219 340.771C627.885 340.725 627.579 340.553 627.366 340.291C627.349 340.48 627.443 340.47 627.631 340.453Z" fill="black"/>
<path opacity="0.15" d="M627.401 341.973L624.477 341.595L627.366 348.532L627.401 341.973Z" fill="black"/>
<path d="M592.944 313.786C608.289 309.156 607.53 327.704 623.429 323.502C638.331 319.549 623.207 305.28 623.207 305.28L609.636 304.517L591.818 308.11L592.944 313.786Z" fill="#21252B"/>
<path d="M627.4 341.972C627.4 341.972 626.088 357.741 618.952 369C618.952 369 630.086 370.561 638.304 367.817C645.883 365.313 627.4 341.972 627.4 341.972Z" fill="#21252B"/>
<path opacity="0.2" d="M672.693 469.533L652.855 415.382L650.297 416.145C649.804 416.293 649.381 416.616 649.108 417.055C648.835 417.494 648.731 418.018 648.814 418.529L658.021 474.455L657.518 534.275L669.513 533.417L672.693 469.533Z" fill="black"/>
<path d="M683.419 435.894L690.674 472.251C691.15 474.691 690.647 477.222 689.277 479.292C687.908 481.362 685.781 482.804 683.359 483.305L615.159 494.494L610.846 481.46L664.238 464.088L659.523 441.972L683.419 435.894Z" fill="#DADDDF"/>
<path d="M578.416 487.859L577.086 451.449L558.808 449.211L558.638 486.598" fill="#DADDDF"/>
<path opacity="0.15" d="M569.594 450.429L569.628 484.223L578.289 484.429L576.695 451.055L569.594 450.429Z" fill="black"/>
<path d="M650.111 415.906L657.963 450.661L687.016 444.341L678.832 410.632L650.111 415.906Z" fill="#3AAFA9"/>
<path d="M542.022 465.734L539.593 462.116H570.445L572.96 465.734H542.022Z" fill="#3AAFA9"/>
<path d="M630.164 504.759H579.832L531.154 464.482H581.554L630.164 504.759Z" fill="#3F4249"/>
<path opacity="0.3" d="M630.164 504.759H579.832L531.154 464.482H581.554L630.164 504.759Z" fill="black"/>
<path d="M630.088 504.759H628.52V505.943H630.088V504.759Z" fill="#3F4249"/>
<path opacity="0.3" d="M630.088 504.759H628.52V505.943H630.088V504.759Z" fill="black"/>
<path d="M530.369 465.665V464.482H532.492L532.722 466.06L530.369 465.665Z" fill="#3F4249"/>
<path opacity="0.3" d="M530.369 465.665V464.482H532.492L532.722 466.06L530.369 465.665Z" fill="black"/>
<path d="M630.162 505.943H581.331L530.292 465.666H581.476L630.162 505.943Z" fill="#3F4249"/>
<path opacity="0.2" d="M576.695 451.053V421.512C576.695 421.348 576.662 421.186 576.6 421.033C576.538 420.881 576.446 420.743 576.331 420.627C576.215 420.511 576.077 420.419 575.927 420.356C575.776 420.293 575.614 420.26 575.45 420.26C575.144 420.26 574.849 420.373 574.62 420.576C574.39 420.78 574.243 421.061 574.205 421.367L570.463 450.736L576.695 451.053Z" fill="black"/>
<path d="M534.564 470.186C534.564 470.186 535.545 482.191 549.227 485.93L554.53 481.942L542.765 469.937L534.564 470.186Z" fill="#FC9D9D"/>
<path opacity="0.15" d="M534.564 470.186C534.564 470.186 535.545 482.191 549.227 485.93L554.53 481.942L542.765 469.937L534.564 470.186Z" fill="black"/>
<path d="M543.557 469.876L535.253 470.159C534.784 470.173 534.332 470.349 533.975 470.657C533.739 470.857 533.55 471.108 533.422 471.39C533.295 471.672 533.231 471.98 533.236 472.29C533.241 472.6 533.314 472.906 533.451 473.184C533.588 473.462 533.784 473.706 534.026 473.898C534.502 474.277 535.051 474.549 535.64 474.697C536.227 474.845 536.84 474.865 537.436 474.756L546.396 473.041C546.604 472.993 546.794 472.887 546.945 472.735C547.096 472.583 547.201 472.392 547.248 472.183C547.291 471.978 547.275 471.765 547.205 471.569C547.134 471.372 547.01 471.199 546.847 471.068C545.924 470.295 544.759 469.873 543.557 469.876Z" fill="#FC9D9D"/>
<path d="M546.841 473.126L537.856 475.536C537.392 475.617 536.969 475.853 536.654 476.205C536.449 476.436 536.298 476.711 536.212 477.008C536.125 477.305 536.104 477.618 536.153 477.924C536.2 478.23 536.316 478.522 536.489 478.777C536.663 479.034 536.891 479.247 537.157 479.403C537.684 479.711 538.269 479.901 538.876 479.962C539.482 480.023 540.093 479.952 540.669 479.755L550.098 475.759C550.307 475.689 550.49 475.558 550.624 475.382C550.758 475.207 550.836 474.994 550.848 474.773C550.86 474.565 550.816 474.358 550.719 474.174C550.623 473.99 550.479 473.835 550.302 473.727C549.256 473.122 548.03 472.909 546.841 473.126Z" fill="#FC9D9D"/>
<path d="M550.507 475.939L541.845 479.369C541.394 479.506 541.001 479.789 540.728 480.175C540.55 480.428 540.43 480.717 540.377 481.022C540.324 481.327 540.339 481.64 540.42 481.939C540.502 482.237 540.648 482.514 540.849 482.749C541.05 482.984 541.3 483.171 541.581 483.296C542.135 483.55 542.737 483.681 543.346 483.681C543.954 483.681 544.556 483.55 545.11 483.296L554.027 478.254C554.225 478.159 554.391 478.008 554.505 477.818C554.619 477.63 554.675 477.412 554.667 477.191C554.657 476.982 554.59 476.78 554.472 476.607C554.356 476.435 554.192 476.298 554.002 476.213C552.906 475.706 551.667 475.609 550.507 475.939Z" fill="#FC9D9D"/>
<path d="M552.8 478.906L547.199 483.433C546.895 483.638 546.669 483.941 546.559 484.291C546.486 484.519 546.463 484.76 546.494 484.997C546.524 485.234 546.605 485.462 546.733 485.664C546.861 485.865 547.032 486.036 547.234 486.164C547.435 486.291 547.662 486.372 547.898 486.4C548.36 486.45 548.828 486.399 549.269 486.25C549.71 486.103 550.114 485.862 550.455 485.543L555.894 479.78C556.02 479.665 556.107 479.515 556.147 479.347C556.187 479.181 556.176 479.006 556.116 478.846C556.062 478.695 555.967 478.561 555.842 478.461C555.718 478.361 555.567 478.299 555.408 478.28C554.493 478.178 553.57 478.399 552.8 478.906Z" fill="#FC9D9D"/>
<path opacity="0.15" d="M615.168 494.494L683.368 483.304C685.789 482.804 687.916 481.362 689.286 479.292C690.656 477.222 691.158 474.691 690.682 472.251L689.131 464.482C689.131 464.482 690.555 476.324 678.782 479.488L614.443 492.282L615.168 494.494Z" fill="black"/>
<path opacity="0.2" d="M654.783 539.119L661.68 796.995H667.579V537.147L654.783 539.119Z" fill="black"/>
<path opacity="0.2" d="M595.935 377.206L611.083 401.456C611.325 401.841 611.654 402.161 612.043 402.392C612.432 402.623 612.87 402.757 613.321 402.783C613.772 402.809 614.223 402.726 614.636 402.542C615.049 402.358 615.412 402.076 615.695 401.722L635.192 377.206" stroke="black" stroke-width="0.92" stroke-miterlimit="10"/>
<path d="M557.104 320.508C561.049 316.103 563.252 310.394 563.293 304.465C563.293 290.024 550.122 278.311 533.882 278.311C517.642 278.311 504.471 290.024 504.471 304.465C504.471 318.905 517.642 330.618 533.882 330.618C539.5 330.642 545.026 329.185 549.909 326.391L560.736 331.476L557.104 320.508Z" fill="white" stroke="#DADDDF" stroke-miterlimit="10"/>
<path d="M548.545 299.501C547.761 295.993 544.445 292.975 540.873 293.327C539.822 293.472 538.813 293.832 537.904 294.381C536.996 294.931 536.208 295.66 535.587 296.525C535.131 297.1 534.718 297.707 534.351 298.343C533.987 297.706 533.574 297.098 533.115 296.525C532.496 295.66 531.71 294.93 530.803 294.379C529.896 293.827 528.887 293.466 527.838 293.318C524.275 292.958 520.95 295.976 520.165 299.483C519.381 302.991 520.685 306.721 522.834 309.593C525.672 313.605 529.867 316.437 534.632 317.559C538.631 316.633 543.703 312.483 545.851 309.61C548 306.738 549.338 303.016 548.545 299.501Z" fill="#3AAFA9"/>
<path d="M547.889 306.016H547.77H547.429H546.099H541.205L541.291 305.956C540.856 307.542 540.353 309.386 539.79 311.452L539.705 311.778L539.594 311.452L536.73 303.177C536.414 302.26 536.099 301.36 535.8 300.476H536.005C534.871 302.423 533.797 304.275 532.808 305.956V306.007H532.749L524.147 305.964H521.709H521.069H520.848C520.921 305.957 520.995 305.957 521.069 305.964H521.709H524.147L532.749 305.921L532.655 305.981L535.835 300.485L535.962 300.271L536.039 300.502C536.346 301.36 536.653 302.286 536.977 303.203L539.816 311.487H539.611C540.182 309.446 540.711 307.594 541.154 306.007V305.939H541.214L546.107 305.981H547.437H547.778L547.889 306.016Z" fill="#FAFAFA"/>
<path d="M1030.22 838.327H13.1909C12.8516 838.327 12.5259 838.19 12.2864 837.95C12.0468 837.71 11.9121 837.384 11.9121 837.041C11.9121 836.698 12.0468 836.372 12.2864 836.132C12.5259 835.892 12.8516 835.754 13.1909 835.754H1030.22C1030.57 835.754 1030.89 835.892 1031.13 836.132C1031.37 836.372 1031.5 836.698 1031.5 837.041C1031.5 837.384 1031.37 837.71 1031.13 837.95C1030.89 838.19 1030.57 838.327 1030.22 838.327Z" fill="#B2B6BB"/>
</svg>
