<svg width="87" height="79" viewBox="0 0 87 79" fill="none" xmlns="http://www.w3.org/2000/svg">
<g clip-path="url(#clip0)">
<path d="M23.7292 79H22.6498C15.7266 79 10.0941 73.8855 10.0941 67.5989C10.0941 61.3123 15.7266 56.1977 22.6498 56.1977H31.1717V48.8365H36.2849V56.1977H54.9195C59.8027 56.1977 63.8548 53.4508 65.0022 49.3624L69.957 50.509C68.2226 56.6888 62.1795 60.8407 54.9195 60.8407H36.2847V67.5989C36.2847 73.8855 30.6524 79 23.7292 79ZM22.6496 60.8407C18.5458 60.8407 15.2071 63.8724 15.2071 67.5989C15.2071 71.3253 18.5458 74.357 22.6496 74.357H23.729C27.8329 74.357 31.1716 71.3253 31.1716 67.5989V60.8407H22.6496Z" fill="#00BFA6"/>
<path d="M65.002 49.3624C63.8546 53.4507 59.8028 56.1977 54.9193 56.1977H36.2847V48.8365H33.6145V74.6152C35.2849 72.6789 36.2847 70.2435 36.2847 67.5987V60.8405H54.9193C62.1794 60.8405 68.2224 56.6886 69.9568 50.5088L65.002 49.3624Z" fill="#00BFA6"/>
<path d="M67.9864 49.9554C71.5006 49.9554 74.3494 47.3686 74.3494 44.1776C74.3494 40.9865 71.5006 38.3997 67.9864 38.3997C64.4722 38.3997 61.6234 40.9865 61.6234 44.1776C61.6234 47.3686 64.4722 49.9554 67.9864 49.9554Z" fill="#00BFA6"/>
<path d="M67.9864 52.2769C63.0682 52.2769 59.0668 48.6435 59.0668 44.1775C59.0668 39.7114 63.0682 36.078 67.9864 36.078C72.9047 36.078 76.9059 39.7114 76.9059 44.1775C76.9061 48.6436 72.9047 52.2769 67.9864 52.2769ZM67.9864 40.721C65.8876 40.721 64.18 42.2716 64.18 44.1775C64.18 46.0833 65.8876 47.6339 67.9864 47.6339C70.0853 47.6339 71.7928 46.0833 71.7928 44.1775C71.793 42.2716 70.0853 40.721 67.9864 40.721V40.721Z" fill="#8A8AA9"/>
<path d="M33.6147 51.1582C21.0213 51.1582 10.7758 41.8549 10.7758 30.4195V10.0043C10.7758 5.89604 14.4566 2.55371 18.9808 2.55371H21.4613V7.1967H18.9808C17.276 7.1967 15.889 8.45619 15.889 10.0043V30.4195C15.889 39.2948 23.8407 46.5152 33.6147 46.5152C43.3886 46.5152 51.3403 39.2948 51.3403 30.4195V10.2844C51.3403 8.73647 49.9533 7.47698 48.2485 7.47698H45.7206V2.83399H48.2485C52.7727 2.83399 56.4535 6.17633 56.4535 10.2844V30.4195C56.4535 41.8548 46.2079 51.1582 33.6147 51.1582Z" fill="#BDBDD2"/>
<path d="M48.2484 2.83411H45.7204V7.4771H48.2484C49.9531 7.4771 51.3401 8.73658 51.3401 10.2846V30.4197C51.3401 39.2949 43.3885 46.5154 33.6145 46.5154V51.1583C46.2079 51.1583 56.4533 41.855 56.4533 30.4197V10.2846C56.4535 6.17629 52.7727 2.83411 48.2484 2.83411V2.83411Z" fill="#ABABC5"/>
<path d="M41.7436 0C38.7832 0 36.3747 2.187 36.3747 4.87514C36.3747 7.56327 38.7832 9.75028 41.7436 9.75028H46.9987V0H41.7436Z" fill="#00BFA6"/>
<path d="M25.4382 0H20.183V9.75028H25.4382C28.3985 9.75028 30.807 7.56327 30.807 4.87514C30.807 2.187 28.3987 0 25.4382 0Z" fill="#00BFA6"/>
</g>
<defs>
<clipPath id="clip0">
<rect width="87" height="79" fill="white"/>
</clipPath>
</defs>
</svg>
