<svg width="512" height="512" viewBox="0 0 512 512" fill="none" xmlns="http://www.w3.org/2000/svg">
<path d="M474.5 106.18H378.13C373.987 106.18 370.63 109.537 370.63 113.68C370.63 117.823 373.987 121.18 378.13 121.18H474.5C486.906 121.18 497 131.274 497 143.68V398.32C497 410.726 486.906 420.82 474.5 420.82H285.306C285.28 420.82 285.255 420.816 285.229 420.816C285.203 420.816 285.178 420.82 285.152 420.82H226.85C226.824 420.82 226.799 420.816 226.773 420.816C226.747 420.816 226.722 420.82 226.696 420.82H37.5C25.094 420.82 15 410.726 15 398.32V143.68C15 131.274 25.094 121.18 37.5 121.18H161.365V128.728C161.365 131.236 161.471 133.72 161.661 136.18H40.5C34.71 136.18 30 140.89 30 146.68V332.692C30 336.835 33.357 340.192 37.5 340.192C41.643 340.192 45 336.835 45 332.692V151.18H164.023C170.433 177.849 187.982 200.209 211.4 212.908V229.711C211.4 233.648 208.889 237.136 205.149 238.392L132.761 262.732C109.325 270.605 93.579 292.495 93.579 317.202V390.822H45V367.693C45 363.55 41.643 360.193 37.5 360.193C33.357 360.193 30 363.55 30 367.693V395.322C30 401.112 34.71 405.822 40.5 405.822H471.5C477.29 405.822 482 401.112 482 395.322V146.68C482 140.89 477.29 136.18 471.5 136.18H350.41C350.556 134.024 350.634 131.855 350.634 129.673V45.331C350.635 20.335 330.3 0 305.304 0H206.697C181.701 0 161.366 20.335 161.366 45.331V106.18H37.5C16.822 106.18 0 123.002 0 143.68V398.32C0 418.998 16.822 435.82 37.5 435.82H219.271V467H209.797C190.774 467 175.297 482.477 175.297 501.5C175.297 507.29 180.007 512 185.797 512H326.201C331.991 512 336.701 507.29 336.701 501.5C336.701 482.477 321.224 467 302.201 467H292.727V435.82H474.5C495.178 435.82 512 418.998 512 398.32V143.68C512 123.002 495.178 106.18 474.5 106.18ZM403.42 390.82H108.58V317.2C108.58 298.943 120.218 282.768 137.541 276.949L154.485 271.252C153.514 276.715 153.108 282.262 153.319 287.852C153.512 292.964 154.206 298.03 155.39 302.996C138.991 307.302 126.858 322.249 126.858 339.98V364.663C126.858 371.645 132.539 377.326 139.521 377.326H146.529C150.672 377.326 154.029 373.969 154.029 369.826C154.029 365.683 150.672 362.326 146.529 362.326H141.858V339.98C141.858 327.174 152.271 316.755 165.075 316.745C165.082 316.745 165.088 316.746 165.094 316.746C165.103 316.746 165.113 316.745 165.122 316.745C177.921 316.761 188.328 327.177 188.328 339.979V362.325H183.657C179.514 362.325 176.157 365.682 176.157 369.825C176.157 373.968 179.514 377.325 183.657 377.325H190.665C197.647 377.325 203.328 371.644 203.328 364.662V339.979C203.328 320.792 189.12 304.866 170.674 302.155C169.295 297.304 168.498 292.322 168.308 287.284C168.029 279.919 169.04 272.638 171.295 265.598L204.963 254.277L247.291 296.561C252.551 301.815 261.112 301.815 266.373 296.56L308.279 254.696L345.095 267.074C347.774 274.084 349.142 281.638 349.072 289.11C349.009 295.818 347.761 302.585 345.474 308.929C328.973 311.459 316.294 325.741 316.294 342.926C316.294 361.892 331.736 377.322 350.717 377.322C369.698 377.322 385.141 361.891 385.141 342.926C385.141 327.494 374.916 314.405 360.881 310.062C362.9 303.307 364.006 296.255 364.073 289.252C364.125 283.78 363.55 278.275 362.4 272.891L374.461 276.946C391.782 282.765 403.42 298.94 403.42 317.197V390.82ZM293.861 247.901L256.833 284.89L218.997 247.093C223.619 242.64 226.4 236.428 226.4 229.709V219.418C235.618 222.494 245.453 224.182 255.666 224.217C255.779 224.217 255.891 224.218 256.004 224.218C266.213 224.218 276.173 222.613 285.6 219.524V229.709C285.6 236.84 288.719 243.411 293.861 247.901ZM350.706 323.534H350.714H350.724C361.431 323.537 370.142 332.237 370.142 342.929C370.142 353.624 361.428 362.325 350.718 362.325C340.008 362.325 331.295 353.624 331.295 342.929C331.295 332.238 340.002 323.54 350.706 323.534ZM348.185 151.18H467V390.82H418.42V317.2C418.42 292.493 402.674 270.603 379.24 262.73L306.847 238.39C303.11 237.134 300.599 233.646 300.599 229.709V213.11C308.674 208.788 316.161 203.258 322.831 196.61C335.564 183.924 344.228 168.256 348.185 151.18ZM176.365 45.331C176.365 28.606 189.971 15 206.696 15H305.303C322.028 15 335.634 28.606 335.634 45.331V90.282C328.013 89.414 318.62 87.129 308.983 81.786C300.495 77.081 293.154 70.783 287.165 63.069C283.317 58.108 276.216 56.93 271.002 60.387C260.734 67.193 249.767 72.961 238.404 77.533C218.71 85.457 197.873 89.839 176.365 90.613V45.331ZM176.365 105.635C199.803 104.854 222.522 100.093 244.004 91.449C255.467 86.837 266.559 81.099 277.009 74.379C283.926 82.748 292.225 89.647 301.71 94.905C314.092 101.768 326.144 104.469 335.635 105.366V129.673C335.635 150.956 327.328 170.955 312.244 185.986C305.769 192.439 298.381 197.633 290.376 201.467C290.045 201.596 289.725 201.745 289.42 201.918C279.003 206.736 267.567 209.263 255.719 209.217H255.718C211.963 209.067 176.365 172.958 176.365 128.727C176.365 128.63 176.361 105.713 176.365 105.635ZM234.271 435.82H277.728V467H234.271V435.82ZM302.202 482C311.406 482 319.141 488.409 321.178 497H190.822C192.858 488.409 200.593 482 209.798 482H302.202Z" fill="#FEFFFF"/>
</svg>
