<svg width="275" height="200" viewBox="0 0 309 313" fill="none" xmlns="http://www.w3.org/2000/svg">
<g clip-path="url(#clip0)">
<path d="M196.166 70.3926H112.904C111.006 70.395 109.187 71.1782 107.846 72.5705C106.504 73.9628 105.749 75.8504 105.747 77.8194V269.85L104.793 270.153L84.3671 276.644C83.3991 276.95 82.3536 276.845 81.4599 276.352C80.5663 275.859 79.8977 275.018 79.6009 274.014L18.8443 68.0705C18.5486 67.066 18.6494 65.9807 19.1245 65.0532C19.5995 64.1257 20.41 63.4319 21.3778 63.1243L52.8535 53.1229L144.103 24.1388L175.578 14.1374C176.057 13.9844 176.56 13.931 177.059 13.9801C177.558 14.0292 178.043 14.18 178.486 14.4237C178.928 14.6674 179.321 14.9994 179.64 15.4005C179.958 15.8017 180.198 16.2642 180.345 16.7615L195.875 69.4024L196.166 70.3926Z" fill="#3AAFA9"/>
<path d="M214.335 69.4038L195.617 5.95949C195.306 4.90239 194.797 3.91933 194.119 3.06648C193.442 2.21363 192.609 1.50771 191.668 0.989052C190.727 0.470396 189.697 0.149166 188.637 0.0437318C187.577 -0.0617027 186.507 0.0507237 185.488 0.374575L141.235 14.4309L49.9911 43.42L5.73821 57.4814C3.68246 58.1364 1.96115 59.6112 0.952104 61.5819C-0.0569376 63.5526 -0.271272 65.8582 0.356156 67.9927L64.3284 284.819C64.8381 286.542 65.8665 288.05 67.2628 289.122C68.6591 290.194 70.3496 290.774 72.0865 290.776C72.8904 290.776 73.6897 290.651 74.4576 290.404L104.793 280.769L105.747 280.462V279.427L104.793 279.729L74.1762 289.459C72.3616 290.033 70.4017 289.836 68.7264 288.913C67.0511 287.989 65.7972 286.414 65.2398 284.532L1.27242 67.7006C0.996212 66.7682 0.899945 65.7885 0.989131 64.8175C1.07832 63.8465 1.3512 62.9033 1.79216 62.0419C2.23312 61.1804 2.83351 60.4178 3.55892 59.7975C4.28433 59.1772 5.12052 58.7115 6.01962 58.427L50.2725 44.3657L141.517 15.3816L185.77 1.32026C186.452 1.10429 187.161 0.994169 187.874 0.993479C189.404 0.997044 190.893 1.50897 192.122 2.45428C193.352 3.39959 194.257 4.72861 194.706 6.24667L213.338 69.4038L213.634 70.394H214.626L214.335 69.4038Z" fill="#3F3D56"/>
<path d="M58.5334 63.2863C57.6138 63.2856 56.7186 62.9791 55.9792 62.4118C55.2397 61.8445 54.695 61.0462 54.4248 60.134L48.2793 39.3036C48.1142 38.744 48.0568 38.1562 48.1107 37.5737C48.1645 36.9911 48.3283 36.4253 48.5929 35.9085C48.8574 35.3917 49.2175 34.9341 49.6526 34.5617C50.0876 34.1893 50.589 33.9096 51.1283 33.7383L135.072 7.06946C136.161 6.72462 137.338 6.84223 138.343 7.39646C139.349 7.95069 140.101 8.89627 140.435 10.0257L146.581 30.8563C146.913 31.9864 146.8 33.207 146.265 34.2504C145.731 35.2937 144.82 36.0746 143.732 36.4218L59.7879 63.0907C59.3814 63.2201 58.9586 63.2861 58.5334 63.2863V63.2863Z" fill="#2B7A79"/>
<path d="M90.726 22.2578C95.9961 22.2578 100.268 17.8244 100.268 12.3555C100.268 6.88655 95.9961 2.45312 90.726 2.45312C85.4559 2.45312 81.1836 6.88655 81.1836 12.3555C81.1836 17.8244 85.4559 22.2578 90.726 22.2578Z" fill="#2D8681"/>
<path d="M90.7259 18.6259C94.0631 18.6259 96.7684 15.8185 96.7684 12.3554C96.7684 8.89235 94.0631 6.08496 90.7259 6.08496C87.3887 6.08496 84.6833 8.89235 84.6833 12.3554C84.6833 15.8185 87.3887 18.6259 90.7259 18.6259Z" fill="white"/>
<path d="M287.53 288.244H126.263C125.188 288.243 124.157 287.799 123.397 287.01C122.637 286.221 122.209 285.151 122.208 284.036V83.5132C122.209 82.3974 122.637 81.3277 123.397 80.5387C124.157 79.7497 125.188 79.3059 126.263 79.3047H287.53C288.605 79.306 289.636 79.7498 290.396 80.5387C291.156 81.3277 291.584 82.3974 291.585 83.5132V284.036C291.584 285.151 291.156 286.221 290.396 287.01C289.636 287.799 288.605 288.243 287.53 288.244V288.244Z" fill="#3AAFA9"/>
<path d="M213.337 69.4023H112.904C110.753 69.4055 108.692 70.2933 107.172 71.8711C105.651 73.4489 104.796 75.588 104.792 77.8193V279.728L105.747 279.426V77.8193C105.749 75.8504 106.504 73.9627 107.845 72.5705C109.187 71.1782 111.006 70.395 112.904 70.3926H213.633L213.337 69.4023ZM300.889 69.4023H112.904C110.753 69.4055 108.692 70.2933 107.172 71.8711C105.651 73.4489 104.796 75.588 104.792 77.8193V304.583C104.796 306.814 105.651 308.953 107.172 310.531C108.692 312.109 110.753 312.997 112.904 313H300.889C303.039 312.997 305.1 312.109 306.621 310.531C308.141 308.953 308.997 306.814 309 304.583V77.8193C308.997 75.588 308.141 73.4489 306.621 71.8711C305.1 70.2933 303.039 69.4055 300.889 69.4023V69.4023ZM308.045 304.583C308.043 306.552 307.288 308.44 305.947 309.832C304.605 311.224 302.786 312.007 300.889 312.01H112.904C111.006 312.007 109.187 311.224 107.845 309.832C106.504 308.44 105.749 306.552 105.747 304.583V77.8193C105.749 75.8504 106.504 73.9627 107.845 72.5705C109.187 71.1782 111.006 70.395 112.904 70.3926H300.889C302.786 70.395 304.605 71.1782 305.947 72.5705C307.288 73.9627 308.043 75.8504 308.045 77.8193V304.583Z" fill="#3F3D56"/>
<path d="M250.791 91.1875H163.001C161.863 91.1862 160.771 90.7163 159.966 89.8809C159.161 89.0455 158.709 87.9128 158.707 86.7314V64.9463C158.709 63.7649 159.161 62.6322 159.966 61.7969C160.771 60.9615 161.863 60.4916 163.001 60.4902H250.791C251.93 60.4916 253.021 60.9615 253.826 61.7969C254.631 62.6322 255.084 63.7649 255.085 64.9463V86.7314C255.084 87.9128 254.631 89.0455 253.826 89.8809C253.021 90.7163 251.93 91.1862 250.791 91.1875V91.1875Z" fill="#2B7A79"/>
<path d="M206.896 61.9756C212.166 61.9756 216.439 57.5422 216.439 52.0732C216.439 46.6043 212.166 42.1709 206.896 42.1709C201.626 42.1709 197.354 46.6043 197.354 52.0732C197.354 57.5422 201.626 61.9756 206.896 61.9756Z" fill="#3AAFA9"/>
<path d="M206.896 58.1049C210.106 58.1049 212.709 55.4045 212.709 52.0734C212.709 48.7424 210.106 46.042 206.896 46.042C203.686 46.042 201.084 48.7424 201.084 52.0734C201.084 55.4045 203.686 58.1049 206.896 58.1049Z" fill="white"/>
</g>
<defs>
<clipPath id="clip0">
<rect width="309" height="313" fill="white"/>
</clipPath>
</defs>
</svg>
