<svg width="400" height="300" viewBox="0 0 847 605" fill="none" xmlns="http://www.w3.org/2000/svg">
<g clip-path="url(#clip0)">
<path d="M84.5783 549.351L68.4214 564.225L81.2616 542.681C71.1454 524.336 54.6004 508.481 54.6004 508.481C54.6004 508.481 20.2754 541.367 20.2754 567.218C20.2754 593.068 35.6432 602.094 54.6004 602.094C73.5574 602.094 88.9252 593.068 88.9252 567.218C88.9252 561.464 87.2222 555.362 84.5783 549.351Z" fill="#F2F2F2"/>
<path d="M64.2667 565.031V566.305C64.191 581.116 61.693 592.672 56.7917 600.81C56.7223 600.929 56.6466 601.043 56.5772 601.163L56.0284 600.828L55.5049 600.501C60.9424 591.713 62.8663 579.293 62.9357 566.374C62.942 565.958 62.9483 565.535 62.942 565.113C62.923 559.644 62.5887 554.111 62.0526 548.737C62.0147 548.321 61.9706 547.898 61.9264 547.475C61.1821 540.385 60.1097 533.61 59.0121 527.725C58.9364 527.309 58.8544 526.892 58.7724 526.482C56.8737 516.528 54.9371 509.318 54.4955 507.722C54.4451 507.527 54.4135 507.42 54.4072 507.394L55.0065 507.224L55.0128 507.218L55.6184 507.047C55.6247 507.073 55.7319 507.432 55.9085 508.101C56.5835 510.599 58.3371 517.38 60.0592 526.325C60.1349 526.728 60.2169 527.145 60.2926 527.561C61.1883 532.336 62.0652 537.673 62.7591 543.274C62.9357 544.681 63.0934 546.069 63.2322 547.438C63.2826 547.86 63.3268 548.283 63.3646 548.699C63.945 554.509 64.2457 559.953 64.2667 565.031Z" fill="white"/>
<path d="M60.0595 526.325C59.6369 526.381 59.208 526.438 58.7727 526.482C57.5907 526.604 56.4032 526.665 55.215 526.665C50.151 526.672 45.1499 525.542 40.5804 523.36C40.3155 523.694 40.0505 524.029 39.7793 524.369C44.5863 526.716 49.8659 527.932 55.215 527.927C56.4835 527.927 57.751 527.859 59.0124 527.725C59.4414 527.681 59.8703 527.624 60.2929 527.561C63.7816 527.061 67.174 526.033 70.3542 524.514C70.083 524.167 69.818 523.827 69.5594 523.492C66.5495 524.899 63.3483 525.853 60.0595 526.325V526.325Z" fill="white"/>
<path d="M63.2318 547.437C62.7966 547.463 62.3613 547.475 61.9261 547.475C61.7936 547.482 61.6548 547.482 61.5223 547.482C56.0352 547.482 50.6294 546.155 45.7658 543.614C40.9022 541.074 36.725 537.395 33.5905 532.891C33.3382 533.263 33.0858 533.635 32.8398 534.014C36.107 538.571 40.4129 542.284 45.4008 544.845C50.3887 547.407 55.9152 548.743 61.5223 548.743C61.699 548.743 61.8756 548.743 62.0522 548.737C62.4938 548.731 62.929 548.718 63.3642 548.699C70.0993 548.354 76.5926 546.076 82.0675 542.139C81.8656 541.767 81.6638 541.394 81.4556 541.022C76.1346 544.888 69.8012 547.118 63.2318 547.437V547.437Z" fill="white"/>
<path d="M64.267 565.031C63.8255 565.068 63.3839 565.094 62.9423 565.113C62.4692 565.131 61.9961 565.144 61.523 565.144C54.1497 565.136 46.9776 562.739 41.0803 558.313C35.1831 553.887 30.878 547.671 28.8097 540.593C28.5258 541.104 28.242 541.609 27.9707 542.12C30.3011 549.181 34.7973 555.328 40.8205 559.687C46.8437 564.047 54.0876 566.398 61.523 566.406C61.9961 566.406 62.4692 566.399 62.936 566.374C63.3839 566.362 63.8255 566.336 64.267 566.305C73.1859 565.607 81.5064 561.546 87.5436 554.944C87.4111 554.477 87.2597 554.017 87.1084 553.55C81.2771 560.201 73.084 564.319 64.267 565.031Z" fill="white"/>
<path d="M846.547 76.2432H536.547V264.047H846.547V76.2432Z" fill="#F0F0F0"/>
<path d="M841.331 36H409.331C409.066 36 408.811 35.8946 408.624 35.7071C408.436 35.5196 408.331 35.2652 408.331 35C408.331 34.7348 408.436 34.4804 408.624 34.2929C408.811 34.1054 409.066 34 409.331 34H841.331C841.596 34 841.851 34.1054 842.038 34.2929C842.226 34.4804 842.331 34.7348 842.331 35C842.331 35.2652 842.226 35.5196 842.038 35.7071C841.851 35.8946 841.596 36 841.331 36Z" fill="#CACACA"/>
<path d="M431.839 22C437.914 22 442.839 17.0751 442.839 11C442.839 4.92487 437.914 0 431.839 0C425.764 0 420.839 4.92487 420.839 11C420.839 17.0751 425.764 22 431.839 22Z" fill="#3F3D56"/>
<path d="M469.839 22C475.914 22 480.839 17.0751 480.839 11C480.839 4.92487 475.914 0 469.839 0C463.764 0 458.839 4.92487 458.839 11C458.839 17.0751 463.764 22 469.839 22Z" fill="#3F3D56"/>
<path d="M507.839 22C513.914 22 518.839 17.0751 518.839 11C518.839 4.92487 513.914 0 507.839 0C501.764 0 496.839 4.92487 496.839 11C496.839 17.0751 501.764 22 507.839 22Z" fill="#3F3D56"/>
<path d="M713.562 167.855L694.691 148.407C694.28 147.992 693.787 147.666 693.245 147.448C692.703 147.23 692.121 147.125 691.537 147.14H691.481C690.896 147.125 690.315 147.23 689.772 147.448C689.23 147.666 688.738 147.992 688.326 148.407L669.456 167.855C668.649 168.609 668.175 169.653 668.138 170.757C668.101 171.861 668.504 172.934 669.258 173.741C669.322 173.809 669.388 173.875 669.456 173.939C670.319 174.746 671.457 175.195 672.639 175.195C673.82 175.195 674.958 174.746 675.821 173.939L687.002 162.25V192.386C687.054 193.547 687.552 194.642 688.391 195.445C689.231 196.248 690.347 196.696 691.509 196.696C692.67 196.696 693.787 196.248 694.626 195.445C695.466 194.642 695.963 193.547 696.015 192.386V162.25L707.196 173.939C708.059 174.746 709.197 175.195 710.379 175.195C711.561 175.195 712.699 174.746 713.562 173.939C714.368 173.184 714.842 172.14 714.879 171.037C714.917 169.933 714.514 168.86 713.759 168.053C713.696 167.985 713.63 167.919 713.562 167.855Z" fill="white"/>
<path d="M691.547 216.481C682.789 216.481 674.226 213.884 666.944 209.018C659.661 204.151 653.985 197.235 650.633 189.143C647.281 181.051 646.404 172.146 648.113 163.556C649.821 154.965 654.039 147.074 660.233 140.881C666.426 134.687 674.317 130.469 682.908 128.761C691.498 127.052 700.403 127.929 708.495 131.281C716.587 134.633 723.503 140.309 728.37 147.592C733.236 154.874 735.833 163.437 735.833 172.195C735.82 183.937 731.15 195.193 722.848 203.495C714.545 211.798 703.289 216.468 691.547 216.481V216.481ZM691.547 129.55C683.113 129.55 674.868 132.051 667.855 136.737C660.842 141.423 655.376 148.083 652.148 155.876C648.92 163.668 648.076 172.243 649.721 180.515C651.367 188.788 655.428 196.386 661.393 202.35C667.357 208.314 674.955 212.376 683.228 214.021C691.5 215.667 700.075 214.822 707.867 211.595C715.66 208.367 722.32 202.901 727.006 195.888C731.692 188.875 734.193 180.63 734.193 172.195C734.18 160.889 729.683 150.049 721.688 142.055C713.693 134.06 702.854 129.563 691.547 129.55V129.55Z" fill="white"/>
<path d="M716.186 364.36H426.653C423.693 364.353 421.295 359.447 421.291 353.39V206.436C421.291 200.38 423.693 195.475 426.653 195.465H716.186C719.145 195.473 721.544 200.379 721.548 206.436V353.389C721.544 359.444 719.141 364.353 716.186 364.36Z" fill="white"/>
<path d="M519.767 278.966C533.75 278.966 545.086 267.631 545.086 253.648C545.086 239.665 533.75 228.33 519.767 228.33C505.785 228.33 494.449 239.665 494.449 253.648C494.449 267.631 505.785 278.966 519.767 278.966Z" fill="#3F3D56"/>
<path d="M599.162 331.667H474.96C474.804 331.669 474.649 331.656 474.496 331.629L533.24 229.882C533.599 229.248 534.119 228.72 534.748 228.353C535.377 227.986 536.092 227.793 536.82 227.793C537.548 227.793 538.264 227.986 538.892 228.353C539.521 228.72 540.042 229.248 540.4 229.882L579.823 298.163L581.713 301.429L599.162 331.667Z" fill="#00BFA6"/>
<path d="M668.313 331.668H560.888L581.703 301.433L583.201 299.255L610.327 259.851C610.807 259.248 611.408 258.753 612.092 258.398C612.776 258.043 613.526 257.835 614.296 257.79C615.065 257.744 615.835 257.86 616.556 258.132C617.277 258.403 617.933 258.823 618.481 259.365C618.621 259.518 618.751 259.681 618.871 259.851L668.313 331.668Z" fill="#00BFA6"/>
<path d="M716.186 364.36H426.653C423.693 364.353 421.295 359.447 421.291 353.39V206.436C421.291 200.38 423.693 195.475 426.653 195.465H716.186C719.145 195.473 721.544 200.379 721.548 206.436V353.389C721.544 359.444 719.141 364.353 716.186 364.36ZM426.653 199.853C424.876 199.853 423.438 202.802 423.435 206.436V353.389C423.435 357.022 424.876 359.967 426.653 359.971H716.186C717.962 359.971 719.401 357.023 719.404 353.389V206.436C719.404 202.802 717.962 199.857 716.186 199.853L426.653 199.853Z" fill="#E6E6E6"/>
<path d="M382 604.047H1C0.734784 604.047 0.480429 603.942 0.292892 603.754C0.105356 603.567 0 603.313 0 603.047C0 602.782 0.105356 602.528 0.292892 602.34C0.480429 602.153 0.734784 602.047 1 602.047H382C382.265 602.047 382.52 602.153 382.707 602.34C382.895 602.528 383 602.782 383 603.047C383 603.313 382.895 603.567 382.707 603.754C382.52 603.942 382.265 604.047 382 604.047Z" fill="#CACACA"/>
<path d="M267.952 207.362C258.536 194.102 239.907 193.484 239.907 193.484C239.907 193.484 221.754 191.549 210.109 211.744C199.255 230.568 214.548 253.965 214.548 253.965C217.571 254.146 230.639 254.225 269.531 249.421L271.274 240.023L276.273 248.593C278.351 248.339 280.513 248.077 282.772 247.804C281.749 237.832 277.012 220.121 267.952 207.362Z" fill="#2F2E41"/>
<path d="M290.147 392.887L287.653 307.081L270.67 314.511L278.865 393.817C277.098 395.187 275.821 397.091 275.225 399.245C274.628 401.399 274.743 403.689 275.553 405.772C276.364 407.855 277.825 409.621 279.721 410.807C281.616 411.992 283.843 412.533 286.071 412.349C288.299 412.166 290.408 411.267 292.084 409.788C293.76 408.309 294.912 406.327 295.371 404.139C295.829 401.951 295.568 399.674 294.627 397.646C293.686 395.619 292.114 393.949 290.147 392.887V392.887Z" fill="#FFB8B8"/>
<path d="M268.017 318.226C279.092 319.298 287.047 314.722 292.429 305.489L288.714 288.478C288.714 282.944 286.951 277.554 283.679 273.091C280.408 268.627 275.799 265.322 270.522 263.656L268.547 263.032L268.017 318.226Z" fill="#E6E6E6"/>
<path d="M175.628 294.632C175.482 294.632 175.337 294.617 175.195 294.587L154.707 294.241L154.662 293.732L154.663 293.71L156.363 251.494C156.382 251.063 156.486 250.64 156.668 250.249C156.851 249.857 157.109 249.506 157.427 249.215C157.746 248.923 158.119 248.697 158.525 248.55C158.93 248.403 159.361 248.337 159.792 248.356L176.203 249.088C176.634 249.107 177.057 249.211 177.448 249.394C177.839 249.576 178.19 249.834 178.482 250.153C178.773 250.471 178.999 250.844 179.146 251.25C179.293 251.655 179.359 252.086 179.34 252.517L177.725 292.615C177.703 293.157 177.473 293.669 177.082 294.045C176.691 294.421 176.17 294.631 175.628 294.632L175.628 294.632Z" fill="#6C63FF"/>
<path d="M173.395 294.661C173.343 294.661 173.291 294.66 173.238 294.658L157.151 293.941C156.238 293.899 155.378 293.496 154.761 292.822C154.144 292.147 153.82 291.255 153.86 290.342L155.578 251.796C155.618 250.926 156.001 250.107 156.644 249.519C157.287 248.931 158.137 248.622 159.008 248.66L175.418 249.391C176.289 249.431 177.108 249.815 177.696 250.458C178.284 251.101 178.593 251.951 178.555 252.821L176.837 291.367C176.797 292.253 176.417 293.09 175.776 293.704C175.135 294.317 174.283 294.66 173.395 294.661V294.661Z" fill="#2F2E41"/>
<path d="M166.192 261.077C167.49 261.077 168.541 260.025 168.541 258.728C168.541 257.43 167.49 256.378 166.192 256.378C164.895 256.378 163.843 257.43 163.843 258.728C163.843 260.025 164.895 261.077 166.192 261.077Z" fill="#6C63FF"/>
<path d="M185.722 305.12V320.615L170.754 297.028C171.818 295.209 172.265 293.095 172.029 291C171.793 288.906 170.886 286.944 169.443 285.408C168.001 283.871 166.101 282.842 164.026 282.474C161.95 282.106 159.812 282.418 157.929 283.365C156.046 284.312 154.52 285.842 153.578 287.727C152.636 289.612 152.328 291.751 152.701 293.826C153.074 295.9 154.108 297.798 155.648 299.236C157.188 300.675 159.152 301.577 161.247 301.808L182.171 338.883C183.262 340.816 184.942 342.351 186.966 343.263C188.99 344.175 191.252 344.417 193.423 343.954C195.594 343.491 197.561 342.347 199.036 340.688C200.512 339.03 201.419 336.943 201.627 334.733L204.216 307.12L185.722 305.12Z" fill="#FFB8B8"/>
<path d="M206.215 317.116C195.784 318.125 188.292 313.816 183.224 305.12L186.722 289.1C186.722 283.888 188.383 278.812 191.464 274.608C194.545 270.404 198.886 267.292 203.855 265.722L205.715 265.135L206.215 317.116Z" fill="#E6E6E6"/>
<path d="M230.398 594.758L218.985 592.906L220.697 548.005L237.541 550.738L230.398 594.758Z" fill="#FFB6B6"/>
<path d="M232.961 603.386L195.681 603.423L195.681 602.951C195.677 599.103 197.202 595.411 199.92 592.687C202.639 589.963 206.328 588.43 210.176 588.426H210.177L232.946 588.403L232.961 603.386Z" fill="#2F2E41"/>
<path d="M284.937 568.612L274.614 573.82L249.614 536.483L264.849 528.797L284.937 568.612Z" fill="#FFB6B6"/>
<path d="M292.618 577.289L259.334 594.082L259.122 593.661C257.388 590.225 257.091 586.241 258.294 582.586C259.498 578.931 262.104 575.903 265.54 574.17L265.541 574.169L285.869 563.913L292.618 577.289Z" fill="#2F2E41"/>
<path d="M238.628 250.091C249.837 250.091 258.923 241.005 258.923 229.796C258.923 218.587 249.837 209.501 238.628 209.501C227.419 209.501 218.333 218.587 218.333 229.796C218.333 241.005 227.419 250.091 238.628 250.091Z" fill="#FFB8B8"/>
<path d="M263.788 209.338L245.384 199.697L219.968 203.641L214.71 226.866C240.666 230.599 258.632 232.74 264.665 226.428L263.788 209.338Z" fill="#2F2E41"/>
<path d="M205.896 356.702C205.896 356.702 190.425 388.344 207.566 435.167L254.914 555.898L277.549 542.517L254.476 490.54L273.244 426.918C277.566 412.5 278.898 397.351 277.16 382.4C275.807 371.212 272.668 359.834 265.839 354.098C249.772 340.602 205.896 356.702 205.896 356.702Z" fill="#2F2E41"/>
<path d="M231.778 481.348L214.613 568.374L237.473 572.684L251.854 497.356L231.778 481.348Z" fill="#2F2E41"/>
<path d="M253.597 260L227.357 260.35L204.388 265.633L205.749 357.633C205.749 357.633 247.277 369.382 265.518 353.134L277.549 267.027C270.798 263.211 262.691 261.014 253.597 260Z" fill="#E4E4E4"/>
<path d="M251.273 209.023C258.453 209.023 264.273 203.203 264.273 196.023C264.273 188.844 258.453 183.023 251.273 183.023C244.094 183.023 238.273 188.844 238.273 196.023C238.273 203.203 244.094 209.023 251.273 209.023Z" fill="#2F2E41"/>
<path d="M238.273 193.024C238.272 191.101 238.698 189.202 239.52 187.464C240.341 185.726 241.539 184.192 243.025 182.972C244.511 181.752 246.25 180.878 248.115 180.412C249.98 179.945 251.926 179.899 253.811 180.275C252.147 179.49 250.334 179.067 248.494 179.035C246.654 179.003 244.829 179.362 243.138 180.089C241.447 180.815 239.93 181.892 238.687 183.249C237.444 184.606 236.503 186.211 235.927 187.959C235.35 189.707 235.152 191.557 235.345 193.387C235.537 195.217 236.117 196.986 237.044 198.575C237.971 200.165 239.226 201.539 240.724 202.607C242.223 203.676 243.931 204.414 245.736 204.772C243.506 203.723 241.62 202.062 240.298 199.982C238.977 197.901 238.275 195.488 238.273 193.024V193.024Z" fill="#2F2E41"/>
</g>
<defs>
<clipPath id="clip0">
<rect width="846.547" height="604.047" fill="white"/>
</clipPath>
</defs>
</svg>
